<?xml version="1.0" standalone="no"?>
<!DOCTYPE svg PUBLIC "-//W3C//DTD SVG 1.1//EN" "http://www.w3.org/Graphics/SVG/1.1/DTD/svg11.dtd" >
<svg xmlns="http://www.w3.org/2000/svg" xmlns:xlink="http://www.w3.org/1999/xlink" version="1.1">
<metadata>
Created by FontForge 20170731 at Fri Oct 21 17:41:59 2011
 By Aleksey,,,
2007 Erik Spiekermann, Christian Schwartz, Kris Sowersby published by FSI FontShop International GmbH
</metadata>
<defs>
<font id="MetaSerifPro-Black" horiz-adv-x="1" >
  <font-face 
    font-family="MetaSerifPro-Black"
    font-weight="900"
    font-stretch="normal"
    units-per-em="1000"
    panose-1="2 1 10 4 5 1 1 2 1 2"
    ascent="763"
    descent="-237"
    x-height="516"
    cap-height="697"
    bbox="-758 -290 1677 1184"
    underline-thickness="83"
    underline-position="-247"
    unicode-range="U+000D-FEFF"
  />
<missing-glyph horiz-adv-x="553" 
d="M71 0v689h411v-689h-411zM121 50h311v589h-311v-589z" />
    <glyph glyph-name="f_b" unicode="fb" horiz-adv-x="974" 
d="M756 243q0 96 -21.5 134t-63.5 38q-46 0 -77 -30v-273q24 -28 71 -28q45 0 68 33t23 126zM594 736v-287q34 80 143 80q95 0 148.5 -67t53.5 -201q0 -143 -66 -208.5t-177 -65.5t-143 70q-10 -42 -30 -57h-115q13 35 13 117v463q0 91 -83 91q-38 0 -59.5 -25t-21.5 -89
v-41h114l-17 -84h-96v-312q0 -43 11 -56.5t46 -13.5v-50h-287v50q35 0 46 13.5t11 56.5v312h-60v59l60 25v27q0 106 65 154.5t172 48.5q93 0 156 -40l28 30h88z" />
    <glyph glyph-name="f_f" unicode="ff" horiz-adv-x="705" 
d="M258 432v-312q0 -43 11 -56.5t46 -13.5v-50h-287v50q35 0 46 13.5t11 56.5v312h-60v59l60 25v21q0 100 70.5 150.5t183.5 50.5q82 0 145 -30q50 38 143 38q97 0 148 -24v-115h-97q0 36 -9.5 50t-28.5 14q-42 0 -42 -59v-96h121l-17 -84h-103v-312q0 -43 14.5 -56.5
t62.5 -13.5v-50h-307v50q35 0 46 13.5t11 56.5v312h-168zM257 553v-37h169v65q0 40 -18 61t-60 21q-39 0 -65 -26.5t-26 -83.5z" />
    <glyph glyph-name="f_f_b" unicode="ffb" horiz-adv-x="1315" 
d="M935 736v-287q34 80 143 80q95 0 148.5 -67t53.5 -201q0 -143 -66 -208.5t-177 -65.5t-143 70q-10 -42 -30 -57h-115q13 35 13 117v463q0 91 -83 91q-38 0 -59.5 -25t-21.5 -89v-41h114l-17 -84h-96v-312q0 -43 11 -56.5t46 -13.5v-50h-287v50q35 0 46 13.5t11 56.5v312
h-168v-312q0 -43 11 -56.5t46 -13.5v-50h-287v50q35 0 46 13.5t11 56.5v312h-60v59l60 25v21q0 100 70.5 150.5t183.5 50.5q78 0 154 -37q62 45 170 45q93 0 156 -40l28 30h88zM257 553v-37h169v65q0 40 -18 61t-60 21q-39 0 -65 -26.5t-26 -83.5zM1097 243q0 96 -21.5 134
t-63.5 38q-46 0 -77 -30v-273q24 -28 71 -28q45 0 68 33t23 126z" />
    <glyph glyph-name="f_f_h" unicode="ffh" horiz-adv-x="1323" 
d="M935 736v-292q75 85 172 85q66 0 107.5 -40t41.5 -119v-250q0 -43 11 -56.5t46 -13.5v-50h-287v50q35 0 46 13.5t11 56.5v208q0 81 -63 81q-40 0 -85 -27v-262q0 -43 11 -56.5t46 -13.5v-50h-287v50q35 0 46 13.5t11 56.5v460q0 91 -83 91q-38 0 -59.5 -25t-21.5 -89v-41
h114l-17 -84h-96v-312q0 -43 11 -56.5t46 -13.5v-50h-287v50q35 0 46 13.5t11 56.5v312h-168v-312q0 -43 11 -56.5t46 -13.5v-50h-287v50q35 0 46 13.5t11 56.5v312h-60v59l60 25v21q0 100 70.5 150.5t183.5 50.5q78 0 154 -37q62 45 170 45q93 0 156 -40l28 30h88zM257 553
v-37h169v65q0 40 -18 61t-60 21q-39 0 -65 -26.5t-26 -83.5z" />
    <glyph glyph-name="f_f_i" unicode="ffi" horiz-adv-x="1004" 
d="M489 702q62 44 178 44q123 0 188 -37v-115h-137q0 41 -12.5 59t-44.5 18q-33 0 -48 -19.5t-15 -67.5v-68h248l61 10h25v-406q0 -43 11 -56.5t46 -13.5v-50h-287v50q35 0 46 13.5t11 56.5v227q0 53 -10 69t-42 16h-108v-312q0 -43 11 -56.5t46 -13.5v-50h-287v50
q35 0 46 13.5t11 56.5v312h-168v-312q0 -43 11 -56.5t46 -13.5v-50h-287v50q35 0 46 13.5t11 56.5v312h-60v59l60 25v21q0 100 70.5 150.5t183.5 50.5q86 0 150 -36zM426 516v65q0 40 -18 61t-60 21q-39 0 -65 -26.5t-26 -83.5v-37h169z" />
    <glyph glyph-name="f_f_j" unicode="ffj" horiz-adv-x="1000" 
d="M426 516v65q0 40 -18 61t-60 21q-39 0 -65 -26.5t-26 -83.5v-37h169zM707 432h-108v-312q0 -43 11 -56.5t46 -13.5v-50h-287v50q35 0 46 13.5t11 56.5v312h-168v-312q0 -43 11 -56.5t46 -13.5v-50h-287v50q35 0 46 13.5t11 56.5v312h-60v59l60 25v21q0 100 70.5 150.5
t183.5 50.5q86 0 150 -36q62 44 178 44q123 0 188 -37v-115h-137q0 41 -12.5 59t-44.5 18q-33 0 -48 -19.5t-15 -67.5v-68h248l61 10h25v-508q0 -53 -21 -95t-56 -67.5t-71.5 -40.5t-75.5 -21l-29 46q45 21 62.5 60.5t17.5 117.5v329q0 53 -10 69t-42 16z" />
    <glyph glyph-name="f_f_k" unicode="ffk" horiz-adv-x="1301" 
d="M1183 409l-88 -95l126 -212q13 -22 26.5 -33t23.5 -14t30 -5v-50h-214l-143 259l125 142q16 17 16 34q0 30 -48 30v51h245v-51q-30 -4 -52 -16t-47 -40zM493 701q62 45 170 45q93 0 156 -40l28 30h88v-616q0 -43 11 -56.5t46 -13.5v-50h-287v50q35 0 46 13.5t11 56.5v460
q0 91 -83 91q-38 0 -59.5 -25t-21.5 -89v-41h114l-17 -84h-96v-312q0 -43 11 -56.5t46 -13.5v-50h-287v50q35 0 46 13.5t11 56.5v312h-168v-312q0 -43 11 -56.5t46 -13.5v-50h-287v50q35 0 46 13.5t11 56.5v312h-60v59l60 25v21q0 100 70.5 150.5t183.5 50.5q78 0 154 -37z
M257 553v-37h169v65q0 40 -18 61t-60 21q-39 0 -65 -26.5t-26 -83.5z" />
    <glyph glyph-name="f_f_l" unicode="ffl" horiz-adv-x="1007" 
d="M493 701q62 45 170 45q93 0 156 -40l28 30h88v-616q0 -43 11 -56.5t46 -13.5v-50h-287v50q35 0 46 13.5t11 56.5v460q0 91 -83 91q-38 0 -59.5 -25t-21.5 -89v-41h114l-17 -84h-96v-312q0 -43 11 -56.5t46 -13.5v-50h-287v50q35 0 46 13.5t11 56.5v312h-168v-312
q0 -43 11 -56.5t46 -13.5v-50h-287v50q35 0 46 13.5t11 56.5v312h-60v59l60 25v21q0 100 70.5 150.5t183.5 50.5q78 0 154 -37zM257 553v-37h169v65q0 40 -18 61t-60 21q-39 0 -65 -26.5t-26 -83.5z" />
    <glyph glyph-name="f_f_t" unicode="fft" horiz-adv-x="1078" 
d="M619 746q97 0 148 -24v-115h-97q0 37 -8.5 50.5t-27.5 13.5q-36 0 -36 -58v-97h182q8 75 48 133l128 13q-9 -65 -9 -146h121l-17 -84h-103v-255q0 -60 9.5 -82t44.5 -22q24 0 57 13l19 -59q-63 -40 -152 -40q-77 0 -114 33t-37 115v297h-176v-312q0 -43 14.5 -56.5
t62.5 -13.5v-50h-307v50q35 0 46 13.5t11 56.5v312h-168v-312q0 -43 11 -56.5t46 -13.5v-50h-287v50q35 0 46 13.5t11 56.5v312h-60v59l60 25v21q0 100 70.5 150.5t183.5 50.5q82 0 145 -30q50 38 135 38zM257 553v-37h169v65q0 40 -18 61t-60 21q-39 0 -65 -26.5t-26 -83.5
z" />
    <glyph glyph-name="f_h" unicode="fh" horiz-adv-x="982" 
d="M594 736v-292q75 85 172 85q66 0 107.5 -40t41.5 -119v-250q0 -43 11 -56.5t46 -13.5v-50h-287v50q35 0 46 13.5t11 56.5v208q0 81 -63 81q-40 0 -85 -27v-262q0 -43 11 -56.5t46 -13.5v-50h-287v50q35 0 46 13.5t11 56.5v460q0 91 -83 91q-38 0 -59.5 -25t-21.5 -89v-41
h114l-17 -84h-96v-312q0 -43 11 -56.5t46 -13.5v-50h-287v50q35 0 46 13.5t11 56.5v312h-60v59l60 25v27q0 106 65 154.5t172 48.5q93 0 156 -40l28 30h88z" />
    <glyph glyph-name="f_i" unicode="fi" horiz-adv-x="663" 
d="M258 432v-312q0 -43 11 -56.5t46 -13.5v-50h-287v50q35 0 46 13.5t11 56.5v312h-60v59l60 25v46q0 184 241 184q123 0 188 -37v-115h-137q0 41 -12.5 59t-44.5 18q-33 0 -48 -19.5t-15 -67.5v-68h248l61 10h25v-406q0 -43 11 -56.5t46 -13.5v-50h-287v50q35 0 46 13.5
t11 56.5v227q0 53 -10 69t-42 16h-108z" />
    <glyph glyph-name="f_j" unicode="fj" horiz-adv-x="659" 
d="M418 18v329q0 53 -10 69t-42 16h-108v-312q0 -43 11 -56.5t46 -13.5v-50h-287v50q35 0 46 13.5t11 56.5v312h-60v59l60 25v46q0 184 241 184q123 0 188 -37v-115h-137q0 41 -12.5 59t-44.5 18q-33 0 -48 -19.5t-15 -67.5v-68h248l61 10h25v-508q0 -53 -21 -95t-56 -67.5
t-71.5 -40.5t-75.5 -21l-29 46q45 21 62.5 60.5t17.5 117.5z" />
    <glyph glyph-name="f_k" unicode="fk" horiz-adv-x="960" 
d="M842 409l-88 -95l126 -212q13 -22 26.5 -33t23.5 -14t30 -5v-50h-214l-143 259l125 142q16 17 16 34q0 30 -48 30v51h245v-51q-30 -4 -52 -16t-47 -40zM421 120v460q0 91 -83 91q-38 0 -59.5 -25t-21.5 -89v-41h114l-17 -84h-96v-312q0 -43 11 -56.5t46 -13.5v-50h-287
v50q35 0 46 13.5t11 56.5v312h-60v59l60 25v27q0 106 65 154.5t172 48.5q93 0 156 -40l28 30h88v-616q0 -43 11 -56.5t46 -13.5v-50h-287v50q35 0 46 13.5t11 56.5z" />
    <glyph glyph-name="f_l" unicode="fl" horiz-adv-x="666" 
d="M421 120v460q0 91 -83 91q-38 0 -59.5 -25t-21.5 -89v-41h114l-17 -84h-96v-312q0 -43 11 -56.5t46 -13.5v-50h-287v50q35 0 46 13.5t11 56.5v312h-60v59l60 25v27q0 106 65 154.5t172 48.5q93 0 156 -40l28 30h88v-616q0 -43 11 -56.5t46 -13.5v-50h-287v50
q35 0 46 13.5t11 56.5z" />
    <glyph glyph-name="f_t" unicode="ft" horiz-adv-x="737" 
d="M257 516h182q8 75 48 133l128 13q-9 -65 -9 -146h121l-17 -84h-103v-255q0 -60 9.5 -82t44.5 -22q24 0 57 13l19 -59q-63 -40 -152 -40q-77 0 -114 33t-37 115v297h-176v-312q0 -43 14.5 -56.5t62.5 -13.5v-50h-307v50q35 0 46 13.5t11 56.5v312h-60v59l60 25v65
q0 165 193 165q97 0 148 -24v-115h-97q0 37 -8.5 50.5t-27.5 13.5q-36 0 -36 -58v-97z" />
    <glyph glyph-name=".notdef" horiz-adv-x="553" 
d="M71 0v689h411v-689h-411zM121 50h311v589h-311v-589z" />
    <glyph glyph-name=".null" horiz-adv-x="0" 
 />
    <glyph glyph-name=".null" horiz-adv-x="0" 
 />
    <glyph glyph-name="nonmarkingreturn" horiz-adv-x="333" 
 />
    <glyph glyph-name="CR" unicode="&#xd;" horiz-adv-x="225" 
 />
    <glyph glyph-name="space" unicode=" " horiz-adv-x="225" 
 />
    <glyph glyph-name="exclam" unicode="!" horiz-adv-x="325" 
d="M108 228l-53 459l215 17l-52 -476h-110zM162 -13q-42 0 -72 30t-30 73q0 41 30 71t72 30t72.5 -30t30.5 -71q0 -43 -30.5 -73t-72.5 -30z" />
    <glyph glyph-name="quotedbl" unicode="&#x22;" horiz-adv-x="454" 
d="M369 453h-105v256h105v-256zM190 453h-105v256h105v-256z" />
    <glyph glyph-name="numbersign" unicode="#" horiz-adv-x="582" 
d="M60 419v90h106l28 200h82l-28 -200h122l28 200h82l-28 -200h100v-90h-112l-17 -118h99v-90h-111l-29 -211h-82l29 211h-122l-29 -211h-82l29 211h-95v90h107l17 118h-94zM236 419l-17 -118h122l17 118h-122z" />
    <glyph glyph-name="dollar" unicode="$" horiz-adv-x="594" 
d="M316 -101h-59v88q-132 3 -232 57v137h128q11 -119 104 -129v218l-47 11q-93 22 -138.5 68t-45.5 136q0 103 61.5 159t169.5 64v87h59v-87q114 -3 207 -47v-150h-124q-6 54 -24 85t-59 39v-194l43 -10q102 -25 153.5 -74t51.5 -141q0 -102 -64 -160t-184 -67v-90zM398 154
q0 76 -82 102v-202q82 15 82 100zM179 551q0 -73 78 -95v181q-37 -5 -57.5 -28t-20.5 -58z" />
    <glyph glyph-name="percent" unicode="%" horiz-adv-x="1048" 
d="M419 458q0 -110 -56 -163.5t-142 -53.5q-191 0 -191 209q0 215 200 215q81 0 135 -52t54 -155zM276 460q0 85 -14 119.5t-42 34.5q-55 0 -55 -158q0 -91 12.5 -130t44.5 -39q28 0 41 39t13 134zM792 730l-487 -853h-76l487 853h76zM1018 208q0 -110 -56 -163.5
t-142 -53.5q-191 0 -191 209q0 215 200 215q81 0 135 -52t54 -155zM875 210q0 85 -14 119.5t-42 34.5q-55 0 -55 -158q0 -91 12.5 -130t44.5 -39q28 0 41 39t13 134z" />
    <glyph glyph-name="ampersand" unicode="&#x26;" horiz-adv-x="725" 
d="M518 548q0 -102 -151 -167l163 -176q1 4 5.5 15.5t6.5 18.5t4 20.5t2 28.5q0 26 -14.5 35.5t-55.5 13.5v46h223v-46q-36 -2 -50.5 -11.5t-20.5 -39.5q-14 -73 -52 -134l57 -61q24 -26 41 -34t49 -8v-49h-232l-39 40q-44 -27 -88 -40t-115 -13q-104 0 -170 42.5t-66 129.5
q0 133 161 179l-35 35q-73 73 -73 152q0 77 62.5 126.5t170.5 49.5q101 0 159 -38.5t58 -114.5zM323 59q53 0 92 25l-195 206q-33 -42 -33 -108q0 -57 38.5 -90t97.5 -33zM233 563q0 -27 19 -54.5t65 -73.5l12 -12q28 28 40 58t12 74q0 37 -20 58t-57 21q-33 0 -52 -17.5
t-19 -53.5z" />
    <glyph glyph-name="quotesingle" unicode="'" horiz-adv-x="275" 
d="M190 453h-105v256h105v-256z" />
    <glyph glyph-name="parenleft" unicode="(" horiz-adv-x="345" 
d="M195 314q0 -103 8 -173t38 -136.5t84 -101.5l-27 -50q-151 49 -209.5 154t-58.5 307t58.5 307t209.5 154l27 -50q-54 -35 -84 -101.5t-38 -136.5t-8 -173z" />
    <glyph glyph-name="parenright" unicode=")" horiz-adv-x="345" 
d="M150 314q0 103 -8 173t-38 136.5t-84 101.5l27 50q151 -49 209.5 -154t58.5 -307t-58.5 -307t-209.5 -154l-27 50q54 35 84 101.5t38 136.5t8 173z" />
    <glyph glyph-name="asterisk" unicode="*" horiz-adv-x="461" 
d="M421 564l-110 -66l53 -123l-37 -29l-98 94l-95 -91l-36 27l51 122l-109 68l13 41l129 -13l28 125h42l28 -125l127 12z" />
    <glyph glyph-name="plus" unicode="+" horiz-adv-x="577" 
d="M246 507h84v-197h192v-78h-192v-200h-84v200h-191v78h191v197z" />
    <glyph glyph-name="comma" unicode="," horiz-adv-x="288" 
d="M243 51q0 -166 -194 -202l-34 44q57 15 84 33t27 44q0 18 -8 26.5t-29 17.5q-52 23 -52 74q0 37 27 62.5t69 25.5q48 0 79 -35.5t31 -89.5z" />
    <glyph glyph-name="hyphen" unicode="-" horiz-adv-x="363" 
d="M318 217h-273v133h273v-133z" />
    <glyph glyph-name="period" unicode="." horiz-adv-x="295" 
d="M250 90q0 -43 -30.5 -73t-72.5 -30t-72 30t-30 73q0 41 30 71t72 30t72.5 -30t30.5 -71z" />
    <glyph glyph-name="slash" unicode="/" horiz-adv-x="433" 
d="M20 -149l260 920h108l-260 -920h-108z" />
    <glyph glyph-name="zero" unicode="0" horiz-adv-x="598" 
d="M558 271q0 -146 -72 -215t-193 -69q-116 0 -184.5 71t-68.5 198q0 121 73.5 197t189.5 76q108 0 181.5 -64t73.5 -194zM366 277q0 102 -16.5 142t-51.5 40q-23 0 -37 -16t-22.5 -63.5t-8.5 -131.5q0 -108 14.5 -152t55.5 -44q35 0 50.5 48t15.5 177z" />
    <glyph glyph-name="one" unicode="1" horiz-adv-x="425" 
d="M323 516v-385q0 -47 15 -63t72 -18v-50h-356v50q62 3 79 18.5t17 63.5v263q-52 -28 -107 -41l-23 55l192 107h111z" />
    <glyph glyph-name="two" unicode="2" horiz-adv-x="492" 
d="M245 529q100 0 154.5 -42t54.5 -125q0 -82 -63 -133.5t-199 -101.5l-33 -12h313l-17 -115h-440v90l108 79q39 28 55 41t38 35t29.5 44t7.5 50q0 37 -25.5 59.5t-64.5 22.5q-57 0 -105 -31l-28 64q83 75 215 75z" />
    <glyph glyph-name="three" unicode="3" horiz-adv-x="484" 
d="M168 429q-63 0 -123 -35l-31 62q98 73 223 73q92 0 145 -42.5t53 -121.5q0 -120 -133 -157q70 -10 111 -56.5t41 -107.5q0 -58 -29 -100.5t-78.5 -65t-103 -33t-113.5 -10.5q-75 0 -128 13l-12 65q59 -8 106 -8q96 0 134 35.5t38 99.5q0 57 -33.5 90t-87.5 33
q-31 0 -47 -2v79q38 -2 58 -2q48 0 72.5 23t24.5 78q0 90 -87 90z" />
    <glyph glyph-name="four" unicode="4" horiz-adv-x="577" 
d="M319 -179v183h-304v77l227 435h171l-266 -439h172q0 92 11 144.5t43 108.5l120 18v-271h84v-73h-84v-164z" />
    <glyph glyph-name="five" unicode="5" horiz-adv-x="492" 
d="M457 70q0 -61 -27.5 -107.5t-74.5 -73.5t-103.5 -40t-120.5 -13q-74 0 -128 18l-13 62q48 -12 110 -12q29 0 56.5 6.5t55 21t44 43t16.5 68.5q0 64 -33.5 97.5t-88.5 33.5q-57 0 -98 -19l35 361h364l-16 -141h-280l-15 -126q42 13 93 13q101 0 162.5 -51t61.5 -141z" />
    <glyph glyph-name="six" unicode="6" horiz-adv-x="577" 
d="M488 633q-109 -41 -169 -95.5t-83 -138.5q47 27 109 27q91 0 146.5 -52.5t55.5 -157.5q0 -111 -66.5 -170t-190.5 -59q-123 0 -186.5 70.5t-63.5 201.5q0 93 37 169t100.5 127t135.5 84.5t155 51.5zM296 349q-40 0 -72 -13q-6 -48 -6 -84q0 -98 23.5 -151t65.5 -53
q39 0 55 36t16 112q0 80 -17.5 116.5t-64.5 36.5z" />
    <glyph glyph-name="seven" unicode="7" horiz-adv-x="454" 
d="M449 516l-18 -133q-84 -112 -133 -237t-73 -285l-182 -28q54 233 292 539h-330l17 144h427z" />
    <glyph glyph-name="eight" unicode="8" horiz-adv-x="586" 
d="M35 158q0 102 140 144q-61 34 -89.5 75.5t-28.5 112.5q0 100 67.5 146.5t167.5 46.5q105 0 166 -42.5t61 -116.5q0 -54 -30.5 -84.5t-93.5 -51.5q86 -40 121 -78.5t35 -119.5q0 -96 -68 -149.5t-192 -53.5q-135 0 -195.5 43t-60.5 128zM393 145q0 17 -2.5 29.5t-11 23
t-16 17.5t-25.5 15.5t-29.5 13.5t-39.5 16.5t-46 18.5q-39 -50 -39 -119q0 -110 106 -110q49 0 76 24.5t27 70.5zM211 529q0 -36 24.5 -62t96.5 -54q22 21 32 45.5t10 65.5q0 96 -81 96q-38 0 -60 -24t-22 -67z" />
    <glyph glyph-name="nine" unicode="9" horiz-adv-x="583" 
d="M46 -138q153 56 228 138q47 51 68 114q-46 -24 -105 -24q-91 0 -146.5 52.5t-55.5 157.5q0 111 66 170t186 59q117 0 186.5 -70.5t69.5 -201.5q0 -92 -40.5 -170.5t-108 -132t-143 -88.5t-157.5 -53zM286 167q43 0 72 11q7 47 7 86q0 98 -24 151t-66 53q-39 0 -54.5 -36
t-15.5 -112t17.5 -114.5t63.5 -38.5z" />
    <glyph glyph-name="colon" unicode=":" horiz-adv-x="315" 
d="M260 373q0 -43 -30.5 -73t-72.5 -30t-72 30t-30 73q0 41 30 71t72 30t72.5 -30t30.5 -71zM260 90q0 -43 -30.5 -73t-72.5 -30t-72 30t-30 73q0 41 30 71t72 30t72.5 -30t30.5 -71z" />
    <glyph glyph-name="semicolon" unicode=";" horiz-adv-x="308" 
d="M258 51q0 -166 -194 -202l-34 44q57 15 84 33t27 44q0 18 -8 26.5t-29 17.5q-52 23 -52 74q0 37 27 62.5t69 25.5q48 0 79 -35.5t31 -89.5zM251 371q0 -43 -30.5 -73t-72.5 -30t-72 30t-30 73q0 41 30 71t72 30t72.5 -30t30.5 -71z" />
    <glyph glyph-name="less" unicode="&#x3c;" horiz-adv-x="486" 
d="M431 43l-376 203v85l376 237v-99l-285 -176l285 -156v-94z" />
    <glyph glyph-name="equal" unicode="=" horiz-adv-x="577" 
d="M55 153v79h467v-79h-467zM55 313v79h467v-79h-467z" />
    <glyph glyph-name="greater" unicode="&#x3e;" horiz-adv-x="486" 
d="M431 246l-376 -203v94l285 156l-285 176v99l376 -237v-85z" />
    <glyph glyph-name="question" unicode="?" horiz-adv-x="479" 
d="M322 90q0 -43 -30.5 -73t-72.5 -30t-72 30t-30 73q0 41 30 71t72 30t72.5 -30t30.5 -71zM220 628q-34 0 -54.5 -24.5t-21.5 -71.5h-114v126q38 24 94.5 37.5t108.5 13.5q99 0 160 -41t61 -121q0 -32 -10 -59t-29.5 -48t-34.5 -33t-39 -28q-53 -35 -70.5 -55t-17.5 -55
q0 -23 3 -44h-75q-36 36 -36 95q0 58 73 125q32 29 47.5 54.5t15.5 63.5q0 29 -16 47t-45 18z" />
    <glyph glyph-name="at" unicode="@" horiz-adv-x="908" 
d="M595 11q-73 0 -104.5 20.5t-31.5 62.5q-28 -44 -59.5 -65.5t-81.5 -21.5t-77.5 31t-27.5 90q0 125 84.5 223.5t212.5 98.5q113 0 163 -25q-20 -55 -27 -90l-45 -212q-3 -15 -3 -25q0 -33 46 -33q57 0 92.5 57t35.5 169q0 144 -78 215t-215 71q-155 0 -250.5 -103.5
t-95.5 -280.5q0 -144 81.5 -232t222.5 -88q89 0 161 24l15 -38q-88 -35 -188 -35q-171 0 -278 96.5t-107 273.5q0 189 126 310t315 121q175 0 281 -93.5t106 -246.5q0 -138 -78 -206t-195 -68zM473 178l49 204q-12 9 -32 9q-54 0 -94.5 -83.5t-40.5 -169.5q0 -26 6.5 -35
t20.5 -9q35 0 91 84z" />
    <glyph glyph-name="A" unicode="A" horiz-adv-x="677" 
d="M425 98l-25 77h-207l-21 -77q-4 -12 -4 -21q0 -15 13 -19.5t48 -6.5v-51h-224v51q32 4 45 14.5t24 43.5l190 588h142l206 -588q12 -32 23 -43t37 -15v-51h-300v51q33 1 45.5 7t12.5 18q0 7 -5 22zM267 435l-50 -175h155l-58 178q-13 41 -20 80h-6q-5 -32 -21 -83z" />
    <glyph glyph-name="B" unicode="B" horiz-adv-x="646" 
d="M25 0v50q36 0 50 14t14 56v454q0 42 -14 56t-50 14v53h350q102 0 167 -47.5t65 -141.5q0 -135 -157 -156v-4q181 -17 181 -171q0 -87 -55 -132t-180 -45h-371zM272 74h59q58 0 83 24.5t25 93.5q0 63 -24.5 91t-76.5 28h-66v-237zM272 388h44q55 0 75.5 22.5t20.5 92.5
q0 63 -23 88.5t-77 25.5h-40v-229z" />
    <glyph glyph-name="C" unicode="C" horiz-adv-x="638" 
d="M360 -13q-153 0 -236.5 90t-83.5 260q0 190 89 281t245 91q139 0 221 -51v-146h-124q-12 62 -33 89t-66 27t-71.5 -23t-41.5 -86t-15 -174q0 -88 9 -145.5t27 -86t38 -38.5t50 -10q56 0 79.5 28.5t33.5 94.5h119v-143q-33 -25 -99.5 -41.5t-140.5 -16.5z" />
    <glyph glyph-name="D" unicode="D" horiz-adv-x="700" 
d="M25 0v50q36 0 50 14t14 56v454q0 42 -14 56t-50 14v53h306q160 0 244.5 -83.5t84.5 -269.5q0 -173 -85.5 -258.5t-248.5 -85.5h-301zM272 74h33q61 0 93.5 19.5t49 77t16.5 168.5q0 114 -16 174.5t-48 82t-91 21.5h-37v-543z" />
    <glyph glyph-name="E" unicode="E" horiz-adv-x="605" 
d="M25 0v50q36 0 50 14t14 56v454q0 42 -14 56t-50 14v53h514l12 -177h-88q-18 61 -35.5 79t-71.5 18h-84v-230h48q46 0 62 14t19 57h77v-218h-77q-3 42 -19 56.5t-61 14.5h-49v-237h105q48 0 69.5 24t27.5 92h89v-190h-538z" />
    <glyph glyph-name="F" unicode="F" horiz-adv-x="588" 
d="M25 0v50q36 0 50 14t14 56v454q0 42 -14 56t-50 14v53h514l12 -177h-88q-18 61 -35.5 79t-71.5 18h-84v-230h48q46 0 62 14t19 57h77v-218h-77q-3 42 -19 56.5t-61 14.5h-49v-191q0 -43 16.5 -56.5t67.5 -13.5v-50h-331z" />
    <glyph glyph-name="G" unicode="G" horiz-adv-x="717" 
d="M449 82v149q0 43 -15 56.5t-61 13.5v53h324v-53q-37 0 -51.5 -14t-14.5 -56v-173q-43 -35 -115 -53t-148 -18q-156 0 -242 90t-86 260q0 190 91 281t251 91q143 0 226 -51v-146h-127q-12 61 -33.5 88.5t-67.5 27.5q-70 0 -102.5 -61t-32.5 -222q0 -71 6.5 -122
t17.5 -81.5t28 -48t34.5 -23.5t41.5 -6q52 0 76 18z" />
    <glyph glyph-name="H" unicode="H" horiz-adv-x="762" 
d="M490 120v190h-218v-190q0 -42 14 -56t50 -14v-50h-311v50q36 0 50 14t14 56v454q0 42 -14 56t-50 14v53h311v-53q-36 0 -50 -14t-14 -56v-179h218v179q0 42 -14 56t-50 14v53h311v-53q-36 0 -50 -14t-14 -56v-454q0 -42 14 -56t50 -14v-50h-311v50q36 0 50 14t14 56z" />
    <glyph glyph-name="I" unicode="I" horiz-adv-x="361" 
d="M89 120v454q0 42 -14 56t-50 14v53h311v-53q-36 0 -50 -14t-14 -56v-454q0 -42 14 -56t50 -14v-50h-311v50q36 0 50 14t14 56z" />
    <glyph glyph-name="J" unicode="J" horiz-adv-x="361" 
d="M89 100v474q0 42 -14 56t-50 14v53h311v-53q-36 0 -50 -14t-14 -56v-467q0 -117 -70 -175.5t-207 -78.5l-26 49q76 35 98 73.5t22 124.5z" />
    <glyph glyph-name="K" unicode="K" horiz-adv-x="711" 
d="M89 120v454q0 42 -14 56t-50 14v53h311v-53q-36 0 -50 -14t-14 -56v-454q0 -42 14 -56t50 -14v-50h-311v50q36 0 50 14t14 56zM583 588l-137 -175l169 -314q15 -28 32 -37.5t49 -11.5v-50h-230l-178 340l192 259q8 11 8 21q0 26 -38 26v51h229v-51q-56 -7 -96 -58z" />
    <glyph glyph-name="L" unicode="L" horiz-adv-x="570" 
d="M272 574v-500h72q49 0 77 28.5t41 99.5h91l-14 -202h-514v50q36 0 50 14t14 56v454q0 42 -14 56t-50 14v53h311v-53q-36 0 -50 -14t-14 -56z" />
    <glyph glyph-name="M" unicode="M" horiz-adv-x="912" 
d="M852 697v-52q-49 -3 -61 -18t-8 -58l40 -443q4 -45 16.5 -60.5t52.5 -16.5v-49h-314v49q46 1 56.5 14.5t6.5 57.5l-26 305q-3 39 -3 104v22h-4q-13 -73 -25 -117l-113 -435h-107l-124 407q-10 34 -32 146h-4q-4 -108 -6 -140l-18 -291q-2 -44 9.5 -58.5t51.5 -14.5v-49
h-220v49q41 1 54 17t16 62l30 441q2 30 0 42.5t-18 22.5t-51 11v52h286l92 -304q17 -59 28 -143h4q18 104 28 143l78 304h285z" />
    <glyph glyph-name="N" unicode="N" horiz-adv-x="712" 
d="M541 401v173q0 42 -14 56t-50 14v53h220v-53q-36 0 -50 -14t-14 -56v-574h-130l-242 368q-37 56 -83 140h-3q8 -84 8 -140v-248q0 -42 14 -56t50 -14v-50h-222v50q36 0 50 14t14 56v454q0 42 -14 56t-50 14v53h260l194 -296q36 -55 66 -125h4q-8 80 -8 125z" />
    <glyph glyph-name="O" unicode="O" horiz-adv-x="720" 
d="M360 -12q-153 0 -236.5 89.5t-83.5 259.5q0 189 87 280.5t233 91.5t233 -91.5t87 -280.5q0 -170 -83.5 -259.5t-236.5 -89.5zM360 628q-62 0 -89 -60t-27 -223q0 -116 15 -180.5t38.5 -84t62.5 -19.5t62.5 19.5t38.5 84.5t15 183q0 110 -13.5 172t-37.5 85t-65 23z" />
    <glyph glyph-name="P" unicode="P" horiz-adv-x="617" 
d="M272 258v-138q0 -43 16.5 -56.5t67.5 -13.5v-50h-331v50q36 0 50 14t14 56v454q0 42 -14 56t-50 14v53h347q113 0 179 -52t66 -165q0 -43 -11 -79t-37 -70t-78.5 -53.5t-126.5 -19.5h-92zM422 481q0 75 -23 105.5t-77 30.5h-50v-274h54q54 0 75 28.5t21 109.5z" />
    <glyph glyph-name="Q" unicode="Q" horiz-adv-x="720" 
d="M615 -148q-47 0 -91.5 20t-74.5 44.5t-69.5 47.5t-75.5 28q-125 16 -194.5 101.5t-69.5 243.5q0 189 87 280.5t233 91.5t233 -91.5t87 -280.5q0 -125 -53 -213t-138 -105q13 -2 48 -10.5t63.5 -14t45.5 -5.5q33 0 65 8l-27 -128q-24 -17 -69 -17zM360 628q-62 0 -89 -60
t-27 -223q0 -116 15 -180.5t38.5 -84t62.5 -19.5t62.5 19.5t38.5 84.5t15 183q0 110 -13.5 172t-37.5 85t-65 23z" />
    <glyph glyph-name="R" unicode="R" horiz-adv-x="684" 
d="M430 306v-4q77 -21 113 -73q28 -42 65 -121q10 -23 16 -32.5t19.5 -17t35.5 -8.5v-50h-225q-47 119 -84 193q-25 48 -43.5 64t-54.5 21v-158q0 -42 14 -56t50 -14v-50h-311v50q36 0 50 14t14 56v454q0 42 -14 56t-50 14v53h347q113 0 179 -50t66 -156q0 -89 -51 -133.5
t-136 -51.5zM422 491q0 68 -22.5 97t-73.5 29h-54v-255h54q54 0 75 26t21 103z" />
    <glyph glyph-name="S" unicode="S" horiz-adv-x="556" 
d="M254 -14q-131 0 -229 57v137h119q12 -130 116 -130q106 0 106 103q0 41 -21.5 66t-75.5 39l-72 19q-86 22 -128.5 69.5t-42.5 138.5q0 111 66.5 167.5t182.5 56.5q117 0 213 -48v-150h-118q-7 63 -30.5 95.5t-76.5 32.5q-86 0 -86 -88q0 -36 19 -60t67 -35l68 -16
q195 -47 195 -225q0 -111 -70.5 -170t-201.5 -59z" />
    <glyph glyph-name="T" unicode="T" horiz-adv-x="633" 
d="M27 697h579l12 -197h-87q-9 35 -12.5 46.5t-11 30.5t-15.5 24.5t-21.5 10.5t-33.5 5h-29v-497q0 -42 15.5 -56t58.5 -14v-50h-331v50q43 0 58.5 14t15.5 56v497h-29q-20 0 -33.5 -5t-21.5 -10.5t-15.5 -24.5t-11 -30.5t-12.5 -46.5h-87z" />
    <glyph glyph-name="U" unicode="U" horiz-adv-x="693" 
d="M519 228v346q0 42 -14 56t-50 14v53h217v-53q-36 0 -50 -14t-14 -56v-348q0 -239 -261 -239q-138 0 -200 54.5t-62 181.5v351q0 42 -14 56t-50 14v53h311v-53q-36 0 -50 -14t-14 -56v-357q0 -77 29 -108t90 -31q63 0 97.5 34t34.5 116z" />
    <glyph glyph-name="V" unicode="V" horiz-adv-x="717" 
d="M431 0h-144l-208 591q-11 33 -22 42t-37 13v51h307v-51q-54 0 -54 -36q0 -6 4 -20l102 -331q17 -56 20 -100h6q3 43 21 103l99 328q3 9 3 18q0 38 -57 38v51h226v-51q-32 -4 -45 -14.5t-24 -43.5z" />
    <glyph glyph-name="W" unicode="W" horiz-adv-x="979" 
d="M587 0l-73 281q-18 68 -27 160h-5q-17 -116 -29 -161l-70 -280h-170l-136 585q-8 34 -20.5 45.5t-39.5 15.5v51h300v-51q-53 0 -53 -39q0 -8 1 -13l57 -287q16 -80 16 -156h5q13 95 27 156l93 390h118l100 -387q26 -100 31 -158h6q4 77 20 157l57 284q2 10 2 16
q0 37 -57 37v51h222v-51q-32 -4 -45.5 -14.5t-21.5 -43.5l-138 -588h-170z" />
    <glyph glyph-name="X" unicode="X" horiz-adv-x="713" 
d="M593 588l-147 -208l174 -271q21 -32 34 -43t39 -15v-51h-329v51q25 0 38.5 9.5t13.5 23.5q0 10 -7 21l-100 164h-6l-101 -166q-6 -9 -6 -19q0 -31 50 -33v-51h-226v51q29 4 47 16t37 42l150 234l-155 245q-16 25 -22.5 33.5t-16.5 15.5t-26 9v51h316v-51q-25 0 -38.5 -9
t-13.5 -24q0 -11 6 -21l87 -144h6l91 142q8 14 8 24q0 14 -13.5 23t-36.5 9v51h224v-51q-27 -4 -41 -15t-36 -43z" />
    <glyph glyph-name="Y" unicode="Y" horiz-adv-x="680" 
d="M384 366h6l93 220q8 19 8 31q0 29 -47 29v51h219v-51q-30 -4 -44 -14.5t-30 -43.5l-157 -327v-141q0 -42 15.5 -56t58.5 -14v-50h-331v50q43 0 58.5 14t15.5 56v140l-164 328q-16 33 -29 43.5t-39 14.5v51h305v-51q-47 0 -47 -33q0 -13 7 -27z" />
    <glyph glyph-name="Z" unicode="Z" horiz-adv-x="587" 
d="M550 641l-318 -567h111q56 0 80.5 26.5t40.5 96.5h88l-10 -197h-515v56l321 569h-99q-47 0 -68 -25t-37 -88h-92l8 185h490v-56z" />
    <glyph glyph-name="bracketleft" unicode="[" horiz-adv-x="385" 
d="M355 -155h-265v928h265v-62h-106v-804h106v-62z" />
    <glyph glyph-name="backslash" unicode="\" horiz-adv-x="433" 
d="M153 771l260 -920h-108l-260 920h108z" />
    <glyph glyph-name="bracketright" unicode="]" horiz-adv-x="385" 
d="M295 -155h-265v62h106v804h-106v62h265v-928z" />
    <glyph glyph-name="asciicircum" unicode="^" horiz-adv-x="604" 
d="M539 310h-115l-124 276l-121 -276h-114l183 398h108z" />
    <glyph glyph-name="underscore" unicode="_" horiz-adv-x="496" 
d="M498 -125h-500v83h500v-83z" />
    <glyph glyph-name="grave" unicode="`" horiz-adv-x="440" 
d="M360 590l-28 -36l-252 97l88 139z" />
    <glyph glyph-name="a" unicode="a" horiz-adv-x="552" 
d="M483 158q0 -55 11.5 -71t47.5 -16v-48q-44 -29 -116 -29q-43 0 -71.5 18.5t-36.5 50.5q-14 -32 -48.5 -54t-90.5 -22q-71 0 -115 36.5t-44 112.5q0 170 239 170q28 0 54 -2v47q0 54 -15 79t-49 25q-32 0 -45.5 -22.5t-19.5 -69.5h-129v108q97 58 227 58q93 0 149 -42
t56 -126q0 -7 -2 -78.5t-2 -124.5zM311 244h-35q-37 0 -58 -21.5t-21 -62.5q0 -66 49 -66q40 0 62 23z" />
    <glyph glyph-name="b" unicode="b" horiz-adv-x="617" 
d="M399 243q0 96 -21.5 134t-63.5 38q-46 0 -77 -30v-273q24 -28 71 -28q45 0 68 33t23 126zM196 57q-10 -42 -30 -57h-115q13 35 13 117v459q0 53 -11.5 68t-47.5 17v49l196 26h15q21 -27 21 -100v-187q34 80 143 80q95 0 148.5 -67t53.5 -201q0 -143 -66 -208.5
t-177 -65.5t-143 70z" />
    <glyph glyph-name="c" unicode="c" horiz-adv-x="503" 
d="M473 488v-117h-129q-1 51 -8 70t-32 19q-15 0 -29 -8t-29 -27t-24.5 -58t-9.5 -94q0 -101 38 -145.5t95 -44.5t112 28l27 -43q-68 -81 -197 -81q-110 0 -181 67.5t-71 195.5q0 131 77.5 205t190.5 74q109 0 170 -41z" />
    <glyph glyph-name="d" unicode="d" horiz-adv-x="630" 
d="M394 65q-18 -35 -60 -56.5t-97 -21.5q-95 0 -148.5 67t-53.5 201q0 142 65.5 208t172.5 66q81 0 112 -45v92q0 53 -11.5 68t-47.5 17v49l204 26h28v-582q0 -54 10 -68t47 -17v-46l-177 -36h-15q-25 30 -29 78zM223 266q0 -96 21.5 -134t63.5 -38q46 0 77 30v281
q-24 28 -71 28q-44 0 -67.5 -37t-23.5 -130z" />
    <glyph glyph-name="e" unicode="e" horiz-adv-x="549" 
d="M351 85q68 0 133 31l26 -44q-82 -85 -222 -85q-121 0 -187 71t-66 201q0 127 68.5 198.5t185.5 71.5q122 0 176 -64t54 -186v-49h-297q3 -77 32 -111t97 -34zM291 460q-33 0 -48 -33t-20 -121h126q0 89 -12.5 121.5t-45.5 32.5z" />
    <glyph glyph-name="f" unicode="f" horiz-adv-x="364" 
d="M258 432v-312q0 -43 14.5 -56.5t62.5 -13.5v-50h-307v50q35 0 46 13.5t11 56.5v312h-60v59l60 25v65q0 82 53 123.5t148 41.5q97 0 148 -24v-115h-97q0 36 -9.5 50t-28.5 14q-42 0 -42 -59v-96h121l-17 -84h-103z" />
    <glyph glyph-name="g" unicode="g" horiz-adv-x="559" 
d="M258 -202q-248 0 -248 103q0 23 14.5 42t37.5 28h124q-13 -23 -13 -46q0 -33 21.5 -46.5t71.5 -13.5q57 0 82 17t25 53q0 33 -26 46t-93 16q-106 5 -129 8q-78 10 -78 91q0 41 31.5 71t86.5 43q-65 13 -100.5 51t-35.5 98q0 82 61 126t165 44q34 0 115 -19q32 -7 50 -7
q52 0 110 56l59 -108q-44 -33 -87 -33q-35 0 -65 11q40 -25 40 -81q0 -151 -238 -151h-7q-24 -14 -24 -30q0 -21 24 -22l98 -6q104 -6 151.5 -40t47.5 -112q0 -189 -271 -189zM255 262q30 0 43.5 22.5t13.5 72.5q0 59 -13 81.5t-44 22.5q-29 0 -42.5 -23t-13.5 -78
q0 -98 56 -98z" />
    <glyph glyph-name="h" unicode="h" horiz-adv-x="635" 
d="M247 636v-192q75 85 172 85q66 0 107.5 -40t41.5 -119v-250q0 -43 11 -56.5t46 -13.5v-50h-287v50q35 0 46 13.5t11 56.5v208q0 81 -63 81q-40 0 -85 -27v-262q0 -43 11 -56.5t46 -13.5v-50h-287v50q35 0 46 13.5t11 56.5v456q0 53 -11.5 68t-47.5 17v49l196 26h15
q21 -29 21 -100z" />
    <glyph glyph-name="i" unicode="i" horiz-adv-x="327" 
d="M312 0h-287v50q35 0 46 13.5t11 56.5v235q0 54 -10 68.5t-45 16.5v49l203 33h25v-402q0 -43 11 -56.5t46 -13.5v-50zM263 652q0 -41 -29.5 -69.5t-71.5 -28.5q-41 0 -70 29t-29 69t30 69t72 29q41 0 69.5 -28.5t28.5 -69.5z" />
    <glyph glyph-name="j" unicode="j" horiz-adv-x="321" 
d="M80 18v337q0 54 -10 68.5t-45 16.5v49l203 33h25v-504q0 -53 -21 -95t-56 -67.5t-71.5 -40.5t-75.5 -21l-29 46q45 21 62.5 60.5t17.5 117.5zM261 652q0 -41 -29.5 -69.5t-71.5 -28.5q-41 0 -70 29t-29 69t30 69t72 29q41 0 69.5 -28.5t28.5 -69.5z" />
    <glyph glyph-name="k" unicode="k" horiz-adv-x="612" 
d="M17 0v50q35 0 46 13.5t11 56.5v456q0 53 -11.5 68t-47.5 17v49l196 26h15q21 -26 21 -100v-516q0 -43 11 -56.5t46 -13.5v-50h-287zM398 0l-143 259l125 142q23 26 13.5 45t-45.5 19v51h245v-51q-30 -4 -52 -16t-47 -40l-88 -95l126 -212q13 -22 26.5 -33t23.5 -14t30 -5
v-50h-214z" />
    <glyph glyph-name="l" unicode="l" horiz-adv-x="319" 
d="M247 636v-516q0 -43 11 -56.5t46 -13.5v-50h-287v50q35 0 46 13.5t11 56.5v456q0 53 -11.5 68t-47.5 17v49l196 26h15q21 -26 21 -100z" />
    <glyph glyph-name="m" unicode="m" horiz-adv-x="944" 
d="M553 436q69 93 175 93q66 0 107.5 -40t41.5 -119v-251q0 -43 11 -56.5t46 -13.5v-49h-282v49q34 0 43 13t9 57v209q0 81 -59 81q-34 0 -79 -27v-263q0 -44 9 -57t43 -13v-49h-277v49q34 0 43 13t9 57v209q0 81 -59 81q-34 0 -79 -27v-263q0 -44 9 -57t43 -13v-49h-282v49
q35 0 46 13.5t11 56.5v236q0 54 -10 68.5t-45 16.5v49l176 40h15q27 -43 31 -88q67 88 168 88q46 0 82.5 -25t53.5 -68z" />
    <glyph glyph-name="n" unicode="n" horiz-adv-x="643" 
d="M576 370v-250q0 -43 11 -56.5t46 -13.5v-50h-287v50q35 0 46 13.5t11 56.5v208q0 81 -63 81q-40 0 -85 -27v-262q0 -43 11 -56.5t46 -13.5v-50h-287v50q35 0 46 13.5t11 56.5v235q0 54 -10 68.5t-45 16.5v49l176 40h15q8 -10 19 -37t14 -54q78 91 176 91q66 0 107.5 -40
t41.5 -119z" />
    <glyph glyph-name="o" unicode="o" horiz-adv-x="598" 
d="M563 271q0 -98 -38.5 -163.5t-97 -93t-132.5 -27.5q-125 0 -192.5 70t-67.5 199q0 123 72.5 198t198.5 75q116 0 186.5 -63t70.5 -195zM373 278q0 102 -17.5 141.5t-56.5 39.5q-38 0 -56 -44t-18 -166q0 -107 15.5 -151t60.5 -44q37 0 54.5 51.5t17.5 172.5z" />
    <glyph glyph-name="p" unicode="p" horiz-adv-x="635" 
d="M417 243q0 96 -21.5 134t-63.5 38q-46 0 -77 -30v-281q24 -28 71 -28q44 0 67.5 37t23.5 130zM249 444q19 37 57.5 61t91.5 24q95 0 148.5 -67t53.5 -201q0 -143 -66 -208.5t-177 -65.5q-70 0 -102 40v-103q0 -43 11 -56.5t46 -13.5v-50h-287v50q35 0 46 13.5t11 56.5
v431q0 54 -10 68.5t-45 16.5v49l176 40h15q26 -37 31 -85z" />
    <glyph glyph-name="q" unicode="q" horiz-adv-x="620" 
d="M223 266q0 -96 21.5 -134t63.5 -38q46 0 77 30v281q-24 28 -71 28q-44 0 -67.5 -37t-23.5 -130zM414 476q11 39 42 53h114q-12 -45 -12 -140v-465q0 -43 11 -56.5t46 -13.5v-50h-287v50q35 0 46 13.5t11 56.5v141q-40 -78 -148 -78q-95 0 -148.5 67t-53.5 201
q0 141 70 207.5t179 66.5q90 0 130 -53z" />
    <glyph glyph-name="r" unicode="r" horiz-adv-x="432" 
d="M254 396q14 65 57 99t90 34q22 0 41 -7l-31 -173q-33 9 -65 9q-54 0 -72.5 -19t-18.5 -72v-147q0 -43 14.5 -56.5t62.5 -13.5v-50h-307v50q35 0 46 13.5t11 56.5v235q0 54 -10 68.5t-45 16.5v49l176 40h15q5 -8 12 -23t15 -46.5t9 -63.5z" />
    <glyph glyph-name="s" unicode="s" horiz-adv-x="482" 
d="M225 -13q-109 0 -195 43v113h112q10 -88 96 -88q75 0 75 53q0 26 -15 40t-48 21l-85 18q-134 28 -134 162q0 87 60 133.5t152 46.5q98 0 182 -36v-113h-104q-9 76 -92 76q-64 0 -64 -51q0 -39 50 -50l79 -17q163 -37 163 -179q0 -84 -60 -128t-172 -44z" />
    <glyph glyph-name="t" unicode="t" horiz-adv-x="373" 
d="M363 516l-17 -84h-103v-255q0 -60 9.5 -82t44.5 -22q24 0 57 13l19 -59q-63 -40 -152 -40q-77 0 -114 33t-37 115v297h-60v59l67 28q8 75 46 130l128 13q-9 -65 -9 -146h121z" />
    <glyph glyph-name="u" unicode="u" horiz-adv-x="619" 
d="M547 522v-368q0 -54 10 -68t47 -17v-46l-177 -36h-15q-25 30 -29 78q-57 -78 -169 -78q-144 0 -144 145v223q0 54 -10 68.5t-45 16.5v49l203 33h25v-347q0 -41 13.5 -61t46.5 -20q37 0 71 26v235q0 54 -10 68.5t-45 16.5v49l203 33h25z" />
    <glyph glyph-name="v" unicode="v" horiz-adv-x="572" 
d="M355 -5h-135l-160 412q-13 34 -23.5 44t-36.5 14v51h292v-51q-54 0 -54 -35q0 -10 5 -23l63 -186q15 -47 18 -74h6q4 27 19 74l57 185q4 12 4 23q0 36 -57 36v51h219v-51q-31 -4 -44 -14t-25 -44z" />
    <glyph glyph-name="w" unicode="w" horiz-adv-x="842" 
d="M394 225l-65 -230h-146l-120 402q-12 40 -23.5 52t-39.5 16v51h288v-51q-54 0 -54 -38q0 -9 3 -20l44 -179q6 -25 13 -80h6q0 32 12 80l72 288h127l92 -289q12 -35 16 -79h6q0 25 10 73l42 187q2 10 2 21q0 20 -13.5 28t-42.5 8v51h219v-51q-33 -4 -47 -15.5t-23 -46.5
l-111 -408h-146l-80 229q-17 50 -17 99h-6q-5 -50 -18 -98z" />
    <glyph glyph-name="x" unicode="x" horiz-adv-x="577" 
d="M250 193l-63 -89q-10 -14 -10 -27q0 -27 40 -27v-50h-202v50q27 3 40.5 13.5t35.5 40.5l115 153l-111 153q-25 34 -35.5 42.5t-33.5 12.5v51h281v-51q-31 0 -31 -22q0 -11 11 -28l48 -70h4l49 70q8 11 8 25q0 25 -34 25v51h202v-51q-29 -3 -43.5 -15t-38.5 -43l-100 -132
l111 -159q29 -41 42.5 -52t41.5 -14v-50h-282v50q14 0 23.5 6.5t9.5 18.5t-10 26l-64 92h-4z" />
    <glyph glyph-name="y" unicode="y" horiz-adv-x="572" 
d="M117 -205l-61 108q166 25 209 107l-66 -5q-15 61 -62 190l-76 209q-13 35 -23.5 46t-37.5 15v51h292v-51q-33 -1 -45.5 -7t-12.5 -18q0 -7 5 -22l68 -218q6 -19 14 -66h6q4 27 17 68l66 216q4 12 4 22q0 14 -13 18.5t-48 6.5v51h219v-51q-31 -4 -44 -14t-25 -44
l-148 -396q-35 -94 -91.5 -149.5t-146.5 -66.5z" />
    <glyph glyph-name="z" unicode="z" horiz-adv-x="517" 
d="M497 153l-18 -153h-437v65l249 383h-75q-51 0 -68.5 -17t-25.5 -74h-67v159h437v-59l-255 -390h67q64 0 85.5 13t42.5 73h65z" />
    <glyph glyph-name="braceleft" unicode="{" horiz-adv-x="406" 
d="M281 614v-167q0 -37 -10.5 -64.5t-27.5 -41.5t-31 -21t-28 -9v-4q14 -2 28 -8.5t31 -20.5t27.5 -41.5t10.5 -63.5v-169q0 -48 16.5 -76t63.5 -28h20v-55h-101q-149 0 -149 149v196q0 49 -26 70t-80 21v55q54 0 80 21t26 70v197q0 149 149 149h101v-55h-20
q-47 0 -63.5 -28t-16.5 -76z" />
    <glyph glyph-name="bar" unicode="|" horiz-adv-x="279" 
d="M189 -149h-99v920h99v-920z" />
    <glyph glyph-name="braceright" unicode="}" horiz-adv-x="406" 
d="M125 447v167q0 48 -16.5 76t-63.5 28h-20v55h101q149 0 149 -149v-197q0 -49 26 -70t80 -21v-55q-54 0 -80 -21t-26 -70v-196q0 -149 -149 -149h-101v55h20q47 0 63.5 28t16.5 76v169q0 36 10.5 63.5t27.5 41.5t31 20.5t28 8.5v4q-14 2 -28 9t-31 21t-27.5 41.5
t-10.5 64.5z" />
    <glyph glyph-name="asciitilde" unicode="~" horiz-adv-x="587" 
d="M384 352q63 0 85 47l38 -17q-14 -61 -50.5 -105.5t-78.5 -44.5q-31 0 -95 14.5t-84 14.5q-58 0 -83 -49l-36 16q8 61 45 108.5t80 47.5q30 0 92.5 -16t86.5 -16z" />
    <glyph glyph-name="uni00A0" unicode="&#xa0;" horiz-adv-x="225" 
 />
    <glyph glyph-name="exclamdown" unicode="&#xa1;" horiz-adv-x="325" 
d="M55 -188l52 476h110l53 -459zM60 426q0 43 30.5 73t72.5 30t72 -30t30 -73q0 -41 -30 -71t-72 -30t-72.5 30t-30.5 71z" />
    <glyph glyph-name="cent" unicode="&#xa2;" horiz-adv-x="544" 
d="M337 -101h-59v88q-107 3 -175 70.5t-68 192.5q0 123 69 196t174 82v80h59v-80q115 -7 166 -40v-118h-113q-1 74 -53 91v-387q82 2 150 48l27 -38q-63 -82 -177 -94v-91zM203 273q0 -154 75 -189v374q-75 -23 -75 -185z" />
    <glyph glyph-name="sterling" unicode="&#xa3;" horiz-adv-x="634" 
d="M293 74h82q49 0 77 28.5t41 99.5h91l-14 -202h-544v50q45 0 64.5 14.5t19.5 55.5v190h-80v66h80v92q0 73 38.5 123.5t93.5 71t121 20.5q60 0 111.5 -14t73.5 -33v-125h-128q-2 54 -15 78t-43 24q-38 0 -53.5 -28t-15.5 -82v-127h191v-66h-191v-236z" />
    <glyph glyph-name="currency" unicode="&#xa4;" horiz-adv-x="484" 
d="M242 102q-43 0 -73 11l-52 -82l-59 39l50 77q-58 52 -58 141t57 141l-49 75l59 40l51 -79q33 12 74 12q37 0 70 -11l50 78l60 -40l-47 -73q59 -53 59 -143q0 -92 -61 -143l49 -75l-60 -39l-52 80q-32 -9 -68 -9zM241 407q-44 0 -62 -28.5t-18 -84.5q0 -65 18 -95t62 -30
t62 30t18 95q0 56 -18 84.5t-62 28.5z" />
    <glyph glyph-name="yen" unicode="&#xa5;" horiz-adv-x="670" 
d="M597 187h-170v-67q0 -42 15.5 -56t58.5 -14v-50h-331v50q43 0 58.5 14t15.5 56v67h-172v61h172v12l-26 52h-146v61h115l-107 215q-16 33 -29 43.5t-39 14.5v51h305v-51q-47 0 -47 -33q0 -13 7 -27l102 -220h6l93 220q8 19 8 31q0 29 -47 29v51h219v-51q-30 -4 -44 -14.5
t-30 -43.5l-103 -215h116v-61h-146l-24 -51v-13h170v-61z" />
    <glyph glyph-name="brokenbar" unicode="&#xa6;" horiz-adv-x="279" 
d="M189 -149h-99v400h99v-400zM189 367h-99v400h99v-400z" />
    <glyph glyph-name="section" unicode="&#xa7;" horiz-adv-x="589" 
d="M549 353q0 -117 -132 -162q89 -49 89 -152q0 -84 -60 -128t-172 -44q-109 0 -195 43v113h112q10 -88 96 -88q75 0 75 53q0 23 -15 36.5t-48 24.5l-125 42q-67 22 -100.5 60t-33.5 102q0 129 132 165q-92 44 -92 146q0 87 60 133.5t152 46.5q98 0 182 -36v-113h-104
q-9 76 -92 76q-64 0 -64 -51q0 -20 12 -31t38 -19l122 -38q79 -25 121 -67t42 -112zM352 360l-108 32q-31 -7 -48.5 -27t-17.5 -46q0 -44 46 -60l106 -37q75 17 75 73q0 48 -53 65z" />
    <glyph glyph-name="dieresis" unicode="&#xa8;" horiz-adv-x="572" 
d="M263 650q0 -37 -27 -63t-65 -26t-64.5 26t-26.5 63t27.5 63.5t65.5 26.5t64 -26t26 -64zM492 650q0 -37 -27 -63t-65 -26t-64.5 26t-26.5 63t27.5 63.5t65.5 26.5t64 -26t26 -64z" />
    <glyph glyph-name="copyright" unicode="&#xa9;" horiz-adv-x="802" 
d="M344 358q0 -78 14.5 -117t56.5 -39q26 0 39.5 13.5t17.5 46.5h81v-80q-58 -32 -139 -32q-211 0 -211 198q0 203 208 203q84 0 139 -32v-80h-86q-3 34 -14 51t-37 17q-43 0 -56 -35t-13 -114zM401 31q129 0 215 86t86 226q0 142 -86 228t-215 86t-215 -86t-86 -228
q0 -140 86 -226t215 -86zM401 -12q-154 0 -255 98t-101 258q0 157 103 257t253 100t253 -100t103 -257q0 -160 -101 -258t-255 -98z" />
    <glyph glyph-name="ordfeminine" unicode="&#xaa;" horiz-adv-x="443" 
d="M380 466q0 -41 8.5 -53t34.5 -12v-36q-34 -22 -99 -22q-66 0 -79 52q-22 -57 -104 -57q-50 0 -85.5 27.5t-35.5 84.5q0 64 46 95.5t126 31.5q20 0 50 -3v37q0 78 -47 78q-43 0 -43 -69h-107v81q72 43 174 43q69 0 116.5 -32t47.5 -94q0 -5 -1.5 -58.5t-1.5 -93.5z
M240 529q-16 2 -25 2q-53 0 -53 -60q0 -53 34 -53q25 0 42 17z" />
    <glyph glyph-name="guillemotleft" unicode="&#xab;" horiz-adv-x="653" 
d="M212 249l113 -179l-58 -50l-227 234l227 235l58 -50zM470 249l113 -179l-58 -50l-227 234l227 235l58 -50z" />
    <glyph glyph-name="logicalnot" unicode="&#xac;" horiz-adv-x="508" 
d="M55 224v81h398v-237h-85v156h-313z" />
    <glyph glyph-name="uni00AD" unicode="&#xad;" horiz-adv-x="363" 
d="M318 217h-273v133h273v-133z" />
    <glyph glyph-name="registered" unicode="&#xae;" horiz-adv-x="802" 
d="M411 193v-37h-187v37q15 0 22.5 2t11.5 10t4.5 16t0.5 27v203q0 19 -0.5 27t-4.5 16t-11.5 10t-22.5 2v39h186q73 0 111.5 -24t38.5 -82q0 -56 -27.5 -77.5t-80.5 -24.5v-3q47 -7 64 -40q20 -35 35 -68q10 -22 17 -27.5t29 -5.5v-37h-140q-7 21 -22.5 58.5t-16.5 39.5
q-18 46 -25 57t-20 12v-75q0 -35 5.5 -45t32.5 -10zM445 434q0 36 -12 48.5t-47 12.5h-13v-131h22q28 0 39 15t11 55zM401 31q129 0 215 86t86 226q0 142 -86 228t-215 86t-215 -86t-86 -228q0 -140 86 -226t215 -86zM401 -12q-154 0 -255 98t-101 258q0 157 103 257
t253 100t253 -100t103 -257q0 -160 -101 -258t-255 -98z" />
    <glyph glyph-name="macron" unicode="&#xaf;" horiz-adv-x="471" 
d="M391 605h-311v87h311v-87z" />
    <glyph glyph-name="degree" unicode="&#xb0;" horiz-adv-x="418" 
d="M373 525q0 -77 -45.5 -122.5t-118.5 -45.5q-77 0 -120.5 45.5t-43.5 124.5q0 77 44.5 123t117.5 46q78 0 122 -45.5t44 -125.5zM286 524q0 55 -18.5 78t-57.5 23q-76 0 -76 -92q0 -55 18.5 -78t58.5 -23q75 0 75 92z" />
    <glyph glyph-name="plusminus" unicode="&#xb1;" horiz-adv-x="508" 
d="M213 507h85v-136h155v-81h-155v-145h-85v145h-158v81h158v136zM55 24v81h398v-81h-398z" />
    <glyph glyph-name="twosuperior" unicode="&#xb2;" horiz-adv-x="406" 
d="M192 665q75 0 118 -32t43 -93q0 -67 -42.5 -105t-135.5 -76l-39 -16h240l-12 -93h-344v68l65 53q72 59 93 85.5t21 68.5q0 27 -17.5 41t-41.5 14q-49 0 -86 -25l-25 41q27 29 70 49t93 20z" />
    <glyph glyph-name="threesuperior" unicode="&#xb3;" horiz-adv-x="366" 
d="M124 595q-38 0 -80 -23l-22 40q63 53 156 53q65 0 104.5 -26t39.5 -75q0 -37 -30.5 -63t-80.5 -36q57 -2 91 -30.5t34 -70.5q0 -46 -35.5 -77.5t-85 -44t-107.5 -12.5q-48 0 -90 11l-8 54q42 -8 74 -8q48 0 72.5 21.5t24.5 58.5q0 66 -71 66q-16 0 -29 -1v58q14 -1 37 -1
q33 0 48.5 12.5t15.5 46.5q0 23 -16.5 35t-41.5 12z" />
    <glyph glyph-name="acute" unicode="&#xb4;" horiz-adv-x="440" 
d="M108 554l-28 36l192 200l88 -139z" />
    <glyph glyph-name="mu" unicode="&#xb5;" horiz-adv-x="622" 
d="M48 -208l-5 34q14 74 14 188v153q-1 178 -4 341l130 21h45v-359q0 -80 50 -80q47 0 81 38v380l129 21h45v-406q0 -29 11 -40.5t34 -11.5t39 4v-58q-51 -30 -125 -30q-88 0 -118 71q-38 -70 -110 -70q-34 0 -53 9l-5 -3q22 -53 22 -128v-50z" />
    <glyph glyph-name="paragraph" unicode="&#xb6;" horiz-adv-x="681" 
d="M571 570v-687h-80v747h-80v-747h-80v392h-96q-215 0 -215 214q0 108 50.5 158t165.5 50h415v-51q-49 -1 -64.5 -16.5t-15.5 -59.5zM214 488q0 -80 16.5 -112.5t64.5 -32.5h36v287h-36q-50 0 -65.5 -27.5t-15.5 -114.5z" />
    <glyph glyph-name="periodcentered" unicode="&#xb7;" horiz-adv-x="305" 
d="M255 283q0 -43 -30.5 -73t-72.5 -30t-72 30t-30 73q0 41 30 71t72 30t72.5 -30t30.5 -71z" />
    <glyph glyph-name="cedilla" unicode="&#xb8;" horiz-adv-x="288" 
d="M266 -121q0 -45 -31.5 -65t-94.5 -20q-69 0 -106 25l17 42q30 -19 68 -19q34 0 34 25q0 29 -55 31l1 21l29 100l53 -6l-16 -55q101 -6 101 -79z" />
    <glyph glyph-name="onesuperior" unicode="&#xb9;" horiz-adv-x="365" 
d="M268 657v-286q0 -47 13.5 -63t63.5 -18v-40h-297v40q54 3 70 18.5t16 63.5v182q-34 -26 -81 -39l-23 43l159 99h79z" />
    <glyph glyph-name="ordmasculine" unicode="&#xba;" horiz-adv-x="460" 
d="M430 551q0 -108 -58 -160.5t-145 -52.5q-94 0 -145.5 52.5t-51.5 148.5q0 92 55 148.5t151 56.5q88 0 141 -47t53 -146zM283 556q0 76 -12.5 106t-39.5 30t-39.5 -33t-12.5 -124q0 -80 11 -113t42 -33q26 0 38.5 38.5t12.5 128.5z" />
    <glyph glyph-name="guillemotright" unicode="&#xbb;" horiz-adv-x="653" 
d="M328 70l113 179l-113 190l58 50l227 -235l-227 -234zM70 70l113 179l-113 190l58 50l227 -235l-227 -234z" />
    <glyph glyph-name="onequarter" unicode="&#xbc;" horiz-adv-x="1001" 
d="M268 657v-286q0 -47 13.5 -63t63.5 -18v-40h-297v40q54 3 70 18.5t16 63.5v182q-34 -26 -81 -39l-23 43l159 99h79zM778 730l-487 -853h-76l487 853h76zM786 -8v97h-178v61l137 256h111l-160 -255h90q0 102 44 146l89 11v-157h52v-62h-52v-89z" />
    <glyph glyph-name="onehalf" unicode="&#xbd;" horiz-adv-x="1034" 
d="M268 657v-286q0 -47 13.5 -63t63.5 -18v-40h-297v40q54 3 70 18.5t16 63.5v182q-34 -26 -81 -39l-23 43l159 99h79zM778 730l-487 -853h-76l487 853h76zM820 415q75 0 118 -32t43 -93q0 -67 -42.5 -105t-135.5 -76l-39 -16h240l-12 -93h-344v68l65 53q72 59 93 85.5
t21 68.5q0 27 -17.5 41t-41.5 14q-49 0 -86 -25l-25 41q27 29 70 49t93 20z" />
    <glyph glyph-name="threequarters" unicode="&#xbe;" horiz-adv-x="972" 
d="M124 595q-38 0 -80 -23l-22 40q63 53 156 53q65 0 104.5 -26t39.5 -75q0 -37 -30.5 -63t-80.5 -36q57 -2 91 -30.5t34 -70.5q0 -46 -35.5 -77.5t-85 -44t-107.5 -12.5q-48 0 -90 11l-8 54q42 -8 74 -8q48 0 72.5 21.5t24.5 58.5q0 66 -71 66q-16 0 -29 -1v58q14 -1 37 -1
q33 0 48.5 12.5t15.5 46.5q0 23 -16.5 35t-41.5 12zM749 730l-487 -853h-76l487 853h76zM757 -8v97h-178v61l137 256h111l-160 -255h90q0 102 44 146l89 11v-157h52v-62h-52v-89z" />
    <glyph glyph-name="questiondown" unicode="&#xbf;" horiz-adv-x="479" 
d="M157 426q0 43 30.5 73t72.5 30t72 -30t30 -73q0 -41 -30 -71t-72 -30t-72.5 30t-30.5 71zM259 -112q34 0 54.5 24.5t21.5 71.5h114v-126q-38 -24 -94.5 -37.5t-108.5 -13.5q-98 0 -159.5 41t-61.5 121q0 32 10 59t29.5 48t34.5 33t39 28q53 35 70.5 55t17.5 55
q0 23 -3 44h75q36 -36 36 -95q0 -58 -73 -125q-32 -29 -47.5 -54.5t-15.5 -63.5q0 -29 16 -47t45 -18z" />
    <glyph glyph-name="Agrave" unicode="&#xc0;" horiz-adv-x="677" 
d="M425 98l-25 77h-207l-21 -77q-4 -12 -4 -21q0 -15 13 -19.5t48 -6.5v-51h-224v51q32 4 45 14.5t24 43.5l190 588h142l206 -588q12 -32 23 -43t37 -15v-51h-300v51q33 1 45.5 7t12.5 18q0 7 -5 22zM267 435l-50 -175h155l-58 178q-13 41 -20 80h-6q-5 -32 -21 -83z
M421 766l-25 -39l-260 73l74 146z" />
    <glyph glyph-name="Aacute" unicode="&#xc1;" horiz-adv-x="677" 
d="M425 98l-25 77h-207l-21 -77q-4 -12 -4 -21q0 -15 13 -19.5t48 -6.5v-51h-224v51q32 4 45 14.5t24 43.5l190 588h142l206 -588q12 -32 23 -43t37 -15v-51h-300v51q33 1 45.5 7t12.5 18q0 7 -5 22zM267 435l-50 -175h155l-58 178q-13 41 -20 80h-6q-5 -32 -21 -83z
M248 727l-25 39l211 180l74 -146z" />
    <glyph glyph-name="Acircumflex" unicode="&#xc2;" horiz-adv-x="677" 
d="M425 98l-25 77h-207l-21 -77q-4 -12 -4 -21q0 -15 13 -19.5t48 -6.5v-51h-224v51q32 4 45 14.5t24 43.5l190 588h142l206 -588q12 -32 23 -43t37 -15v-51h-300v51q33 1 45.5 7t12.5 18q0 7 -5 22zM267 435l-50 -175h155l-58 178q-13 41 -20 80h-6q-5 -32 -21 -83z
M495 732l-157 75l-157 -75l-25 40l182 183l182 -183z" />
    <glyph glyph-name="Atilde" unicode="&#xc3;" horiz-adv-x="677" 
d="M425 98l-25 77h-207l-21 -77q-4 -12 -4 -21q0 -15 13 -19.5t48 -6.5v-51h-224v51q32 4 45 14.5t24 43.5l190 588h142l206 -588q12 -32 23 -43t37 -15v-51h-300v51q33 1 45.5 7t12.5 18q0 7 -5 22zM267 435l-50 -175h155l-58 178q-13 41 -20 80h-6q-5 -32 -21 -83z
M409 873q53 0 75 47l38 -17q-14 -62 -46 -102.5t-73 -40.5q-31 0 -75 16t-64 16q-48 0 -73 -49l-36 16q8 61 40 105t75 44q30 0 72.5 -17.5t66.5 -17.5z" />
    <glyph glyph-name="Adieresis" unicode="&#xc4;" horiz-adv-x="677" 
d="M425 98l-25 77h-207l-21 -77q-4 -12 -4 -21q0 -15 13 -19.5t48 -6.5v-51h-224v51q32 4 45 14.5t24 43.5l190 588h142l206 -588q12 -32 23 -43t37 -15v-51h-300v51q33 1 45.5 7t12.5 18q0 7 -5 22zM267 435l-50 -175h155l-58 178q-13 41 -20 80h-6q-5 -32 -21 -83z
M315 830q0 -37 -27 -63t-65 -26t-64.5 26t-26.5 63t27.5 63.5t65.5 26.5t64 -26t26 -64zM544 830q0 -37 -27 -63t-65 -26t-64.5 26t-26.5 63t27.5 63.5t65.5 26.5t64 -26t26 -64z" />
    <glyph glyph-name="Aring" unicode="&#xc5;" horiz-adv-x="677" 
d="M425 98l-25 77h-207l-21 -77q-4 -12 -4 -21q0 -15 13 -19.5t48 -6.5v-51h-224v51q32 4 45 14.5t24 43.5l190 588h142l206 -588q12 -32 23 -43t37 -15v-51h-300v51q33 1 45.5 7t12.5 18q0 7 -5 22zM267 435l-50 -175h155l-58 178q-13 41 -20 80h-6q-5 -32 -21 -83z
M338 733q-54 0 -89 34.5t-35 87.5t35 87.5t89 34.5q55 0 90 -34.5t35 -87.5t-35 -87.5t-90 -34.5zM338 915q-24 0 -38.5 -17t-14.5 -43q0 -24 14.5 -40t38.5 -16q25 0 39.5 16t14.5 40q0 26 -14.5 43t-39.5 17z" />
    <glyph glyph-name="AE" unicode="&#xc6;" horiz-adv-x="945" 
d="M92 109l228 465q11 24 11 37q0 33 -54 33v53h602l12 -177h-88q-18 61 -35.5 79t-71.5 18h-84v-230h48q46 0 62 14t19 57h77v-218h-77q-3 42 -19 56.5t-61 14.5h-49v-237h105q48 0 69.5 24t27.5 92h89v-190h-530v50q36 0 50 14t14 56v97h-189l-60 -119q-7 -14 -7 -23
q0 -21 61 -24v-51h-237v51q33 4 52.5 15.5t34.5 42.5zM442 616l-151 -315h146v118q0 123 11 197h-6z" />
    <glyph glyph-name="Ccedilla" unicode="&#xc7;" horiz-adv-x="638" 
d="M454 -121q0 -45 -31.5 -65t-94.5 -20q-69 0 -106 25l17 42q30 -19 68 -19q34 0 34 25q0 29 -55 31l1 21l20 71q-128 15 -197.5 104t-69.5 243q0 190 89 281t245 91q139 0 221 -51v-146h-124q-12 62 -33 89t-66 27t-71.5 -23t-41.5 -86t-15 -174q0 -88 9 -145.5t27 -86
t38 -38.5t50 -10q56 0 79.5 28.5t33.5 94.5h119v-143q-33 -25 -99 -41.5t-140 -16.5l-8 -29q101 -6 101 -79z" />
    <glyph glyph-name="Egrave" unicode="&#xc8;" horiz-adv-x="605" 
d="M25 0v50q36 0 50 14t14 56v454q0 42 -14 56t-50 14v53h514l12 -177h-88q-18 61 -35.5 79t-71.5 18h-84v-230h48q46 0 62 14t19 57h77v-218h-77q-3 42 -19 56.5t-61 14.5h-49v-237h105q48 0 69.5 24t27.5 92h89v-190h-538zM421 766l-25 -39l-260 73l74 146z" />
    <glyph glyph-name="Eacute" unicode="&#xc9;" horiz-adv-x="605" 
d="M25 0v50q36 0 50 14t14 56v454q0 42 -14 56t-50 14v53h514l12 -177h-88q-18 61 -35.5 79t-71.5 18h-84v-230h48q46 0 62 14t19 57h77v-218h-77q-3 42 -19 56.5t-61 14.5h-49v-237h105q48 0 69.5 24t27.5 92h89v-190h-538zM194 727l-25 39l211 180l74 -146z" />
    <glyph glyph-name="Ecircumflex" unicode="&#xca;" horiz-adv-x="605" 
d="M25 0v50q36 0 50 14t14 56v454q0 42 -14 56t-50 14v53h514l12 -177h-88q-18 61 -35.5 79t-71.5 18h-84v-230h48q46 0 62 14t19 57h77v-218h-77q-3 42 -19 56.5t-61 14.5h-49v-237h105q48 0 69.5 24t27.5 92h89v-190h-538zM463 732l-157 75l-157 -75l-25 40l182 183
l182 -183z" />
    <glyph glyph-name="Edieresis" unicode="&#xcb;" horiz-adv-x="605" 
d="M25 0v50q36 0 50 14t14 56v454q0 42 -14 56t-50 14v53h514l12 -177h-88q-18 61 -35.5 79t-71.5 18h-84v-230h48q46 0 62 14t19 57h77v-218h-77q-3 42 -19 56.5t-61 14.5h-49v-237h105q48 0 69.5 24t27.5 92h89v-190h-538zM283 830q0 -37 -27 -63t-65 -26t-64.5 26
t-26.5 63t27.5 63.5t65.5 26.5t64 -26t26 -64zM512 830q0 -37 -27 -63t-65 -26t-64.5 26t-26.5 63t27.5 63.5t65.5 26.5t64 -26t26 -64z" />
    <glyph glyph-name="Igrave" unicode="&#xcc;" horiz-adv-x="361" 
d="M89 120v454q0 42 -14 56t-50 14v53h311v-53q-36 0 -50 -14t-14 -56v-454q0 -42 14 -56t50 -14v-50h-311v50q36 0 50 14t14 56zM295 766l-25 -39l-260 73l74 146z" />
    <glyph glyph-name="Iacute" unicode="&#xcd;" horiz-adv-x="361" 
d="M89 120v454q0 42 -14 56t-50 14v53h311v-53q-36 0 -50 -14t-14 -56v-454q0 -42 14 -56t50 -14v-50h-311v50q36 0 50 14t14 56zM68 727l-25 39l211 180l74 -146z" />
    <glyph glyph-name="Icircumflex" unicode="&#xce;" horiz-adv-x="361" 
d="M89 120v454q0 42 -14 56t-50 14v53h311v-53q-36 0 -50 -14t-14 -56v-454q0 -42 14 -56t50 -14v-50h-311v50q36 0 50 14t14 56zM337 732l-157 75l-157 -75l-25 40l182 183l182 -183z" />
    <glyph glyph-name="Idieresis" unicode="&#xcf;" horiz-adv-x="361" 
d="M89 120v454q0 42 -14 56t-50 14v53h311v-53q-36 0 -50 -14t-14 -56v-454q0 -42 14 -56t50 -14v-50h-311v50q36 0 50 14t14 56zM157 830q0 -37 -27 -63t-65 -26t-64.5 26t-26.5 63t27.5 63.5t65.5 26.5t64 -26t26 -64zM386 830q0 -37 -27 -63t-65 -26t-64.5 26t-26.5 63
t27.5 63.5t65.5 26.5t64 -26t26 -64z" />
    <glyph glyph-name="Eth" unicode="&#xd0;" horiz-adv-x="700" 
d="M26 312v81h63v181q0 42 -14 56t-50 14v53h306q160 0 244.5 -83.5t84.5 -269.5q0 -173 -85.5 -258.5t-248.5 -85.5h-301v50q36 0 50 14t14 56v192h-63zM464 339q0 114 -16 174.5t-48 82t-91 21.5h-37v-224h111v-81h-111v-238h33q61 0 93.5 19.5t49 77t16.5 168.5z" />
    <glyph glyph-name="Ntilde" unicode="&#xd1;" horiz-adv-x="712" 
d="M541 401v173q0 42 -14 56t-50 14v53h220v-53q-36 0 -50 -14t-14 -56v-574h-130l-242 368q-37 56 -83 140h-3q8 -84 8 -140v-248q0 -42 14 -56t50 -14v-50h-222v50q36 0 50 14t14 56v454q0 42 -14 56t-50 14v53h260l194 -296q36 -55 66 -125h4q-8 80 -8 125zM432 873
q53 0 75 47l38 -17q-14 -62 -46 -102.5t-73 -40.5q-31 0 -75 16t-64 16q-48 0 -73 -49l-36 16q8 61 40 105t75 44q30 0 72.5 -17.5t66.5 -17.5z" />
    <glyph glyph-name="Ograve" unicode="&#xd2;" horiz-adv-x="720" 
d="M360 -12q-153 0 -236.5 89.5t-83.5 259.5q0 189 87 280.5t233 91.5t233 -91.5t87 -280.5q0 -170 -83.5 -259.5t-236.5 -89.5zM360 628q-62 0 -89 -60t-27 -223q0 -116 15 -180.5t38.5 -84t62.5 -19.5t62.5 19.5t38.5 84.5t15 183q0 110 -13.5 172t-37.5 85t-65 23z
M475 766l-25 -39l-260 73l74 146z" />
    <glyph glyph-name="Oacute" unicode="&#xd3;" horiz-adv-x="720" 
d="M360 -12q-153 0 -236.5 89.5t-83.5 259.5q0 189 87 280.5t233 91.5t233 -91.5t87 -280.5q0 -170 -83.5 -259.5t-236.5 -89.5zM360 628q-62 0 -89 -60t-27 -223q0 -116 15 -180.5t38.5 -84t62.5 -19.5t62.5 19.5t38.5 84.5t15 183q0 110 -13.5 172t-37.5 85t-65 23z
M248 727l-25 39l211 180l74 -146z" />
    <glyph glyph-name="Ocircumflex" unicode="&#xd4;" horiz-adv-x="720" 
d="M360 -12q-153 0 -236.5 89.5t-83.5 259.5q0 189 87 280.5t233 91.5t233 -91.5t87 -280.5q0 -170 -83.5 -259.5t-236.5 -89.5zM360 628q-62 0 -89 -60t-27 -223q0 -116 15 -180.5t38.5 -84t62.5 -19.5t62.5 19.5t38.5 84.5t15 183q0 110 -13.5 172t-37.5 85t-65 23z
M517 732l-157 75l-157 -75l-25 40l182 183l182 -183z" />
    <glyph glyph-name="Otilde" unicode="&#xd5;" horiz-adv-x="720" 
d="M360 -12q-153 0 -236.5 89.5t-83.5 259.5q0 189 87 280.5t233 91.5t233 -91.5t87 -280.5q0 -170 -83.5 -259.5t-236.5 -89.5zM360 628q-62 0 -89 -60t-27 -223q0 -116 15 -180.5t38.5 -84t62.5 -19.5t62.5 19.5t38.5 84.5t15 183q0 110 -13.5 172t-37.5 85t-65 23z
M431 873q53 0 75 47l38 -17q-14 -62 -46 -102.5t-73 -40.5q-31 0 -75 16t-64 16q-48 0 -73 -49l-36 16q8 61 40 105t75 44q30 0 72.5 -17.5t66.5 -17.5z" />
    <glyph glyph-name="Odieresis" unicode="&#xd6;" horiz-adv-x="720" 
d="M360 -12q-153 0 -236.5 89.5t-83.5 259.5q0 189 87 280.5t233 91.5t233 -91.5t87 -280.5q0 -170 -83.5 -259.5t-236.5 -89.5zM360 628q-62 0 -89 -60t-27 -223q0 -116 15 -180.5t38.5 -84t62.5 -19.5t62.5 19.5t38.5 84.5t15 183q0 110 -13.5 172t-37.5 85t-65 23z
M337 830q0 -37 -27 -63t-65 -26t-64.5 26t-26.5 63t27.5 63.5t65.5 26.5t64 -26t26 -64zM566 830q0 -37 -27 -63t-65 -26t-64.5 26t-26.5 63t27.5 63.5t65.5 26.5t64 -26t26 -64z" />
    <glyph glyph-name="multiply" unicode="&#xd7;" horiz-adv-x="525" 
d="M56 421l55 57l151 -151l151 151l57 -57l-151 -151l151 -150l-57 -57l-151 152l-151 -152l-56 57l150 150z" />
    <glyph glyph-name="Oslash" unicode="&#xd8;" horiz-adv-x="720" 
d="M625 724l-53 -86q108 -95 108 -301q0 -170 -83.5 -259.5t-236.5 -89.5q-98 0 -169 38l-51 -83l-50 29l53 86q-103 89 -103 279q0 189 87 280.5t233 91.5q93 0 163 -37l51 81zM480 348q0 68 -7 131l-211 -340q15 -44 39 -61t59 -17q39 0 63.5 19.5t40.5 85t16 182.5z
M360 628q-41 0 -66 -23t-39.5 -86.5t-14.5 -173.5q0 -67 5 -122l209 337q-27 68 -94 68z" />
    <glyph glyph-name="Ugrave" unicode="&#xd9;" horiz-adv-x="693" 
d="M519 228v346q0 42 -14 56t-50 14v53h217v-53q-36 0 -50 -14t-14 -56v-348q0 -239 -261 -239q-138 0 -200 54.5t-62 181.5v351q0 42 -14 56t-50 14v53h311v-53q-36 0 -50 -14t-14 -56v-357q0 -77 29 -108t90 -31q63 0 97.5 34t34.5 116zM498 766l-25 -39l-260 73l74 146z
" />
    <glyph glyph-name="Uacute" unicode="&#xda;" horiz-adv-x="693" 
d="M519 228v346q0 42 -14 56t-50 14v53h217v-53q-36 0 -50 -14t-14 -56v-348q0 -239 -261 -239q-138 0 -200 54.5t-62 181.5v351q0 42 -14 56t-50 14v53h311v-53q-36 0 -50 -14t-14 -56v-357q0 -77 29 -108t90 -31q63 0 97.5 34t34.5 116zM271 727l-25 39l211 180l74 -146z
" />
    <glyph glyph-name="Ucircumflex" unicode="&#xdb;" horiz-adv-x="693" 
d="M519 228v346q0 42 -14 56t-50 14v53h217v-53q-36 0 -50 -14t-14 -56v-348q0 -239 -261 -239q-138 0 -200 54.5t-62 181.5v351q0 42 -14 56t-50 14v53h311v-53q-36 0 -50 -14t-14 -56v-357q0 -77 29 -108t90 -31q63 0 97.5 34t34.5 116zM540 732l-157 75l-157 -75l-25 40
l182 183l182 -183z" />
    <glyph glyph-name="Udieresis" unicode="&#xdc;" horiz-adv-x="693" 
d="M519 228v346q0 42 -14 56t-50 14v53h217v-53q-36 0 -50 -14t-14 -56v-348q0 -239 -261 -239q-138 0 -200 54.5t-62 181.5v351q0 42 -14 56t-50 14v53h311v-53q-36 0 -50 -14t-14 -56v-357q0 -77 29 -108t90 -31q63 0 97.5 34t34.5 116zM360 830q0 -37 -27 -63t-65 -26
t-64.5 26t-26.5 63t27.5 63.5t65.5 26.5t64 -26t26 -64zM589 830q0 -37 -27 -63t-65 -26t-64.5 26t-26.5 63t27.5 63.5t65.5 26.5t64 -26t26 -64z" />
    <glyph glyph-name="Yacute" unicode="&#xdd;" horiz-adv-x="680" 
d="M384 366h6l93 220q8 19 8 31q0 29 -47 29v51h219v-51q-30 -4 -44 -14.5t-30 -43.5l-157 -327v-141q0 -42 15.5 -56t58.5 -14v-50h-331v50q43 0 58.5 14t15.5 56v140l-164 328q-16 33 -29 43.5t-39 14.5v51h305v-51q-47 0 -47 -33q0 -13 7 -27zM248 727l-25 39l211 180
l74 -146z" />
    <glyph glyph-name="Thorn" unicode="&#xde;" horiz-adv-x="617" 
d="M422 358q0 64 -23 90t-77 26h-50v-234h54q54 0 75 24.5t21 93.5zM272 573v-19h100q118 0 181.5 -43t63.5 -154q0 -42 -11 -75.5t-37 -63.5t-78 -46.5t-127 -16.5h-92v-35q0 -43 16.5 -56.5t67.5 -13.5v-50h-331v50q36 0 50 14t14 56v454q0 42 -14 56t-50 14v53h311v-53
q-32 0 -48 -21t-16 -50z" />
    <glyph glyph-name="germandbls" unicode="&#xdf;" horiz-adv-x="659" 
d="M85 516v23q0 104 68.5 155.5t181.5 51.5q114 0 173 -38.5t59 -107.5q0 -54 -27.5 -91t-83.5 -66q-18 -9 -24 -15t-6 -14q0 -13 24 -23q52 -24 82 -41t57 -43t38.5 -60t11.5 -81q0 -82 -54.5 -130.5t-147.5 -48.5q-86 0 -142 43l20 55q34 -22 76 -22q36 0 55 26t19 67
q0 54 -22 94.5t-69 81.5q-7 6 -21 17.5t-19 16t-12 12.5t-9.5 15t-2.5 15q0 4 0.5 7t2.5 6.5t3 6t5 6.5t6 6.5t7.5 7t8.5 7t10 8.5t11 9q27 23 39 47.5t12 61.5q0 90 -75 90q-37 0 -59.5 -31t-22.5 -95v-545h-230v50q35 0 46 13.5t11 56.5v312h-60v59z" />
    <glyph glyph-name="agrave" unicode="&#xe0;" horiz-adv-x="552" 
d="M483 158q0 -55 11.5 -71t47.5 -16v-48q-44 -29 -116 -29q-43 0 -71.5 18.5t-36.5 50.5q-14 -32 -48.5 -54t-90.5 -22q-71 0 -115 36.5t-44 112.5q0 170 239 170q28 0 54 -2v47q0 54 -15 79t-49 25q-32 0 -45.5 -22.5t-19.5 -69.5h-129v108q97 58 227 58q93 0 149 -42
t56 -126q0 -7 -2 -78.5t-2 -124.5zM311 244h-35q-37 0 -58 -21.5t-21 -62.5q0 -66 49 -66q40 0 62 23zM392 590l-28 -36l-252 97l88 139z" />
    <glyph glyph-name="aacute" unicode="&#xe1;" horiz-adv-x="552" 
d="M483 158q0 -55 11.5 -71t47.5 -16v-48q-44 -29 -116 -29q-43 0 -71.5 18.5t-36.5 50.5q-14 -32 -48.5 -54t-90.5 -22q-71 0 -115 36.5t-44 112.5q0 170 239 170q28 0 54 -2v47q0 54 -15 79t-49 25q-32 0 -45.5 -22.5t-19.5 -69.5h-129v108q97 58 227 58q93 0 149 -42
t56 -126q0 -7 -2 -78.5t-2 -124.5zM311 244h-35q-37 0 -58 -21.5t-21 -62.5q0 -66 49 -66q40 0 62 23zM165 554l-28 36l192 200l88 -139z" />
    <glyph glyph-name="acircumflex" unicode="&#xe2;" horiz-adv-x="552" 
d="M483 158q0 -55 11.5 -71t47.5 -16v-48q-44 -29 -116 -29q-43 0 -71.5 18.5t-36.5 50.5q-14 -32 -48.5 -54t-90.5 -22q-71 0 -115 36.5t-44 112.5q0 170 239 170q28 0 54 -2v47q0 54 -15 79t-49 25q-32 0 -45.5 -22.5t-19.5 -69.5h-129v108q97 58 227 58q93 0 149 -42
t56 -126q0 -7 -2 -78.5t-2 -124.5zM311 244h-35q-37 0 -58 -21.5t-21 -62.5q0 -66 49 -66q40 0 62 23zM434 552l-157 75l-157 -75l-25 40l182 183l182 -183z" />
    <glyph glyph-name="atilde" unicode="&#xe3;" horiz-adv-x="552" 
d="M483 158q0 -55 11.5 -71t47.5 -16v-48q-44 -29 -116 -29q-43 0 -71.5 18.5t-36.5 50.5q-14 -32 -48.5 -54t-90.5 -22q-71 0 -115 36.5t-44 112.5q0 170 239 170q28 0 54 -2v47q0 54 -15 79t-49 25q-32 0 -45.5 -22.5t-19.5 -69.5h-129v108q97 58 227 58q93 0 149 -42
t56 -126q0 -7 -2 -78.5t-2 -124.5zM311 244h-35q-37 0 -58 -21.5t-21 -62.5q0 -66 49 -66q40 0 62 23zM338 693q53 0 75 47l38 -17q-14 -62 -46 -102.5t-73 -40.5q-31 0 -75 16t-64 16q-48 0 -73 -49l-36 16q8 61 40 105t75 44q30 0 72.5 -17.5t66.5 -17.5z" />
    <glyph glyph-name="adieresis" unicode="&#xe4;" horiz-adv-x="552" 
d="M483 158q0 -55 11.5 -71t47.5 -16v-48q-44 -29 -116 -29q-43 0 -71.5 18.5t-36.5 50.5q-14 -32 -48.5 -54t-90.5 -22q-71 0 -115 36.5t-44 112.5q0 170 239 170q28 0 54 -2v47q0 54 -15 79t-49 25q-32 0 -45.5 -22.5t-19.5 -69.5h-129v108q97 58 227 58q93 0 149 -42
t56 -126q0 -7 -2 -78.5t-2 -124.5zM311 244h-35q-37 0 -58 -21.5t-21 -62.5q0 -66 49 -66q40 0 62 23zM248 650q0 -37 -27 -63t-65 -26t-64.5 26t-26.5 63t27.5 63.5t65.5 26.5t64 -26t26 -64zM477 650q0 -37 -27 -63t-65 -26t-64.5 26t-26.5 63t27.5 63.5t65.5 26.5t64 -26
t26 -64z" />
    <glyph glyph-name="aring" unicode="&#xe5;" horiz-adv-x="552" 
d="M483 158q0 -55 11.5 -71t47.5 -16v-48q-44 -29 -116 -29q-43 0 -71.5 18.5t-36.5 50.5q-14 -32 -48.5 -54t-90.5 -22q-71 0 -115 36.5t-44 112.5q0 170 239 170q28 0 54 -2v47q0 54 -15 79t-49 25q-32 0 -45.5 -22.5t-19.5 -69.5h-129v108q97 58 227 58q93 0 149 -42
t56 -126q0 -7 -2 -78.5t-2 -124.5zM311 244h-35q-37 0 -58 -21.5t-21 -62.5q0 -66 49 -66q40 0 62 23zM267 563q-54 0 -89 34.5t-35 87.5t35 87.5t89 34.5q55 0 90 -34.5t35 -87.5t-35 -87.5t-90 -34.5zM267 745q-24 0 -38.5 -17t-14.5 -43q0 -24 14.5 -40t38.5 -16
q25 0 39.5 16t14.5 40q0 26 -14.5 43t-39.5 17z" />
    <glyph glyph-name="ae" unicode="&#xe6;" horiz-adv-x="830" 
d="M426 482q64 47 146 47q121 0 174.5 -64.5t53.5 -185.5v-45h-297q3 -77 32.5 -113t96.5 -36q68 0 133 31l26 -44q-82 -85 -222 -85q-135 0 -200 81q-21 -33 -68.5 -57t-116.5 -24q-74 0 -119 36.5t-45 112.5q0 87 60 127.5t180 40.5h57v47q0 104 -68 104
q-32 0 -45.5 -22.5t-19.5 -69.5h-129v108q97 58 216 58q103 0 155 -47zM572 460q-33 0 -48 -33t-20 -121h126q0 89 -12.5 121.5t-45.5 32.5zM260 94q43 0 80 22q-23 53 -24 118h-28q-47 0 -69 -17t-22 -57q0 -66 63 -66z" />
    <glyph glyph-name="ccedilla" unicode="&#xe7;" horiz-adv-x="503" 
d="M257 -206q-69 0 -106 25l17 42q30 -19 68 -19q34 0 34 25q0 29 -55 31l1 21l21 72q-91 14 -146.5 80.5t-55.5 178.5q0 131 77.5 205t190.5 74q109 0 170 -41v-117h-129q-1 51 -8 70t-32 19q-15 0 -29 -8t-29 -27t-24.5 -58t-9.5 -94q0 -101 38 -145.5t95 -44.5t112 28
l27 -43q-63 -74 -181 -81h-13l-8 -29q101 -6 101 -79q0 -45 -31.5 -65t-94.5 -20z" />
    <glyph glyph-name="egrave" unicode="&#xe8;" horiz-adv-x="549" 
d="M351 85q68 0 133 31l26 -44q-82 -85 -222 -85q-121 0 -187 71t-66 201q0 127 68.5 198.5t185.5 71.5q122 0 176 -64t54 -186v-49h-297q3 -77 32 -111t97 -34zM291 460q-33 0 -48 -33t-20 -121h126q0 89 -12.5 121.5t-45.5 32.5zM416 590l-28 -36l-252 97l88 139z" />
    <glyph glyph-name="eacute" unicode="&#xe9;" horiz-adv-x="549" 
d="M351 85q68 0 133 31l26 -44q-82 -85 -222 -85q-121 0 -187 71t-66 201q0 127 68.5 198.5t185.5 71.5q122 0 176 -64t54 -186v-49h-297q3 -77 32 -111t97 -34zM291 460q-33 0 -48 -33t-20 -121h126q0 89 -12.5 121.5t-45.5 32.5zM179 554l-28 36l192 200l88 -139z" />
    <glyph glyph-name="ecircumflex" unicode="&#xea;" horiz-adv-x="549" 
d="M351 85q68 0 133 31l26 -44q-82 -85 -222 -85q-121 0 -187 71t-66 201q0 127 68.5 198.5t185.5 71.5q122 0 176 -64t54 -186v-49h-297q3 -77 32 -111t97 -34zM291 460q-33 0 -48 -33t-20 -121h126q0 89 -12.5 121.5t-45.5 32.5zM446 552l-157 75l-157 -75l-25 40l182 183
l182 -183z" />
    <glyph glyph-name="edieresis" unicode="&#xeb;" horiz-adv-x="549" 
d="M351 85q68 0 133 31l26 -44q-82 -85 -222 -85q-121 0 -187 71t-66 201q0 127 68.5 198.5t185.5 71.5q122 0 176 -64t54 -186v-49h-297q3 -77 32 -111t97 -34zM291 460q-33 0 -48 -33t-20 -121h126q0 89 -12.5 121.5t-45.5 32.5zM260 650q0 -37 -27 -63t-65 -26t-64.5 26
t-26.5 63t27.5 63.5t65.5 26.5t64 -26t26 -64zM489 650q0 -37 -27 -63t-65 -26t-64.5 26t-26.5 63t27.5 63.5t65.5 26.5t64 -26t26 -64z" />
    <glyph glyph-name="igrave" unicode="&#xec;" horiz-adv-x="327" 
d="M312 0h-287v50q35 0 46 13.5t11 56.5v235q0 54 -10 68.5t-45 16.5v49l203 33h25v-402q0 -43 11 -56.5t46 -13.5v-50zM283 590l-28 -36l-252 97l88 139z" />
    <glyph glyph-name="iacute" unicode="&#xed;" horiz-adv-x="327" 
d="M312 0h-287v50q35 0 46 13.5t11 56.5v235q0 54 -10 68.5t-45 16.5v49l203 33h25v-402q0 -43 11 -56.5t46 -13.5v-50zM56 554l-28 36l192 200l88 -139z" />
    <glyph glyph-name="icircumflex" unicode="&#xee;" horiz-adv-x="327" 
d="M312 0h-287v50q35 0 46 13.5t11 56.5v235q0 54 -10 68.5t-45 16.5v49l203 33h25v-402q0 -43 11 -56.5t46 -13.5v-50zM325 552l-157 75l-157 -75l-25 40l182 183l182 -183z" />
    <glyph glyph-name="idieresis" unicode="&#xef;" horiz-adv-x="327" 
d="M312 0h-287v50q35 0 46 13.5t11 56.5v235q0 54 -10 68.5t-45 16.5v49l203 33h25v-402q0 -43 11 -56.5t46 -13.5v-50zM145 650q0 -37 -27 -63t-65 -26t-64.5 26t-26.5 63t27.5 63.5t65.5 26.5t64 -26t26 -64zM374 650q0 -37 -27 -63t-65 -26t-64.5 26t-26.5 63t27.5 63.5
t65.5 26.5t64 -26t26 -64z" />
    <glyph glyph-name="eth" unicode="&#xf0;" horiz-adv-x="586" 
d="M109 529l-21 52l140 48q-56 35 -140 57l25 48q150 -25 223 -64l134 47l21 -52l-94 -33q154 -115 154 -347q0 -146 -72 -222t-185 -76q-118 0 -188.5 65t-70.5 202q0 123 67 191.5t168 68.5q50 0 83 -18q-20 46 -71 93zM373 282q0 88 -15 147q-18 16 -54 16
q-42 0 -64 -49.5t-22 -140.5q0 -111 18.5 -157t60.5 -46q37 0 56.5 51.5t19.5 178.5z" />
    <glyph glyph-name="ntilde" unicode="&#xf1;" horiz-adv-x="643" 
d="M576 370v-250q0 -43 11 -56.5t46 -13.5v-50h-287v50q35 0 46 13.5t11 56.5v208q0 81 -63 81q-40 0 -85 -27v-262q0 -43 11 -56.5t46 -13.5v-50h-287v50q35 0 46 13.5t11 56.5v235q0 54 -10 68.5t-45 16.5v49l176 40h15q8 -10 19 -37t14 -54q78 91 176 91q66 0 107.5 -40
t41.5 -119zM400 693q53 0 75 47l38 -17q-14 -62 -46 -102.5t-73 -40.5q-31 0 -75 16t-64 16q-48 0 -73 -49l-36 16q8 61 40 105t75 44q30 0 72.5 -17.5t66.5 -17.5z" />
    <glyph glyph-name="ograve" unicode="&#xf2;" horiz-adv-x="598" 
d="M563 271q0 -98 -38.5 -163.5t-97 -93t-132.5 -27.5q-125 0 -192.5 70t-67.5 199q0 123 72.5 198t198.5 75q116 0 186.5 -63t70.5 -195zM373 278q0 102 -17.5 141.5t-56.5 39.5q-38 0 -56 -44t-18 -166q0 -107 15.5 -151t60.5 -44q37 0 54.5 51.5t17.5 172.5zM414 590
l-28 -36l-252 97l88 139z" />
    <glyph glyph-name="oacute" unicode="&#xf3;" horiz-adv-x="598" 
d="M563 271q0 -98 -38.5 -163.5t-97 -93t-132.5 -27.5q-125 0 -192.5 70t-67.5 199q0 123 72.5 198t198.5 75q116 0 186.5 -63t70.5 -195zM373 278q0 102 -17.5 141.5t-56.5 39.5q-38 0 -56 -44t-18 -166q0 -107 15.5 -151t60.5 -44q37 0 54.5 51.5t17.5 172.5zM187 554
l-28 36l192 200l88 -139z" />
    <glyph glyph-name="ocircumflex" unicode="&#xf4;" horiz-adv-x="598" 
d="M563 271q0 -98 -38.5 -163.5t-97 -93t-132.5 -27.5q-125 0 -192.5 70t-67.5 199q0 123 72.5 198t198.5 75q116 0 186.5 -63t70.5 -195zM373 278q0 102 -17.5 141.5t-56.5 39.5q-38 0 -56 -44t-18 -166q0 -107 15.5 -151t60.5 -44q37 0 54.5 51.5t17.5 172.5zM456 552
l-157 75l-157 -75l-25 40l182 183l182 -183z" />
    <glyph glyph-name="otilde" unicode="&#xf5;" horiz-adv-x="598" 
d="M563 271q0 -98 -38.5 -163.5t-97 -93t-132.5 -27.5q-125 0 -192.5 70t-67.5 199q0 123 72.5 198t198.5 75q116 0 186.5 -63t70.5 -195zM373 278q0 102 -17.5 141.5t-56.5 39.5q-38 0 -56 -44t-18 -166q0 -107 15.5 -151t60.5 -44q37 0 54.5 51.5t17.5 172.5zM370 693
q53 0 75 47l38 -17q-14 -62 -46 -102.5t-73 -40.5q-31 0 -75 16t-64 16q-48 0 -73 -49l-36 16q8 61 40 105t75 44q30 0 72.5 -17.5t66.5 -17.5z" />
    <glyph glyph-name="odieresis" unicode="&#xf6;" horiz-adv-x="598" 
d="M563 271q0 -98 -38.5 -163.5t-97 -93t-132.5 -27.5q-125 0 -192.5 70t-67.5 199q0 123 72.5 198t198.5 75q116 0 186.5 -63t70.5 -195zM373 278q0 102 -17.5 141.5t-56.5 39.5q-38 0 -56 -44t-18 -166q0 -107 15.5 -151t60.5 -44q37 0 54.5 51.5t17.5 172.5zM276 650
q0 -37 -27 -63t-65 -26t-64.5 26t-26.5 63t27.5 63.5t65.5 26.5t64 -26t26 -64zM505 650q0 -37 -27 -63t-65 -26t-64.5 26t-26.5 63t27.5 63.5t65.5 26.5t64 -26t26 -64z" />
    <glyph glyph-name="divide" unicode="&#xf7;" horiz-adv-x="616" 
d="M383 470q0 -33 -22 -55.5t-52 -22.5q-32 0 -53.5 21.5t-21.5 54.5q0 31 22 53.5t53 22.5q30 0 52 -22t22 -52zM55 232v78h506v-78h-506zM383 67q0 -33 -22 -55t-52 -22q-32 0 -53.5 21.5t-21.5 53.5t22 54.5t53 22.5q30 0 52 -22t22 -53z" />
    <glyph glyph-name="oslash" unicode="&#xf8;" horiz-adv-x="598" 
d="M514 541l-39 -61q88 -65 88 -209q0 -98 -38.5 -163.5t-97 -93t-132.5 -27.5q-65 0 -120 21l-43 -67l-46 27l42 66q-93 69 -93 222q0 123 72.5 198t198.5 75q66 0 123 -23l39 62zM216 249q0 -52 2 -73l148 231q-19 52 -67 52q-41 0 -62 -44.5t-21 -165.5zM382 278
q0 21 -2 53l-146 -230q19 -47 67 -47q81 0 81 224z" />
    <glyph glyph-name="ugrave" unicode="&#xf9;" horiz-adv-x="619" 
d="M547 522v-368q0 -54 10 -68t47 -17v-46l-177 -36h-15q-25 30 -29 78q-57 -78 -169 -78q-144 0 -144 145v223q0 54 -10 68.5t-45 16.5v49l203 33h25v-347q0 -41 13.5 -61t46.5 -20q37 0 71 26v235q0 54 -10 68.5t-45 16.5v49l203 33h25zM424 590l-28 -36l-252 97l88 139z
" />
    <glyph glyph-name="uacute" unicode="&#xfa;" horiz-adv-x="619" 
d="M547 522v-368q0 -54 10 -68t47 -17v-46l-177 -36h-15q-25 30 -29 78q-57 -78 -169 -78q-144 0 -144 145v223q0 54 -10 68.5t-45 16.5v49l203 33h25v-347q0 -41 13.5 -61t46.5 -20q37 0 71 26v235q0 54 -10 68.5t-45 16.5v49l203 33h25zM197 554l-28 36l192 200l88 -139z
" />
    <glyph glyph-name="ucircumflex" unicode="&#xfb;" horiz-adv-x="619" 
d="M547 522v-368q0 -54 10 -68t47 -17v-46l-177 -36h-15q-25 30 -29 78q-57 -78 -169 -78q-144 0 -144 145v223q0 54 -10 68.5t-45 16.5v49l203 33h25v-347q0 -41 13.5 -61t46.5 -20q37 0 71 26v235q0 54 -10 68.5t-45 16.5v49l203 33h25zM466 552l-157 75l-157 -75l-25 40
l182 183l182 -183z" />
    <glyph glyph-name="udieresis" unicode="&#xfc;" horiz-adv-x="619" 
d="M547 522v-368q0 -54 10 -68t47 -17v-46l-177 -36h-15q-25 30 -29 78q-57 -78 -169 -78q-144 0 -144 145v223q0 54 -10 68.5t-45 16.5v49l203 33h25v-347q0 -41 13.5 -61t46.5 -20q37 0 71 26v235q0 54 -10 68.5t-45 16.5v49l203 33h25zM286 650q0 -37 -27 -63t-65 -26
t-64.5 26t-26.5 63t27.5 63.5t65.5 26.5t64 -26t26 -64zM515 650q0 -37 -27 -63t-65 -26t-64.5 26t-26.5 63t27.5 63.5t65.5 26.5t64 -26t26 -64z" />
    <glyph glyph-name="yacute" unicode="&#xfd;" horiz-adv-x="572" 
d="M117 -205l-61 108q166 25 209 107l-66 -5q-15 61 -62 190l-76 209q-13 35 -23.5 46t-37.5 15v51h292v-51q-33 -1 -45.5 -7t-12.5 -18q0 -7 5 -22l68 -218q6 -19 14 -66h6q4 27 17 68l66 216q4 12 4 22q0 14 -13 18.5t-48 6.5v51h219v-51q-31 -4 -44 -14t-25 -44
l-148 -396q-35 -94 -91.5 -149.5t-146.5 -66.5zM202 554l-28 36l192 200l88 -139z" />
    <glyph glyph-name="thorn" unicode="&#xfe;" horiz-adv-x="617" 
d="M399 243q0 96 -21.5 134t-63.5 38q-46 0 -77 -30v-281q24 -28 71 -28q44 0 67.5 37t23.5 130zM5 710l196 26h15q21 -26 21 -100v-192q43 85 143 85q95 0 148.5 -67t53.5 -201q0 -143 -66 -208.5t-177 -65.5q-70 0 -102 40v-103q0 -43 11 -56.5t46 -13.5v-50h-287v50
q35 0 46 13.5t11 56.5v652q0 53 -11.5 68t-47.5 17v49z" />
    <glyph glyph-name="ydieresis" unicode="&#xff;" horiz-adv-x="572" 
d="M117 -205l-61 108q166 25 209 107l-66 -5q-15 61 -62 190l-76 209q-13 35 -23.5 46t-37.5 15v51h292v-51q-33 -1 -45.5 -7t-12.5 -18q0 -7 5 -22l68 -218q6 -19 14 -66h6q4 27 17 68l66 216q4 12 4 22q0 14 -13 18.5t-48 6.5v51h219v-51q-31 -4 -44 -14t-25 -44
l-148 -396q-35 -94 -91.5 -149.5t-146.5 -66.5zM291 650q0 -37 -27 -63t-65 -26t-64.5 26t-26.5 63t27.5 63.5t65.5 26.5t64 -26t26 -64zM520 650q0 -37 -27 -63t-65 -26t-64.5 26t-26.5 63t27.5 63.5t65.5 26.5t64 -26t26 -64z" />
    <glyph glyph-name="Amacron" unicode="&#x100;" horiz-adv-x="677" 
d="M425 98l-25 77h-207l-21 -77q-4 -12 -4 -21q0 -15 13 -19.5t48 -6.5v-51h-224v51q32 4 45 14.5t24 43.5l190 588h142l206 -588q12 -32 23 -43t37 -15v-51h-300v51q33 1 45.5 7t12.5 18q0 7 -5 22zM267 435l-50 -175h155l-58 178q-13 41 -20 80h-6q-5 -32 -21 -83z
M497 775h-317v87h317v-87z" />
    <glyph glyph-name="amacron" unicode="&#x101;" horiz-adv-x="552" 
d="M483 158q0 -55 11.5 -71t47.5 -16v-48q-44 -29 -116 -29q-43 0 -71.5 18.5t-36.5 50.5q-14 -32 -48.5 -54t-90.5 -22q-71 0 -115 36.5t-44 112.5q0 170 239 170q28 0 54 -2v47q0 54 -15 79t-49 25q-32 0 -45.5 -22.5t-19.5 -69.5h-129v108q97 58 227 58q93 0 149 -42
t56 -126q0 -7 -2 -78.5t-2 -124.5zM311 244h-35q-37 0 -58 -21.5t-21 -62.5q0 -66 49 -66q40 0 62 23zM427 605h-311v87h311v-87z" />
    <glyph glyph-name="Abreve" unicode="&#x102;" horiz-adv-x="677" 
d="M425 98l-25 77h-207l-21 -77q-4 -12 -4 -21q0 -15 13 -19.5t48 -6.5v-51h-224v51q32 4 45 14.5t24 43.5l190 588h142l206 -588q12 -32 23 -43t37 -15v-51h-300v51q33 1 45.5 7t12.5 18q0 7 -5 22zM267 435l-50 -175h155l-58 178q-13 41 -20 80h-6q-5 -32 -21 -83z
M338 744q-73 0 -114 50t-58 124l40 22q55 -83 132 -83t132 83l40 -22q-17 -74 -58 -124t-114 -50z" />
    <glyph glyph-name="abreve" unicode="&#x103;" horiz-adv-x="552" 
d="M483 158q0 -55 11.5 -71t47.5 -16v-48q-44 -29 -116 -29q-43 0 -71.5 18.5t-36.5 50.5q-14 -32 -48.5 -54t-90.5 -22q-71 0 -115 36.5t-44 112.5q0 170 239 170q28 0 54 -2v47q0 54 -15 79t-49 25q-32 0 -45.5 -22.5t-19.5 -69.5h-129v108q97 58 227 58q93 0 149 -42
t56 -126q0 -7 -2 -78.5t-2 -124.5zM311 244h-35q-37 0 -58 -21.5t-21 -62.5q0 -66 49 -66q40 0 62 23zM273 564q-73 0 -114 50t-58 124l40 22q55 -83 132 -83t132 83l40 -22q-17 -74 -58 -124t-114 -50z" />
    <glyph glyph-name="Aogonek" unicode="&#x104;" horiz-adv-x="677" 
d="M494 -125l16 -32q-47 -48 -130 -48q-53 0 -89 21t-36 67q0 38 30 65t110 74q35 21 35 48q0 10 -5 28l-25 77h-207l-21 -77q-4 -13 -4 -22q0 -14 13 -18.5t48 -6.5v-51h-224v51q32 4 45 14.5t24 43.5l190 588h142l205 -585q12 -36 23.5 -46.5t37.5 -14.5v-51h-169
q-49 0 -79 -29t-30 -65q0 -25 13 -36.5t33 -11.5q26 0 54 17zM267 435l-50 -175h155l-58 178q-13 41 -20 80h-6q-5 -32 -21 -83z" />
    <glyph glyph-name="aogonek" unicode="&#x105;" horiz-adv-x="552" 
d="M540 -125l16 -32q-47 -48 -130 -48q-54 0 -89.5 21.5t-35.5 69.5q0 34 29 59t83 51q-38 2 -63.5 21t-31.5 46q-14 -32 -48.5 -54t-90.5 -22q-71 0 -115 36.5t-44 112.5q0 170 239 170q28 0 54 -2v47q0 54 -15 79t-49 25q-32 0 -45.5 -22.5t-19.5 -69.5h-129v108
q97 58 227 58q93 0 149 -42t56 -126q0 -7 -2 -78.5t-2 -124.5q0 -55 11.5 -71t47.5 -16v-48q-102 -51 -102 -117q0 -25 13 -36.5t33 -11.5q26 0 54 17zM311 244h-35q-37 0 -58 -21.5t-21 -62.5q0 -66 49 -66q40 0 62 23z" />
    <glyph glyph-name="Cacute" unicode="&#x106;" horiz-adv-x="638" 
d="M360 -13q-153 0 -236.5 90t-83.5 260q0 190 89 281t245 91q139 0 221 -51v-146h-124q-12 62 -33 89t-66 27t-71.5 -23t-41.5 -86t-15 -174q0 -88 9 -145.5t27 -86t38 -38.5t50 -10q56 0 79.5 28.5t33.5 94.5h119v-143q-33 -25 -99.5 -41.5t-140.5 -16.5zM256 727l-25 39
l211 180l74 -146z" />
    <glyph glyph-name="cacute" unicode="&#x107;" horiz-adv-x="503" 
d="M473 488v-117h-129q-1 51 -8 70t-32 19q-15 0 -29 -8t-29 -27t-24.5 -58t-9.5 -94q0 -101 38 -145.5t95 -44.5t112 28l27 -43q-68 -81 -197 -81q-110 0 -181 67.5t-71 195.5q0 131 77.5 205t190.5 74q109 0 170 -41zM185 554l-28 36l192 200l88 -139z" />
    <glyph glyph-name="Ccircumflex" unicode="&#x108;" horiz-adv-x="638" 
d="M360 -13q-153 0 -236.5 90t-83.5 260q0 190 89 281t245 91q139 0 221 -51v-146h-124q-12 62 -33 89t-66 27t-71.5 -23t-41.5 -86t-15 -174q0 -88 9 -145.5t27 -86t38 -38.5t50 -10q56 0 79.5 28.5t33.5 94.5h119v-143q-33 -25 -99.5 -41.5t-140.5 -16.5zM525 732l-157 75
l-157 -75l-25 40l182 183l182 -183z" />
    <glyph glyph-name="ccircumflex" unicode="&#x109;" horiz-adv-x="503" 
d="M473 488v-117h-129q-1 51 -8 70t-32 19q-15 0 -29 -8t-29 -27t-24.5 -58t-9.5 -94q0 -101 38 -145.5t95 -44.5t112 28l27 -43q-68 -81 -197 -81q-110 0 -181 67.5t-71 195.5q0 131 77.5 205t190.5 74q109 0 170 -41zM445 552l-157 75l-157 -75l-25 40l182 183l182 -183z
" />
    <glyph glyph-name="Cdotaccent" unicode="&#x10a;" horiz-adv-x="638" 
d="M360 -13q-153 0 -236.5 90t-83.5 260q0 190 89 281t245 91q139 0 221 -51v-146h-124q-12 62 -33 89t-66 27t-71.5 -23t-41.5 -86t-15 -174q0 -88 9 -145.5t27 -86t38 -38.5t50 -10q56 0 79.5 28.5t33.5 94.5h119v-143q-33 -25 -99.5 -41.5t-140.5 -16.5zM464 836
q0 -38 -28 -65.5t-68 -27.5q-39 0 -67 27.5t-28 65.5q0 39 28.5 66.5t68.5 27.5t67 -27.5t27 -66.5z" />
    <glyph glyph-name="cdotaccent" unicode="&#x10b;" horiz-adv-x="503" 
d="M473 488v-117h-129q-1 51 -8 70t-32 19q-15 0 -29 -8t-29 -27t-24.5 -58t-9.5 -94q0 -101 38 -145.5t95 -44.5t112 28l27 -43q-68 -81 -197 -81q-110 0 -181 67.5t-71 195.5q0 131 77.5 205t190.5 74q109 0 170 -41zM393 656q0 -38 -28 -65.5t-68 -27.5q-39 0 -67 27.5
t-28 65.5q0 39 28.5 66.5t68.5 27.5t67 -27.5t27 -66.5z" />
    <glyph glyph-name="Ccaron" unicode="&#x10c;" horiz-adv-x="638" 
d="M360 -13q-153 0 -236.5 90t-83.5 260q0 190 89 281t245 91q139 0 221 -51v-146h-124q-12 62 -33 89t-66 27t-71.5 -23t-41.5 -86t-15 -174q0 -88 9 -145.5t27 -86t38 -38.5t50 -10q56 0 79.5 28.5t33.5 94.5h119v-143q-33 -25 -99.5 -41.5t-140.5 -16.5zM368 880l157 75
l25 -40l-182 -183l-182 183l25 40z" />
    <glyph glyph-name="ccaron" unicode="&#x10d;" horiz-adv-x="503" 
d="M473 488v-117h-129q-1 51 -8 70t-32 19q-15 0 -29 -8t-29 -27t-24.5 -58t-9.5 -94q0 -101 38 -145.5t95 -44.5t112 28l27 -43q-68 -81 -197 -81q-110 0 -181 67.5t-71 195.5q0 131 77.5 205t190.5 74q109 0 170 -41zM297 700l157 75l25 -40l-182 -183l-182 183l25 40z
" />
    <glyph glyph-name="Dcaron" unicode="&#x10e;" horiz-adv-x="700" 
d="M25 0v50q36 0 50 14t14 56v454q0 42 -14 56t-50 14v53h306q160 0 244.5 -83.5t84.5 -269.5q0 -173 -85.5 -258.5t-248.5 -85.5h-301zM272 74h33q61 0 93.5 19.5t49 77t16.5 168.5q0 114 -16 174.5t-48 82t-91 21.5h-37v-543zM334 880l157 75l25 -40l-182 -183l-182 183
l25 40z" />
    <glyph glyph-name="dcaron" unicode="&#x10f;" horiz-adv-x="630" 
d="M394 65q-18 -35 -60 -56.5t-97 -21.5q-95 0 -148.5 67t-53.5 201q0 142 65.5 208t172.5 66q81 0 112 -45v92q0 53 -11.5 68t-47.5 17v49l204 26h28v-582q0 -54 10 -68t47 -17v-46l-177 -36h-15q-25 30 -29 78zM223 266q0 -96 21.5 -134t63.5 -38q46 0 77 30v281
q-24 28 -71 28q-44 0 -67.5 -37t-23.5 -130zM732 728l-69 -172l-67 8l12 176z" />
    <glyph glyph-name="Dcroat" unicode="&#x110;" horiz-adv-x="700" 
d="M26 312v81h63v181q0 42 -14 56t-50 14v53h306q160 0 244.5 -83.5t84.5 -269.5q0 -173 -85.5 -258.5t-248.5 -85.5h-301v50q36 0 50 14t14 56v192h-63zM464 339q0 114 -16 174.5t-48 82t-91 21.5h-37v-224h111v-81h-111v-238h33q61 0 93.5 19.5t49 77t16.5 168.5z" />
    <glyph glyph-name="dcroat" unicode="&#x111;" horiz-adv-x="630" 
d="M222 614h163q0 29 -12 38t-47 9v49l204 26h28v-122h57v-47h-57v-413q0 -54 10 -68t47 -17v-46l-177 -36h-15q-25 30 -29 78q-18 -35 -60 -56.5t-97 -21.5q-95 0 -148.5 67t-53.5 201q0 142 65.5 208t172.5 66q81 0 112 -45v83h-163v47zM223 266q0 -96 21.5 -134t63.5 -38
q46 0 77 30v281q-24 28 -71 28q-44 0 -67.5 -37t-23.5 -130z" />
    <glyph glyph-name="Emacron" unicode="&#x112;" horiz-adv-x="605" 
d="M25 0v50q36 0 50 14t14 56v454q0 42 -14 56t-50 14v53h514l12 -177h-88q-18 61 -35.5 79t-71.5 18h-84v-230h48q46 0 62 14t19 57h77v-218h-77q-3 42 -19 56.5t-61 14.5h-49v-237h105q48 0 69.5 24t27.5 92h89v-190h-538zM465 775h-317v87h317v-87z" />
    <glyph glyph-name="emacron" unicode="&#x113;" horiz-adv-x="549" 
d="M351 85q68 0 133 31l26 -44q-82 -85 -222 -85q-121 0 -187 71t-66 201q0 127 68.5 198.5t185.5 71.5q122 0 176 -64t54 -186v-49h-297q3 -77 32 -111t97 -34zM291 460q-33 0 -48 -33t-20 -121h126q0 89 -12.5 121.5t-45.5 32.5zM440 605h-311v87h311v-87z" />
    <glyph glyph-name="Ebreve" unicode="&#x114;" horiz-adv-x="605" 
d="M25 0v50q36 0 50 14t14 56v454q0 42 -14 56t-50 14v53h514l12 -177h-88q-18 61 -35.5 79t-71.5 18h-84v-230h48q46 0 62 14t19 57h77v-218h-77q-3 42 -19 56.5t-61 14.5h-49v-237h105q48 0 69.5 24t27.5 92h89v-190h-538zM294 744q-73 0 -114 50t-58 124l40 22
q55 -83 132 -83t132 83l40 -22q-17 -74 -58 -124t-114 -50z" />
    <glyph glyph-name="ebreve" unicode="&#x115;" horiz-adv-x="549" 
d="M351 85q68 0 133 31l26 -44q-82 -85 -222 -85q-121 0 -187 71t-66 201q0 127 68.5 198.5t185.5 71.5q122 0 176 -64t54 -186v-49h-297q3 -77 32 -111t97 -34zM291 460q-33 0 -48 -33t-20 -121h126q0 89 -12.5 121.5t-45.5 32.5zM281 564q-73 0 -114 50t-58 124l40 22
q55 -83 132 -83t132 83l40 -22q-17 -74 -58 -124t-114 -50z" />
    <glyph glyph-name="Edotaccent" unicode="&#x116;" horiz-adv-x="605" 
d="M25 0v50q36 0 50 14t14 56v454q0 42 -14 56t-50 14v53h514l12 -177h-88q-18 61 -35.5 79t-71.5 18h-84v-230h48q46 0 62 14t19 57h77v-218h-77q-3 42 -19 56.5t-61 14.5h-49v-237h105q48 0 69.5 24t27.5 92h89v-190h-538zM402 836q0 -38 -28 -65.5t-68 -27.5
q-39 0 -67 27.5t-28 65.5q0 39 28.5 66.5t68.5 27.5t67 -27.5t27 -66.5z" />
    <glyph glyph-name="edotaccent" unicode="&#x117;" horiz-adv-x="549" 
d="M351 85q68 0 133 31l26 -44q-82 -85 -222 -85q-121 0 -187 71t-66 201q0 127 68.5 198.5t185.5 71.5q122 0 176 -64t54 -186v-49h-297q3 -77 32 -111t97 -34zM291 460q-33 0 -48 -33t-20 -121h126q0 89 -12.5 121.5t-45.5 32.5zM383 656q0 -38 -28 -65.5t-68 -27.5
q-39 0 -67 27.5t-28 65.5q0 39 28.5 66.5t68.5 27.5t67 -27.5t27 -66.5z" />
    <glyph glyph-name="Eogonek" unicode="&#x118;" horiz-adv-x="605" 
d="M428 -205q-54 0 -89.5 21.5t-35.5 69.5q0 38 26.5 63t84.5 51h-389v50q36 0 50 14t14 56v454q0 42 -14 56t-50 14v53h514l12 -177h-88q-18 61 -35.5 79t-71.5 18h-84v-230h48q46 0 62 14t19 57h77v-218h-77q-3 42 -19 56.5t-61 14.5h-49v-237h105q48 0 69.5 24t27.5 92
h89v-190l-22 -2q-44 -4 -71.5 -30t-27.5 -62q0 -25 13 -36.5t33 -11.5q26 0 54 17l16 -32q-47 -48 -130 -48z" />
    <glyph glyph-name="eogonek" unicode="&#x119;" horiz-adv-x="549" 
d="M461 -125l16 -32q-47 -48 -130 -48q-54 0 -89.5 21.5t-35.5 69.5q0 59 99 103q-20 -2 -33 -2q-121 0 -187 71t-66 201q0 127 68.5 198.5t185.5 71.5q122 0 176 -64t54 -186v-49h-297q3 -77 32 -111t97 -34t133 31l26 -44q-22 -23 -72 -60q-77 -57 -77 -106
q0 -25 13 -36.5t33 -11.5q26 0 54 17zM291 460q-33 0 -48 -33t-20 -121h126q0 89 -12.5 121.5t-45.5 32.5z" />
    <glyph glyph-name="Ecaron" unicode="&#x11a;" horiz-adv-x="605" 
d="M25 0v50q36 0 50 14t14 56v454q0 42 -14 56t-50 14v53h514l12 -177h-88q-18 61 -35.5 79t-71.5 18h-84v-230h48q46 0 62 14t19 57h77v-218h-77q-3 42 -19 56.5t-61 14.5h-49v-237h105q48 0 69.5 24t27.5 92h89v-190h-538zM306 880l157 75l25 -40l-182 -183l-182 183
l25 40z" />
    <glyph glyph-name="ecaron" unicode="&#x11b;" horiz-adv-x="549" 
d="M351 85q68 0 133 31l26 -44q-82 -85 -222 -85q-121 0 -187 71t-66 201q0 127 68.5 198.5t185.5 71.5q122 0 176 -64t54 -186v-49h-297q3 -77 32 -111t97 -34zM291 460q-33 0 -48 -33t-20 -121h126q0 89 -12.5 121.5t-45.5 32.5zM289 700l157 75l25 -40l-182 -183
l-182 183l25 40z" />
    <glyph glyph-name="Gcircumflex" unicode="&#x11c;" horiz-adv-x="717" 
d="M449 82v149q0 43 -15 56.5t-61 13.5v53h324v-53q-37 0 -51.5 -14t-14.5 -56v-173q-43 -35 -115 -53t-148 -18q-156 0 -242 90t-86 260q0 190 91 281t251 91q143 0 226 -51v-146h-127q-12 61 -33.5 88.5t-67.5 27.5q-70 0 -102.5 -61t-32.5 -222q0 -71 6.5 -122
t17.5 -81.5t28 -48t34.5 -23.5t41.5 -6q52 0 76 18zM551 732l-157 75l-157 -75l-25 40l182 183l182 -183z" />
    <glyph glyph-name="gcircumflex" unicode="&#x11d;" horiz-adv-x="559" 
d="M258 -202q-248 0 -248 103q0 23 14.5 42t37.5 28h124q-13 -23 -13 -46q0 -33 21.5 -46.5t71.5 -13.5q57 0 82 17t25 53q0 33 -26 46t-93 16q-106 5 -129 8q-78 10 -78 91q0 41 31.5 71t86.5 43q-65 13 -100.5 51t-35.5 98q0 82 61 126t165 44q34 0 115 -19q32 -7 50 -7
q52 0 110 56l59 -108q-44 -33 -87 -33q-35 0 -65 11q40 -25 40 -81q0 -151 -238 -151h-7q-24 -14 -24 -30q0 -21 24 -22l98 -6q104 -6 151.5 -40t47.5 -112q0 -189 -271 -189zM255 262q30 0 43.5 22.5t13.5 72.5q0 59 -13 81.5t-44 22.5q-29 0 -42.5 -23t-13.5 -78
q0 -98 56 -98zM422 552l-157 75l-157 -75l-25 40l182 183l182 -183z" />
    <glyph glyph-name="Gbreve" unicode="&#x11e;" horiz-adv-x="717" 
d="M449 82v149q0 43 -15 56.5t-61 13.5v53h324v-53q-37 0 -51.5 -14t-14.5 -56v-173q-43 -35 -115 -53t-148 -18q-156 0 -242 90t-86 260q0 190 91 281t251 91q143 0 226 -51v-146h-127q-12 61 -33.5 88.5t-67.5 27.5q-70 0 -102.5 -61t-32.5 -222q0 -71 6.5 -122
t17.5 -81.5t28 -48t34.5 -23.5t41.5 -6q52 0 76 18zM394 744q-73 0 -114 50t-58 124l40 22q55 -83 132 -83t132 83l40 -22q-17 -74 -58 -124t-114 -50z" />
    <glyph glyph-name="gbreve" unicode="&#x11f;" horiz-adv-x="559" 
d="M258 -202q-248 0 -248 103q0 23 14.5 42t37.5 28h124q-13 -23 -13 -46q0 -33 21.5 -46.5t71.5 -13.5q57 0 82 17t25 53q0 33 -26 46t-93 16q-106 5 -129 8q-78 10 -78 91q0 41 31.5 71t86.5 43q-65 13 -100.5 51t-35.5 98q0 82 61 126t165 44q34 0 115 -19q32 -7 50 -7
q52 0 110 56l59 -108q-44 -33 -87 -33q-35 0 -65 11q40 -25 40 -81q0 -151 -238 -151h-7q-24 -14 -24 -30q0 -21 24 -22l98 -6q104 -6 151.5 -40t47.5 -112q0 -189 -271 -189zM255 262q30 0 43.5 22.5t13.5 72.5q0 59 -13 81.5t-44 22.5q-29 0 -42.5 -23t-13.5 -78
q0 -98 56 -98zM265 564q-73 0 -114 50t-58 124l40 22q55 -83 132 -83t132 83l40 -22q-17 -74 -58 -124t-114 -50z" />
    <glyph glyph-name="Gdotaccent" unicode="&#x120;" horiz-adv-x="717" 
d="M449 82v149q0 43 -15 56.5t-61 13.5v53h324v-53q-37 0 -51.5 -14t-14.5 -56v-173q-43 -35 -115 -53t-148 -18q-156 0 -242 90t-86 260q0 190 91 281t251 91q143 0 226 -51v-146h-127q-12 61 -33.5 88.5t-67.5 27.5q-70 0 -102.5 -61t-32.5 -222q0 -71 6.5 -122
t17.5 -81.5t28 -48t34.5 -23.5t41.5 -6q52 0 76 18zM490 836q0 -38 -28 -65.5t-68 -27.5q-39 0 -67 27.5t-28 65.5q0 39 28.5 66.5t68.5 27.5t67 -27.5t27 -66.5z" />
    <glyph glyph-name="gdotaccent" unicode="&#x121;" horiz-adv-x="559" 
d="M258 -202q-248 0 -248 103q0 23 14.5 42t37.5 28h124q-13 -23 -13 -46q0 -33 21.5 -46.5t71.5 -13.5q57 0 82 17t25 53q0 33 -26 46t-93 16q-106 5 -129 8q-78 10 -78 91q0 41 31.5 71t86.5 43q-65 13 -100.5 51t-35.5 98q0 82 61 126t165 44q34 0 115 -19q32 -7 50 -7
q52 0 110 56l59 -108q-44 -33 -87 -33q-35 0 -65 11q40 -25 40 -81q0 -151 -238 -151h-7q-24 -14 -24 -30q0 -21 24 -22l98 -6q104 -6 151.5 -40t47.5 -112q0 -189 -271 -189zM255 262q30 0 43.5 22.5t13.5 72.5q0 59 -13 81.5t-44 22.5q-29 0 -42.5 -23t-13.5 -78
q0 -98 56 -98zM361 656q0 -38 -28 -65.5t-68 -27.5q-39 0 -67 27.5t-28 65.5q0 39 28.5 66.5t68.5 27.5t67 -27.5t27 -66.5z" />
    <glyph glyph-name="Gcommaaccent" unicode="&#x122;" horiz-adv-x="717" 
d="M449 82v149q0 43 -15 56.5t-61 13.5v53h324v-53q-37 0 -51.5 -14t-14.5 -56v-173q-43 -35 -115 -53t-148 -18q-156 0 -242 90t-86 260q0 190 91 281t251 91q143 0 226 -51v-146h-127q-12 61 -33.5 88.5t-67.5 27.5q-70 0 -102.5 -61t-32.5 -222q0 -71 6.5 -122
t17.5 -81.5t28 -48t34.5 -23.5t41.5 -6q52 0 76 18zM489 -143q0 -61 -45.5 -97t-116.5 -50l-28 38q43 13 59 24t16 29q0 16 -26 28q-40 16 -40 63q0 31 23 51.5t61 20.5q45 0 71 -29t26 -78z" />
    <glyph glyph-name="gcommaaccent" unicode="&#x123;" horiz-adv-x="559" 
d="M258 -202q-248 0 -248 103q0 23 14.5 42t37.5 28h124q-13 -23 -13 -46q0 -33 21.5 -46.5t71.5 -13.5q57 0 82 17t25 53q0 33 -26 46t-93 16q-106 5 -129 8q-78 10 -78 91q0 41 31.5 71t86.5 43q-65 13 -100.5 51t-35.5 98q0 82 61 126t165 44q34 0 115 -19q32 -7 50 -7
q52 0 110 56l59 -108q-44 -33 -87 -33q-35 0 -65 11q40 -25 40 -81q0 -151 -238 -151h-7q-24 -14 -24 -30q0 -21 24 -22l98 -6q104 -6 151.5 -40t47.5 -112q0 -189 -271 -189zM255 262q30 0 43.5 22.5t13.5 72.5q0 59 -13 81.5t-44 22.5q-29 0 -42.5 -23t-13.5 -78
q0 -98 56 -98zM170 678q0 61 45.5 97t116.5 50l28 -38q-43 -13 -59 -24t-16 -29q0 -16 26 -28q40 -16 40 -63q0 -31 -23.5 -51.5t-60.5 -20.5q-45 0 -71 29t-26 78z" />
    <glyph glyph-name="Hcircumflex" unicode="&#x124;" horiz-adv-x="762" 
d="M490 120v190h-218v-190q0 -42 14 -56t50 -14v-50h-311v50q36 0 50 14t14 56v454q0 42 -14 56t-50 14v53h311v-53q-36 0 -50 -14t-14 -56v-179h218v179q0 42 -14 56t-50 14v53h311v-53q-36 0 -50 -14t-14 -56v-454q0 -42 14 -56t50 -14v-50h-311v50q36 0 50 14t14 56z
M538 732l-157 75l-157 -75l-25 40l182 183l182 -183z" />
    <glyph glyph-name="hcircumflex" unicode="&#x125;" horiz-adv-x="635" 
d="M247 636v-192q75 85 172 85q66 0 107.5 -40t41.5 -119v-250q0 -43 11 -56.5t46 -13.5v-50h-287v50q35 0 46 13.5t11 56.5v208q0 81 -63 81q-40 0 -85 -27v-262q0 -43 11 -56.5t46 -13.5v-50h-287v50q35 0 46 13.5t11 56.5v456q0 53 -11.5 68t-47.5 17v49l196 26h15
q21 -29 21 -100zM477 760l-157 75l-157 -75l-25 40l182 183l182 -183z" />
    <glyph glyph-name="Hbar" unicode="&#x126;" horiz-adv-x="762" 
d="M25 482v71h64v21q0 42 -14 56t-50 14v53h311v-53q-36 0 -50 -14t-14 -56v-21h218v21q0 42 -14 56t-50 14v53h311v-53q-36 0 -50 -14t-14 -56v-21h64v-71h-64v-362q0 -42 14 -56t50 -14v-50h-311v50q36 0 50 14t14 56v190h-218v-190q0 -42 14 -56t50 -14v-50h-311v50
q36 0 50 14t14 56v362h-64zM272 395h218v87h-218v-87z" />
    <glyph glyph-name="hbar" unicode="&#x127;" horiz-adv-x="635" 
d="M247 636v-22h161v-47h-161v-123q75 85 172 85q66 0 107.5 -40t41.5 -119v-250q0 -43 11 -56.5t46 -13.5v-50h-287v50q35 0 46 13.5t11 56.5v208q0 81 -63 81q-40 0 -85 -27v-262q0 -43 11 -56.5t46 -13.5v-50h-287v50q35 0 46 13.5t11 56.5v447h-59v47h59q0 30 -12 38.5
t-47 8.5v49l196 26h15q21 -26 21 -100z" />
    <glyph glyph-name="Itilde" unicode="&#x128;" horiz-adv-x="361" 
d="M89 120v454q0 42 -14 56t-50 14v53h311v-53q-36 0 -50 -14t-14 -56v-454q0 -42 14 -56t50 -14v-50h-311v50q36 0 50 14t14 56zM251 873q53 0 75 47l38 -17q-14 -62 -46 -102.5t-73 -40.5q-31 0 -75 16t-64 16q-48 0 -73 -49l-36 16q8 61 40 105t75 44q30 0 72.5 -17.5
t66.5 -17.5z" />
    <glyph glyph-name="itilde" unicode="&#x129;" horiz-adv-x="327" 
d="M312 0h-287v50q35 0 46 13.5t11 56.5v235q0 54 -10 68.5t-45 16.5v49l203 33h25v-402q0 -43 11 -56.5t46 -13.5v-50zM239 693q53 0 75 47l38 -17q-14 -62 -46 -102.5t-73 -40.5q-31 0 -75 16t-64 16q-48 0 -73 -49l-36 16q8 61 40 105t75 44q30 0 72.5 -17.5t66.5 -17.5z
" />
    <glyph glyph-name="Imacron" unicode="&#x12a;" horiz-adv-x="361" 
d="M89 120v454q0 42 -14 56t-50 14v53h311v-53q-36 0 -50 -14t-14 -56v-454q0 -42 14 -56t50 -14v-50h-311v50q36 0 50 14t14 56zM339 775h-317v87h317v-87z" />
    <glyph glyph-name="imacron" unicode="&#x12b;" horiz-adv-x="327" 
d="M312 0h-287v50q35 0 46 13.5t11 56.5v235q0 54 -10 68.5t-45 16.5v49l203 33h25v-402q0 -43 11 -56.5t46 -13.5v-50zM288 605h-261v87h261v-87z" />
    <glyph glyph-name="Ibreve" unicode="&#x12c;" horiz-adv-x="361" 
d="M89 120v454q0 42 -14 56t-50 14v53h311v-53q-36 0 -50 -14t-14 -56v-454q0 -42 14 -56t50 -14v-50h-311v50q36 0 50 14t14 56zM180 744q-73 0 -114 50t-58 124l40 22q55 -83 132 -83t132 83l40 -22q-17 -74 -58 -124t-114 -50z" />
    <glyph glyph-name="ibreve" unicode="&#x12d;" horiz-adv-x="327" 
d="M312 0h-287v50q35 0 46 13.5t11 56.5v235q0 54 -10 68.5t-45 16.5v49l203 33h25v-402q0 -43 11 -56.5t46 -13.5v-50zM168 564q-73 0 -114 50t-58 124l40 22q55 -83 132 -83t132 83l40 -22q-17 -74 -58 -124t-114 -50z" />
    <glyph glyph-name="Iogonek" unicode="&#x12e;" horiz-adv-x="361" 
d="M316 -125l16 -32q-47 -48 -130 -48q-54 0 -89.5 21.5t-35.5 69.5q0 39 24.5 64t81.5 50h-158v50q36 0 50 14t14 56v454q0 42 -14 56t-50 14v53h311v-53q-36 0 -50 -14t-14 -56v-454q0 -42 14 -56t50 -14v-50h-24q-39 0 -67.5 -29t-28.5 -65q0 -25 13 -36.5t33 -11.5
q26 0 54 17z" />
    <glyph glyph-name="iogonek" unicode="&#x12f;" horiz-adv-x="327" 
d="M303 -125l16 -32q-47 -48 -130 -48q-54 0 -89.5 21.5t-35.5 69.5q0 39 24.5 64t81.5 50h-145v50q35 0 46 13.5t11 56.5v235q0 54 -10 68.5t-45 16.5v49l203 33h25v-402q0 -43 11 -56.5t46 -13.5v-50q-48 -4 -78.5 -33.5t-30.5 -60.5q0 -25 13 -36.5t33 -11.5q26 0 54 17z
M263 652q0 -41 -29.5 -69.5t-71.5 -28.5q-41 0 -70 29t-29 69t30 69t72 29q41 0 69.5 -28.5t28.5 -69.5z" />
    <glyph glyph-name="Idotaccent" unicode="&#x130;" horiz-adv-x="361" 
d="M89 120v454q0 42 -14 56t-50 14v53h311v-53q-36 0 -50 -14t-14 -56v-454q0 -42 14 -56t50 -14v-50h-311v50q36 0 50 14t14 56zM276 836q0 -38 -28 -65.5t-68 -27.5q-39 0 -67 27.5t-28 65.5q0 39 28.5 66.5t68.5 27.5t67 -27.5t27 -66.5z" />
    <glyph glyph-name="dotlessi" unicode="&#x131;" horiz-adv-x="327" 
d="M312 0h-287v50q35 0 46 13.5t11 56.5v235q0 54 -10 68.5t-45 16.5v49l203 33h25v-402q0 -43 11 -56.5t46 -13.5v-50z" />
    <glyph glyph-name="IJ" unicode="&#x132;" horiz-adv-x="722" 
d="M89 120v454q0 42 -14 56t-50 14v53h311v-53q-36 0 -50 -14t-14 -56v-454q0 -42 14 -56t50 -14v-50h-311v50q36 0 50 14t14 56zM450 100v474q0 42 -14 56t-50 14v53h311v-53q-36 0 -50 -14t-14 -56v-467q0 -117 -70 -175.5t-207 -78.5l-26 49q76 35 98 73.5t22 124.5z" />
    <glyph glyph-name="ij" unicode="&#x133;" horiz-adv-x="648" 
d="M312 0h-287v50q35 0 46 13.5t11 56.5v235q0 54 -10 68.5t-45 16.5v49l203 33h25v-402q0 -43 11 -56.5t46 -13.5v-50zM263 652q0 -41 -29.5 -69.5t-71.5 -28.5q-41 0 -70 29t-29 69t30 69t72 29q41 0 69.5 -28.5t28.5 -69.5zM407 18v337q0 54 -10 68.5t-45 16.5v49l203 33
h25v-504q0 -53 -21 -95t-56 -67.5t-71.5 -40.5t-75.5 -21l-29 46q45 21 62.5 60.5t17.5 117.5zM588 652q0 -41 -29.5 -69.5t-71.5 -28.5q-41 0 -70 29t-29 69t30 69t72 29q41 0 69.5 -28.5t28.5 -69.5z" />
    <glyph glyph-name="Jcircumflex" unicode="&#x134;" horiz-adv-x="361" 
d="M89 100v474q0 42 -14 56t-50 14v53h311v-53q-36 0 -50 -14t-14 -56v-467q0 -117 -70 -175.5t-207 -78.5l-26 49q76 35 98 73.5t22 124.5zM335 732l-157 75l-157 -75l-25 40l182 183l182 -183z" />
    <glyph glyph-name="jcircumflex" unicode="&#x135;" horiz-adv-x="321" 
d="M80 18v337q0 54 -10 68.5t-45 16.5v49l203 33h25v-504q0 -53 -21 -95t-56 -67.5t-71.5 -40.5t-75.5 -21l-29 46q45 21 62.5 60.5t17.5 117.5zM319 552l-157 75l-157 -75l-25 40l182 183l182 -183z" />
    <glyph glyph-name="Kcommaaccent" unicode="&#x136;" horiz-adv-x="711" 
d="M89 120v454q0 42 -14 56t-50 14v53h311v-53q-36 0 -50 -14t-14 -56v-454q0 -42 14 -56t50 -14v-50h-311v50q36 0 50 14t14 56zM583 588l-137 -175l169 -314q15 -28 32 -37.5t49 -11.5v-50h-230l-178 340l192 259q8 11 8 21q0 26 -38 26v51h229v-51q-56 -7 -96 -58z
M455 -143q0 -61 -45.5 -97t-116.5 -50l-28 38q43 13 59 24t16 29q0 16 -26 28q-40 16 -40 63q0 31 23 51.5t61 20.5q45 0 71 -29t26 -78z" />
    <glyph glyph-name="kcommaaccent" unicode="&#x137;" horiz-adv-x="612" 
d="M17 0v50q35 0 46 13.5t11 56.5v456q0 53 -11.5 68t-47.5 17v49l196 26h15q21 -26 21 -100v-516q0 -43 11 -56.5t46 -13.5v-50h-287zM398 0l-143 259l125 142q23 26 13.5 45t-45.5 19v51h245v-51q-30 -4 -52 -16t-47 -40l-88 -95l126 -212q13 -22 26.5 -33t23.5 -14t30 -5
v-50h-214zM408 -143q0 -61 -45.5 -97t-116.5 -50l-28 38q43 13 59 24t16 29q0 16 -26 28q-40 16 -40 63q0 31 23.5 51.5t60.5 20.5q45 0 71 -29t26 -78z" />
    <glyph glyph-name="kgreenlandic" unicode="&#x138;" horiz-adv-x="622" 
d="M504 409l-88 -95l126 -212q13 -22 26.5 -33t23.5 -14t30 -5v-50h-214l-143 259l125 142q16 17 16 34q0 30 -48 30v51h245v-51q-30 -4 -52 -16t-47 -40zM312 0h-287v50q35 0 46 13.5t11 56.5v235q0 54 -10 68.5t-45 16.5v49l203 33h25v-402q0 -43 11 -56.5t46 -13.5v-50z
" />
    <glyph glyph-name="Lacute" unicode="&#x139;" horiz-adv-x="570" 
d="M272 574v-500h72q49 0 77 28.5t41 99.5h91l-14 -202h-514v50q36 0 50 14t14 56v454q0 42 -14 56t-50 14v53h311v-53q-36 0 -50 -14t-14 -56zM82 727l-25 39l211 180l74 -146z" />
    <glyph glyph-name="lacute" unicode="&#x13a;" horiz-adv-x="319" 
d="M247 636v-516q0 -43 11 -56.5t46 -13.5v-50h-287v50q35 0 46 13.5t11 56.5v456q0 53 -11.5 68t-47.5 17v49l196 26h15q21 -26 21 -100zM47 737l-25 39l211 180l74 -146z" />
    <glyph glyph-name="Lcommaaccent" unicode="&#x13b;" horiz-adv-x="570" 
d="M272 574v-500h72q49 0 77 28.5t41 99.5h91l-14 -202h-514v50q36 0 50 14t14 56v454q0 42 -14 56t-50 14v53h311v-53q-36 0 -50 -14t-14 -56zM384 -143q0 -61 -45.5 -97t-116.5 -50l-28 38q43 13 59 24t16 29q0 16 -26 28q-40 16 -40 63q0 31 23.5 51.5t60.5 20.5
q45 0 71 -29t26 -78z" />
    <glyph glyph-name="lcommaaccent" unicode="&#x13c;" horiz-adv-x="319" 
d="M247 636v-516q0 -43 11 -56.5t46 -13.5v-50h-287v50q35 0 46 13.5t11 56.5v456q0 53 -11.5 68t-47.5 17v49l196 26h15q21 -26 21 -100zM254 -143q0 -61 -45.5 -97t-116.5 -50l-28 38q43 13 59 24t16 29q0 16 -26 28q-40 16 -40 63q0 31 23.5 51.5t60.5 20.5q45 0 71 -29
t26 -78z" />
    <glyph glyph-name="Lcaron" unicode="&#x13d;" horiz-adv-x="570" 
d="M272 574v-500h72q49 0 77 28.5t41 99.5h91l-14 -202h-514v50q36 0 50 14t14 56v454q0 42 -14 56t-50 14v53h311v-53q-36 0 -50 -14t-14 -56zM531 728l-69 -172l-67 8l12 176z" />
    <glyph glyph-name="lcaron" unicode="&#x13e;" horiz-adv-x="319" 
d="M247 636v-516q0 -43 11 -56.5t46 -13.5v-50h-287v50q35 0 46 13.5t11 56.5v456q0 53 -11.5 68t-47.5 17v49l196 26h15q21 -26 21 -100zM419 728l-69 -172l-67 8l12 176z" />
    <glyph glyph-name="Ldot" unicode="&#x13f;" horiz-adv-x="570" 
d="M272 574v-500h72q49 0 77 28.5t41 99.5h91l-14 -202h-514v50q36 0 50 14t14 56v454q0 42 -14 56t-50 14v53h311v-53q-36 0 -50 -14t-14 -56zM570 383q0 -42 -29.5 -71t-70.5 -29t-69.5 29t-28.5 71q0 40 29 68.5t69 28.5q41 0 70.5 -28.5t29.5 -68.5z" />
    <glyph glyph-name="ldot" unicode="&#x140;" horiz-adv-x="471" 
d="M247 636v-516q0 -43 11 -56.5t46 -13.5v-50h-287v50q35 0 46 13.5t11 56.5v456q0 53 -11.5 68t-47.5 17v49l196 26h15q21 -26 21 -100zM488 359q0 -40 -28.5 -68t-68.5 -28q-39 0 -67 28t-28 68q0 38 28 66.5t67 28.5q40 0 68.5 -28.5t28.5 -66.5z" />
    <glyph glyph-name="Lslash" unicode="&#x141;" horiz-adv-x="570" 
d="M272 574v-194l188 68v-63l-188 -68v-243h72q49 0 77 28.5t41 99.5h91l-14 -202h-514v50q36 0 50 14t14 56v132l-64 -23v62l64 23v260q0 42 -14 56t-50 14v53h311v-53q-36 0 -50 -14t-14 -56z" />
    <glyph glyph-name="lslash" unicode="&#x142;" horiz-adv-x="336" 
d="M15 347l69 29v200q0 53 -11.5 68t-47.5 17v49l196 26h15q21 -26 21 -100v-185l74 32v-61l-74 -32v-270q0 -43 11 -56.5t46 -13.5v-50h-287v50q35 0 46 13.5t11 56.5v196l-69 -29v60z" />
    <glyph glyph-name="Nacute" unicode="&#x143;" horiz-adv-x="712" 
d="M541 401v173q0 42 -14 56t-50 14v53h220v-53q-36 0 -50 -14t-14 -56v-574h-130l-242 368q-37 56 -83 140h-3q8 -84 8 -140v-248q0 -42 14 -56t50 -14v-50h-222v50q36 0 50 14t14 56v454q0 42 -14 56t-50 14v53h260l194 -296q36 -55 66 -125h4q-8 80 -8 125zM249 727
l-25 39l211 180l74 -146z" />
    <glyph glyph-name="nacute" unicode="&#x144;" horiz-adv-x="643" 
d="M576 370v-250q0 -43 11 -56.5t46 -13.5v-50h-287v50q35 0 46 13.5t11 56.5v208q0 81 -63 81q-40 0 -85 -27v-262q0 -43 11 -56.5t46 -13.5v-50h-287v50q35 0 46 13.5t11 56.5v235q0 54 -10 68.5t-45 16.5v49l176 40h15q8 -10 19 -37t14 -54q78 91 176 91q66 0 107.5 -40
t41.5 -119zM217 554l-28 36l192 200l88 -139z" />
    <glyph glyph-name="Ncommaaccent" unicode="&#x145;" horiz-adv-x="712" 
d="M541 401v173q0 42 -14 56t-50 14v53h220v-53q-36 0 -50 -14t-14 -56v-574h-130l-242 368q-37 56 -83 140h-3q8 -84 8 -140v-248q0 -42 14 -56t50 -14v-50h-222v50q36 0 50 14t14 56v454q0 42 -14 56t-50 14v53h260l194 -296q36 -55 66 -125h4q-8 80 -8 125zM456 -143
q0 -61 -45.5 -97t-116.5 -50l-28 38q43 13 59 24t16 29q0 16 -26 28q-40 16 -40 63q0 31 23.5 51.5t60.5 20.5q45 0 71 -29t26 -78z" />
    <glyph glyph-name="ncommaaccent" unicode="&#x146;" horiz-adv-x="643" 
d="M576 370v-250q0 -43 11 -56.5t46 -13.5v-50h-287v50q35 0 46 13.5t11 56.5v208q0 81 -63 81q-40 0 -85 -27v-262q0 -43 11 -56.5t46 -13.5v-50h-287v50q35 0 46 13.5t11 56.5v235q0 54 -10 68.5t-45 16.5v49l176 40h15q8 -10 19 -37t14 -54q78 91 176 91q66 0 107.5 -40
t41.5 -119zM424 -143q0 -61 -45.5 -97t-116.5 -50l-28 38q43 13 59 24t16 29q0 16 -26 28q-40 16 -40 63q0 31 23.5 51.5t60.5 20.5q45 0 71 -29t26 -78z" />
    <glyph glyph-name="Ncaron" unicode="&#x147;" horiz-adv-x="712" 
d="M541 401v173q0 42 -14 56t-50 14v53h220v-53q-36 0 -50 -14t-14 -56v-574h-130l-242 368q-37 56 -83 140h-3q8 -84 8 -140v-248q0 -42 14 -56t50 -14v-50h-222v50q36 0 50 14t14 56v454q0 42 -14 56t-50 14v53h260l194 -296q36 -55 66 -125h4q-8 80 -8 125zM361 880
l157 75l25 -40l-182 -183l-182 183l25 40z" />
    <glyph glyph-name="ncaron" unicode="&#x148;" horiz-adv-x="643" 
d="M576 370v-250q0 -43 11 -56.5t46 -13.5v-50h-287v50q35 0 46 13.5t11 56.5v208q0 81 -63 81q-40 0 -85 -27v-262q0 -43 11 -56.5t46 -13.5v-50h-287v50q35 0 46 13.5t11 56.5v235q0 54 -10 68.5t-45 16.5v49l176 40h15q8 -10 19 -37t14 -54q78 91 176 91q66 0 107.5 -40
t41.5 -119zM329 700l157 75l25 -40l-182 -183l-182 183l25 40z" />
    <glyph glyph-name="napostrophe" unicode="&#x149;" horiz-adv-x="643" 
d="M33 606q0 -61 -45.5 -97t-116.5 -50l-28 38q43 13 59 24t16 29q0 16 -26 28q-40 16 -40 63q0 31 23 51.5t61 20.5q45 0 71 -29t26 -78zM576 370v-250q0 -43 11 -56.5t46 -13.5v-50h-287v50q35 0 46 13.5t11 56.5v208q0 81 -63 81q-40 0 -85 -27v-262q0 -43 11 -56.5
t46 -13.5v-50h-287v50q35 0 46 13.5t11 56.5v235q0 54 -10 68.5t-45 16.5v49l176 40h15q8 -10 19 -37t14 -54q78 91 176 91q66 0 107.5 -40t41.5 -119z" />
    <glyph glyph-name="Eng" unicode="&#x14a;" horiz-adv-x="712" 
d="M495 15l-234 353q-46 71 -83 140h-3q8 -72 8 -140v-248q0 -42 14 -56t50 -14v-50h-222v50q36 0 50 14t14 56v454q0 42 -14 56t-50 14v53h260l194 -296q31 -48 66 -125h4q-8 60 -8 125v173q0 42 -14 56t-50 14v53h220v-53q-36 0 -50 -14t-14 -56v-499q0 -120 -54.5 -182
t-174.5 -82l-29 45q119 50 120 159z" />
    <glyph glyph-name="eng" unicode="&#x14b;" horiz-adv-x="633" 
d="M403 18v310q0 81 -63 81q-40 0 -85 -27v-262q0 -43 11 -56.5t46 -13.5v-50h-287v50q35 0 46 13.5t11 56.5v235q0 54 -10 68.5t-45 16.5v49l176 40h15q8 -10 19 -37t14 -54q78 91 176 91q66 0 107.5 -40t41.5 -119v-352q0 -53 -21 -95t-56 -67.5t-71.5 -40.5t-75.5 -21
l-29 46q45 21 62.5 60.5t17.5 117.5z" />
    <glyph glyph-name="Omacron" unicode="&#x14c;" horiz-adv-x="720" 
d="M360 -12q-153 0 -236.5 89.5t-83.5 259.5q0 189 87 280.5t233 91.5t233 -91.5t87 -280.5q0 -170 -83.5 -259.5t-236.5 -89.5zM360 628q-62 0 -89 -60t-27 -223q0 -116 15 -180.5t38.5 -84t62.5 -19.5t62.5 19.5t38.5 84.5t15 183q0 110 -13.5 172t-37.5 85t-65 23z
M519 775h-317v87h317v-87z" />
    <glyph glyph-name="omacron" unicode="&#x14d;" horiz-adv-x="598" 
d="M563 271q0 -98 -38.5 -163.5t-97 -93t-132.5 -27.5q-125 0 -192.5 70t-67.5 199q0 123 72.5 198t198.5 75q116 0 186.5 -63t70.5 -195zM373 278q0 102 -17.5 141.5t-56.5 39.5q-38 0 -56 -44t-18 -166q0 -107 15.5 -151t60.5 -44q37 0 54.5 51.5t17.5 172.5zM455 605
h-311v87h311v-87z" />
    <glyph glyph-name="Obreve" unicode="&#x14e;" horiz-adv-x="720" 
d="M360 -12q-153 0 -236.5 89.5t-83.5 259.5q0 189 87 280.5t233 91.5t233 -91.5t87 -280.5q0 -170 -83.5 -259.5t-236.5 -89.5zM360 628q-62 0 -89 -60t-27 -223q0 -116 15 -180.5t38.5 -84t62.5 -19.5t62.5 19.5t38.5 84.5t15 183q0 110 -13.5 172t-37.5 85t-65 23z
M360 744q-73 0 -114 50t-58 124l40 22q55 -83 132 -83t132 83l40 -22q-17 -74 -58 -124t-114 -50z" />
    <glyph glyph-name="obreve" unicode="&#x14f;" horiz-adv-x="598" 
d="M563 271q0 -98 -38.5 -163.5t-97 -93t-132.5 -27.5q-125 0 -192.5 70t-67.5 199q0 123 72.5 198t198.5 75q116 0 186.5 -63t70.5 -195zM373 278q0 102 -17.5 141.5t-56.5 39.5q-38 0 -56 -44t-18 -166q0 -107 15.5 -151t60.5 -44q37 0 54.5 51.5t17.5 172.5zM299 564
q-73 0 -114 50t-58 124l40 22q55 -83 132 -83t132 83l40 -22q-17 -74 -58 -124t-114 -50z" />
    <glyph glyph-name="Ohungarumlaut" unicode="&#x150;" horiz-adv-x="720" 
d="M360 -12q-153 0 -236.5 89.5t-83.5 259.5q0 189 87 280.5t233 91.5t233 -91.5t87 -280.5q0 -170 -83.5 -259.5t-236.5 -89.5zM360 628q-62 0 -89 -60t-27 -223q0 -116 15 -180.5t38.5 -84t62.5 -19.5t62.5 19.5t38.5 84.5t15 183q0 110 -13.5 172t-37.5 85t-65 23z
M440 940l-141 -200l-52 21l60 228zM618 906l-161 -176l-46 26l82 224z" />
    <glyph glyph-name="ohungarumlaut" unicode="&#x151;" horiz-adv-x="598" 
d="M563 271q0 -98 -38.5 -163.5t-97 -93t-132.5 -27.5q-125 0 -192.5 70t-67.5 199q0 123 72.5 198t198.5 75q116 0 186.5 -63t70.5 -195zM373 278q0 102 -17.5 141.5t-56.5 39.5q-38 0 -56 -44t-18 -166q0 -107 15.5 -151t60.5 -44q37 0 54.5 51.5t17.5 172.5zM379 760
l-141 -200l-52 21l60 228zM557 726l-161 -176l-46 26l82 224z" />
    <glyph glyph-name="OE" unicode="&#x152;" horiz-adv-x="1003" 
d="M429 74h58v543h-62q-45 0 -77 -11.5t-59 -41t-40 -85.5t-13 -140q0 -82 13.5 -135.5t40.5 -81t59.5 -38t79.5 -10.5zM403 697h534l12 -177h-88q-18 61 -35.5 79t-71.5 18h-84v-230h48q46 0 62 14t19 57h77v-218h-77q-3 42 -19 56.5t-61 14.5h-49v-237h105q48 0 69.5 24
t27.5 92h89v-190h-553q-168 0 -268 87.5t-100 256.5q0 94 27.5 163.5t78 110t114.5 60t143 19.5z" />
    <glyph glyph-name="oe" unicode="&#x153;" horiz-adv-x="889" 
d="M691 85q68 0 133 31l26 -44q-82 -85 -222 -85q-51 0 -96.5 16.5t-68.5 43.5q-61 -60 -168 -60q-125 0 -192.5 70t-67.5 199q0 123 72.5 198t198.5 75q104 0 166 -60q58 60 157 60q122 0 176 -64t54 -186v-49h-297q3 -77 32 -111t97 -34zM373 278q0 102 -17.5 141.5
t-56.5 39.5q-38 0 -56 -44t-18 -166q0 -107 15.5 -151t60.5 -44q37 0 54.5 51.5t17.5 172.5zM631 460q-33 0 -48 -33t-20 -121h126q0 89 -12.5 121.5t-45.5 32.5z" />
    <glyph glyph-name="Racute" unicode="&#x154;" horiz-adv-x="684" 
d="M430 306v-4q77 -21 113 -73q28 -42 65 -121q10 -23 16 -32.5t19.5 -17t35.5 -8.5v-50h-225q-47 119 -84 193q-25 48 -43.5 64t-54.5 21v-158q0 -42 14 -56t50 -14v-50h-311v50q36 0 50 14t14 56v454q0 42 -14 56t-50 14v53h347q113 0 179 -50t66 -156q0 -89 -51 -133.5
t-136 -51.5zM422 491q0 68 -22.5 97t-73.5 29h-54v-255h54q54 0 75 26t21 103zM240 727l-25 39l211 180l74 -146z" />
    <glyph glyph-name="racute" unicode="&#x155;" horiz-adv-x="432" 
d="M254 396q14 65 57 99t90 34q22 0 41 -7l-31 -173q-33 9 -65 9q-54 0 -72.5 -19t-18.5 -72v-147q0 -43 14.5 -56.5t62.5 -13.5v-50h-307v50q35 0 46 13.5t11 56.5v235q0 54 -10 68.5t-45 16.5v49l176 40h15q5 -8 12 -23t15 -46.5t9 -63.5zM144 554l-28 36l192 200l88 -139
z" />
    <glyph glyph-name="Rcommaaccent" unicode="&#x156;" horiz-adv-x="684" 
d="M430 306v-4q77 -21 113 -73q28 -42 65 -121q10 -23 16 -32.5t19.5 -17t35.5 -8.5v-50h-225q-47 119 -84 193q-25 48 -43.5 64t-54.5 21v-158q0 -42 14 -56t50 -14v-50h-311v50q36 0 50 14t14 56v454q0 42 -14 56t-50 14v53h347q113 0 179 -50t66 -156q0 -89 -51 -133.5
t-136 -51.5zM422 491q0 68 -22.5 97t-73.5 29h-54v-255h54q54 0 75 26t21 103zM447 -143q0 -61 -45.5 -97t-116.5 -50l-28 38q43 13 59 24t16 29q0 16 -26 28q-40 16 -40 63q0 31 23 51.5t61 20.5q45 0 71 -29t26 -78z" />
    <glyph glyph-name="rcommaaccent" unicode="&#x157;" horiz-adv-x="432" 
d="M254 396q14 65 57 99t90 34q22 0 41 -7l-31 -173q-33 9 -65 9q-54 0 -72.5 -19t-18.5 -72v-147q0 -43 14.5 -56.5t62.5 -13.5v-50h-307v50q35 0 46 13.5t11 56.5v235q0 54 -10 68.5t-45 16.5v49l176 40h15q5 -8 12 -23t15 -46.5t9 -63.5zM259 -143q0 -61 -45.5 -97
t-116.5 -50l-28 38q43 13 59 24t16 29q0 16 -26 28q-40 16 -40 63q0 31 23 51.5t61 20.5q45 0 71 -29t26 -78z" />
    <glyph glyph-name="Rcaron" unicode="&#x158;" horiz-adv-x="684" 
d="M430 306v-4q77 -21 113 -73q28 -42 65 -121q10 -23 16 -32.5t19.5 -17t35.5 -8.5v-50h-225q-47 119 -84 193q-25 48 -43.5 64t-54.5 21v-158q0 -42 14 -56t50 -14v-50h-311v50q36 0 50 14t14 56v454q0 42 -14 56t-50 14v53h347q113 0 179 -50t66 -156q0 -89 -51 -133.5
t-136 -51.5zM422 491q0 68 -22.5 97t-73.5 29h-54v-255h54q54 0 75 26t21 103zM320 880l157 75l25 -40l-182 -183l-182 183l25 40z" />
    <glyph glyph-name="rcaron" unicode="&#x159;" horiz-adv-x="432" 
d="M254 396q14 65 57 99t90 34q22 0 41 -7l-31 -173q-33 9 -65 9q-54 0 -72.5 -19t-18.5 -72v-147q0 -43 14.5 -56.5t62.5 -13.5v-50h-307v50q35 0 46 13.5t11 56.5v235q0 54 -10 68.5t-45 16.5v49l176 40h15q5 -8 12 -23t15 -46.5t9 -63.5zM256 700l157 75l25 -40
l-182 -183l-182 183l25 40z" />
    <glyph glyph-name="Sacute" unicode="&#x15a;" horiz-adv-x="556" 
d="M254 -14q-131 0 -229 57v137h119q12 -130 116 -130q106 0 106 103q0 41 -21.5 66t-75.5 39l-72 19q-86 22 -128.5 69.5t-42.5 138.5q0 111 66.5 167.5t182.5 56.5q117 0 213 -48v-150h-118q-7 63 -30.5 95.5t-76.5 32.5q-86 0 -86 -88q0 -36 19 -60t67 -35l68 -16
q195 -47 195 -225q0 -111 -70.5 -170t-201.5 -59zM171 727l-25 39l211 180l74 -146z" />
    <glyph glyph-name="sacute" unicode="&#x15b;" horiz-adv-x="482" 
d="M225 -13q-109 0 -195 43v113h112q10 -88 96 -88q75 0 75 53q0 26 -15 40t-48 21l-85 18q-134 28 -134 162q0 87 60 133.5t152 46.5q98 0 182 -36v-113h-104q-9 76 -92 76q-64 0 -64 -51q0 -39 50 -50l79 -17q163 -37 163 -179q0 -84 -60 -128t-172 -44zM139 554l-28 36
l192 200l88 -139z" />
    <glyph glyph-name="Scircumflex" unicode="&#x15c;" horiz-adv-x="556" 
d="M254 -14q-131 0 -229 57v137h119q12 -130 116 -130q106 0 106 103q0 41 -21.5 66t-75.5 39l-72 19q-86 22 -128.5 69.5t-42.5 138.5q0 111 66.5 167.5t182.5 56.5q117 0 213 -48v-150h-118q-7 63 -30.5 95.5t-76.5 32.5q-86 0 -86 -88q0 -36 19 -60t67 -35l68 -16
q195 -47 195 -225q0 -111 -70.5 -170t-201.5 -59zM440 732l-157 75l-157 -75l-25 40l182 183l182 -183z" />
    <glyph glyph-name="scircumflex" unicode="&#x15d;" horiz-adv-x="482" 
d="M225 -13q-109 0 -195 43v113h112q10 -88 96 -88q75 0 75 53q0 26 -15 40t-48 21l-85 18q-134 28 -134 162q0 87 60 133.5t152 46.5q98 0 182 -36v-113h-104q-9 76 -92 76q-64 0 -64 -51q0 -39 50 -50l79 -17q163 -37 163 -179q0 -84 -60 -128t-172 -44zM408 552l-157 75
l-157 -75l-25 40l182 183l182 -183z" />
    <glyph glyph-name="Scedilla" unicode="&#x15e;" horiz-adv-x="556" 
d="M379 -121q0 -45 -31.5 -65t-94.5 -20q-69 0 -106 25l17 42q30 -19 68 -19q34 0 34 25q0 29 -55 31l1 21l19 68q-115 3 -206 56v137h119q12 -130 116 -130q106 0 106 103q0 41 -21.5 66t-75.5 39l-72 19q-86 22 -128.5 69.5t-42.5 138.5q0 111 66.5 167.5t182.5 56.5
q117 0 213 -48v-150h-118q-7 63 -30.5 95.5t-76.5 32.5q-86 0 -86 -88q0 -36 19 -60t67 -35l68 -16q195 -47 195 -225q0 -104 -62 -162t-178 -66l-8 -29q101 -6 101 -79z" />
    <glyph glyph-name="scedilla" unicode="&#x15f;" horiz-adv-x="482" 
d="M347 -121q0 -45 -31.5 -65t-94.5 -20q-69 0 -106 25l17 42q30 -19 68 -19q34 0 34 25q0 29 -55 31l1 21l20 69q-97 4 -170 42v113h112q10 -88 96 -88q75 0 75 53q0 26 -15 40t-48 21l-85 18q-134 28 -134 162q0 87 60 133.5t152 46.5q98 0 182 -36v-113h-104
q-9 76 -92 76q-64 0 -64 -51q0 -39 50 -50l79 -17q163 -37 163 -179q0 -78 -52 -121.5t-151 -49.5l-8 -30q101 -6 101 -79z" />
    <glyph glyph-name="Scaron" unicode="&#x160;" horiz-adv-x="556" 
d="M254 -14q-131 0 -229 57v137h119q12 -130 116 -130q106 0 106 103q0 41 -21.5 66t-75.5 39l-72 19q-86 22 -128.5 69.5t-42.5 138.5q0 111 66.5 167.5t182.5 56.5q117 0 213 -48v-150h-118q-7 63 -30.5 95.5t-76.5 32.5q-86 0 -86 -88q0 -36 19 -60t67 -35l68 -16
q195 -47 195 -225q0 -111 -70.5 -170t-201.5 -59zM283 880l157 75l25 -40l-182 -183l-182 183l25 40z" />
    <glyph glyph-name="scaron" unicode="&#x161;" horiz-adv-x="482" 
d="M225 -13q-109 0 -195 43v113h112q10 -88 96 -88q75 0 75 53q0 26 -15 40t-48 21l-85 18q-134 28 -134 162q0 87 60 133.5t152 46.5q98 0 182 -36v-113h-104q-9 76 -92 76q-64 0 -64 -51q0 -39 50 -50l79 -17q163 -37 163 -179q0 -84 -60 -128t-172 -44zM251 700l157 75
l25 -40l-182 -183l-182 183l25 40z" />
    <glyph glyph-name="Tcommaaccent" unicode="&#x162;" horiz-adv-x="633" 
d="M27 697h579l12 -197h-87q-9 35 -12.5 46.5t-11 30.5t-15.5 24.5t-21.5 10.5t-33.5 5h-29v-497q0 -42 15.5 -56t58.5 -14v-50h-142l-12 -42q101 -6 101 -79q0 -45 -31.5 -65t-94.5 -20q-69 0 -106 25l17 42q30 -19 68 -19q34 0 34 25q0 29 -55 31l1 21l23 81h-134v50
q43 0 58.5 14t15.5 56v497h-29q-20 0 -33.5 -5t-21.5 -10.5t-15.5 -24.5t-11 -30.5t-12.5 -46.5h-87z" />
    <glyph glyph-name="tcommaaccent" unicode="&#x163;" horiz-adv-x="373" 
d="M363 516l-17 -84h-103v-255q0 -60 9.5 -82t44.5 -22q24 0 57 13l19 -59q-59 -39 -148 -40l-8 -29q101 -6 101 -79q0 -45 -31.5 -65t-94.5 -20q-69 0 -106 25l17 42q30 -19 68 -19q34 0 34 25q0 29 -55 31l1 21l21 72q-52 9 -77 42t-25 102v297h-60v59l67 28q8 75 46 130
l128 13q-9 -65 -9 -146h121z" />
    <glyph glyph-name="Tcaron" unicode="&#x164;" horiz-adv-x="633" 
d="M27 697h579l12 -197h-87q-9 35 -12.5 46.5t-11 30.5t-15.5 24.5t-21.5 10.5t-33.5 5h-29v-497q0 -42 15.5 -56t58.5 -14v-50h-331v50q43 0 58.5 14t15.5 56v497h-29q-20 0 -33.5 -5t-21.5 -10.5t-15.5 -24.5t-11 -30.5t-12.5 -46.5h-87zM316 880l157 75l25 -40l-182 -183
l-182 183l25 40z" />
    <glyph glyph-name="tcaron" unicode="&#x165;" horiz-adv-x="373" 
d="M363 516l-17 -84h-103v-255q0 -60 9.5 -82t44.5 -22q24 0 57 13l19 -59q-63 -40 -152 -40q-77 0 -114 33t-37 115v297h-60v59l67 28q8 75 46 130l128 13q-9 -65 -9 -146h121zM419 728l-69 -172l-67 8l12 176z" />
    <glyph glyph-name="Tbar" unicode="&#x166;" horiz-adv-x="633" 
d="M27 697h579l12 -197h-87q-9 35 -12.5 46.5t-11 30.5t-15.5 24.5t-21.5 10.5t-33.5 5h-29v-224h115v-86h-115v-187q0 -42 15.5 -56t58.5 -14v-50h-331v50q43 0 58.5 14t15.5 56v187h-109v86h109v224h-29q-20 0 -33.5 -5t-21.5 -10.5t-15.5 -24.5t-11 -30.5t-12.5 -46.5
h-87z" />
    <glyph glyph-name="tbar" unicode="&#x167;" horiz-adv-x="373" 
d="M363 516l-17 -84h-103v-85h108v-81h-108v-89q0 -60 9.5 -82t44.5 -22q24 0 57 13l19 -59q-63 -40 -152 -40q-77 0 -114 33t-37 115v131h-60v81h60v85h-60v59l67 28q8 75 46 130l128 13q-9 -65 -9 -146h121z" />
    <glyph glyph-name="Utilde" unicode="&#x168;" horiz-adv-x="693" 
d="M519 228v346q0 42 -14 56t-50 14v53h217v-53q-36 0 -50 -14t-14 -56v-348q0 -239 -261 -239q-138 0 -200 54.5t-62 181.5v351q0 42 -14 56t-50 14v53h311v-53q-36 0 -50 -14t-14 -56v-357q0 -77 29 -108t90 -31q63 0 97.5 34t34.5 116zM454 873q53 0 75 47l38 -17
q-14 -62 -46 -102.5t-73 -40.5q-31 0 -75 16t-64 16q-48 0 -73 -49l-36 16q8 61 40 105t75 44q30 0 72.5 -17.5t66.5 -17.5z" />
    <glyph glyph-name="utilde" unicode="&#x169;" horiz-adv-x="619" 
d="M547 522v-368q0 -54 10 -68t47 -17v-46l-177 -36h-15q-25 30 -29 78q-57 -78 -169 -78q-144 0 -144 145v223q0 54 -10 68.5t-45 16.5v49l203 33h25v-347q0 -41 13.5 -61t46.5 -20q37 0 71 26v235q0 54 -10 68.5t-45 16.5v49l203 33h25zM380 693q53 0 75 47l38 -17
q-14 -62 -46 -102.5t-73 -40.5q-31 0 -75 16t-64 16q-48 0 -73 -49l-36 16q8 61 40 105t75 44q30 0 72.5 -17.5t66.5 -17.5z" />
    <glyph glyph-name="Umacron" unicode="&#x16a;" horiz-adv-x="693" 
d="M519 228v346q0 42 -14 56t-50 14v53h217v-53q-36 0 -50 -14t-14 -56v-348q0 -239 -261 -239q-138 0 -200 54.5t-62 181.5v351q0 42 -14 56t-50 14v53h311v-53q-36 0 -50 -14t-14 -56v-357q0 -77 29 -108t90 -31q63 0 97.5 34t34.5 116zM542 775h-317v87h317v-87z" />
    <glyph glyph-name="umacron" unicode="&#x16b;" horiz-adv-x="619" 
d="M547 522v-368q0 -54 10 -68t47 -17v-46l-177 -36h-15q-25 30 -29 78q-57 -78 -169 -78q-144 0 -144 145v223q0 54 -10 68.5t-45 16.5v49l203 33h25v-347q0 -41 13.5 -61t46.5 -20q37 0 71 26v235q0 54 -10 68.5t-45 16.5v49l203 33h25zM465 605h-311v87h311v-87z" />
    <glyph glyph-name="Ubreve" unicode="&#x16c;" horiz-adv-x="693" 
d="M519 228v346q0 42 -14 56t-50 14v53h217v-53q-36 0 -50 -14t-14 -56v-348q0 -239 -261 -239q-138 0 -200 54.5t-62 181.5v351q0 42 -14 56t-50 14v53h311v-53q-36 0 -50 -14t-14 -56v-357q0 -77 29 -108t90 -31q63 0 97.5 34t34.5 116zM383 744q-73 0 -114 50t-58 124
l40 22q55 -83 132 -83t132 83l40 -22q-17 -74 -58 -124t-114 -50z" />
    <glyph glyph-name="ubreve" unicode="&#x16d;" horiz-adv-x="619" 
d="M547 522v-368q0 -54 10 -68t47 -17v-46l-177 -36h-15q-25 30 -29 78q-57 -78 -169 -78q-144 0 -144 145v223q0 54 -10 68.5t-45 16.5v49l203 33h25v-347q0 -41 13.5 -61t46.5 -20q37 0 71 26v235q0 54 -10 68.5t-45 16.5v49l203 33h25zM309 564q-73 0 -114 50t-58 124
l40 22q55 -83 132 -83t132 83l40 -22q-17 -74 -58 -124t-114 -50z" />
    <glyph glyph-name="Uring" unicode="&#x16e;" horiz-adv-x="693" 
d="M519 228v346q0 42 -14 56t-50 14v53h217v-53q-36 0 -50 -14t-14 -56v-348q0 -239 -261 -239q-138 0 -200 54.5t-62 181.5v351q0 42 -14 56t-50 14v53h311v-53q-36 0 -50 -14t-14 -56v-357q0 -77 29 -108t90 -31q63 0 97.5 34t34.5 116zM383 723q-54 0 -89 34.5t-35 87.5
t35 87.5t89 34.5q55 0 90 -34.5t35 -87.5t-35 -87.5t-90 -34.5zM383 905q-24 0 -38.5 -17t-14.5 -43q0 -24 14.5 -40t38.5 -16q25 0 39.5 16t14.5 40q0 26 -14.5 43t-39.5 17z" />
    <glyph glyph-name="uring" unicode="&#x16f;" horiz-adv-x="619" 
d="M547 522v-368q0 -54 10 -68t47 -17v-46l-177 -36h-15q-25 30 -29 78q-57 -78 -169 -78q-144 0 -144 145v223q0 54 -10 68.5t-45 16.5v49l203 33h25v-347q0 -41 13.5 -61t46.5 -20q37 0 71 26v235q0 54 -10 68.5t-45 16.5v49l203 33h25zM309 563q-54 0 -89 34.5t-35 87.5
t35 87.5t89 34.5q55 0 90 -34.5t35 -87.5t-35 -87.5t-90 -34.5zM309 745q-24 0 -38.5 -17t-14.5 -43q0 -24 14.5 -40t38.5 -16q25 0 39.5 16t14.5 40q0 26 -14.5 43t-39.5 17z" />
    <glyph glyph-name="Uhungarumlaut" unicode="&#x170;" horiz-adv-x="693" 
d="M519 228v346q0 42 -14 56t-50 14v53h217v-53q-36 0 -50 -14t-14 -56v-348q0 -239 -261 -239q-138 0 -200 54.5t-62 181.5v351q0 42 -14 56t-50 14v53h311v-53q-36 0 -50 -14t-14 -56v-357q0 -77 29 -108t90 -31q63 0 97.5 34t34.5 116zM463 940l-141 -200l-52 21l60 228z
M641 906l-161 -176l-46 26l82 224z" />
    <glyph glyph-name="uhungarumlaut" unicode="&#x171;" horiz-adv-x="619" 
d="M547 522v-368q0 -54 10 -68t47 -17v-46l-177 -36h-15q-25 30 -29 78q-57 -78 -169 -78q-144 0 -144 145v223q0 54 -10 68.5t-45 16.5v49l203 33h25v-347q0 -41 13.5 -61t46.5 -20q37 0 71 26v235q0 54 -10 68.5t-45 16.5v49l203 33h25zM389 760l-141 -200l-52 21l60 228z
M567 726l-161 -176l-46 26l82 224z" />
    <glyph glyph-name="Uogonek" unicode="&#x172;" horiz-adv-x="693" 
d="M514 -125l16 -32q-47 -48 -130 -48q-54 0 -89.5 21.5t-35.5 69.5q0 35 22 58t72 44q-10 -1 -22 -1q-138 0 -200 54.5t-62 181.5v351q0 42 -14 56t-50 14v53h311v-53q-36 0 -50 -14t-14 -56v-357q0 -77 29 -108t90 -31q63 0 97.5 34t34.5 116v346q0 42 -14 56t-50 14v53
h217v-53q-36 0 -50 -14t-14 -56v-348q0 -141 -88 -197q-40 -25 -58 -38.5t-33 -35.5t-15 -49q0 -25 13 -36.5t33 -11.5q26 0 54 17z" />
    <glyph glyph-name="uogonek" unicode="&#x173;" horiz-adv-x="619" 
d="M555 -125l16 -32q-47 -48 -130 -48q-54 0 -89.5 21.5t-35.5 69.5q0 34 22.5 56.5t71.5 47.5q-24 30 -27 75q-57 -78 -169 -78q-144 0 -144 145v223q0 54 -10 68.5t-45 16.5v49l203 33h25v-347q0 -41 13.5 -61t46.5 -20q37 0 71 26v235q0 54 -10 68.5t-45 16.5v49l203 33
h25v-368q0 -54 10 -68t47 -17v-46l-35 -7q-54 -11 -84 -41.5t-30 -68.5q0 -25 13 -36.5t33 -11.5q26 0 54 17z" />
    <glyph glyph-name="Wcircumflex" unicode="&#x174;" horiz-adv-x="979" 
d="M587 0l-73 281q-18 68 -27 160h-5q-17 -116 -29 -161l-70 -280h-170l-136 585q-8 34 -20.5 45.5t-39.5 15.5v51h300v-51q-53 0 -53 -39q0 -8 1 -13l57 -287q16 -80 16 -156h5q13 95 27 156l93 390h118l100 -387q26 -100 31 -158h6q4 77 20 157l57 284q2 10 2 16
q0 37 -57 37v51h222v-51q-32 -4 -45.5 -14.5t-21.5 -43.5l-138 -588h-170zM678 732l-157 75l-157 -75l-25 40l182 183l182 -183z" />
    <glyph glyph-name="wcircumflex" unicode="&#x175;" horiz-adv-x="842" 
d="M394 225l-65 -230h-146l-120 402q-12 40 -23.5 52t-39.5 16v51h288v-51q-54 0 -54 -38q0 -9 3 -20l44 -179q6 -25 13 -80h6q0 32 12 80l72 288h127l92 -289q12 -35 16 -79h6q0 25 10 73l42 187q2 10 2 21q0 20 -13.5 28t-42.5 8v51h219v-51q-33 -4 -47 -15.5t-23 -46.5
l-111 -408h-146l-80 229q-17 50 -17 99h-6q-5 -50 -18 -98zM606 552l-157 75l-157 -75l-25 40l182 183l182 -183z" />
    <glyph glyph-name="Ycircumflex" unicode="&#x176;" horiz-adv-x="680" 
d="M384 366h6l93 220q8 19 8 31q0 29 -47 29v51h219v-51q-30 -4 -44 -14.5t-30 -43.5l-157 -327v-141q0 -42 15.5 -56t58.5 -14v-50h-331v50q43 0 58.5 14t15.5 56v140l-164 328q-16 33 -29 43.5t-39 14.5v51h305v-51q-47 0 -47 -33q0 -13 7 -27zM517 732l-157 75l-157 -75
l-25 40l182 183l182 -183z" />
    <glyph glyph-name="ycircumflex" unicode="&#x177;" horiz-adv-x="572" 
d="M117 -205l-61 108q166 25 209 107l-66 -5q-15 61 -62 190l-76 209q-13 35 -23.5 46t-37.5 15v51h292v-51q-33 -1 -45.5 -7t-12.5 -18q0 -7 5 -22l68 -218q6 -19 14 -66h6q4 27 17 68l66 216q4 12 4 22q0 14 -13 18.5t-48 6.5v51h219v-51q-31 -4 -44 -14t-25 -44
l-148 -396q-35 -94 -91.5 -149.5t-146.5 -66.5zM471 552l-157 75l-157 -75l-25 40l182 183l182 -183z" />
    <glyph glyph-name="Ydieresis" unicode="&#x178;" horiz-adv-x="680" 
d="M384 366h6l93 220q8 19 8 31q0 29 -47 29v51h219v-51q-30 -4 -44 -14.5t-30 -43.5l-157 -327v-141q0 -42 15.5 -56t58.5 -14v-50h-331v50q43 0 58.5 14t15.5 56v140l-164 328q-16 33 -29 43.5t-39 14.5v51h305v-51q-47 0 -47 -33q0 -13 7 -27zM337 830q0 -37 -27 -63
t-65 -26t-64.5 26t-26.5 63t27.5 63.5t65.5 26.5t64 -26t26 -64zM566 830q0 -37 -27 -63t-65 -26t-64.5 26t-26.5 63t27.5 63.5t65.5 26.5t64 -26t26 -64z" />
    <glyph glyph-name="Zacute" unicode="&#x179;" horiz-adv-x="587" 
d="M550 641l-318 -567h111q56 0 80.5 26.5t40.5 96.5h88l-10 -197h-515v56l321 569h-99q-47 0 -68 -25t-37 -88h-92l8 185h490v-56zM201 727l-25 39l211 180l74 -146z" />
    <glyph glyph-name="zacute" unicode="&#x17a;" horiz-adv-x="517" 
d="M497 153l-18 -153h-437v65l249 383h-75q-51 0 -68.5 -17t-25.5 -74h-67v159h437v-59l-255 -390h67q64 0 85.5 13t42.5 73h65zM176 554l-28 36l192 200l88 -139z" />
    <glyph glyph-name="Zdotaccent" unicode="&#x17b;" horiz-adv-x="587" 
d="M550 641l-318 -567h111q56 0 80.5 26.5t40.5 96.5h88l-10 -197h-515v56l321 569h-99q-47 0 -68 -25t-37 -88h-92l8 185h490v-56zM409 836q0 -38 -28 -65.5t-68 -27.5q-39 0 -67 27.5t-28 65.5q0 39 28.5 66.5t68.5 27.5t67 -27.5t27 -66.5z" />
    <glyph glyph-name="zdotaccent" unicode="&#x17c;" horiz-adv-x="517" 
d="M497 153l-18 -153h-437v65l249 383h-75q-51 0 -68.5 -17t-25.5 -74h-67v159h437v-59l-255 -390h67q64 0 85.5 13t42.5 73h65zM372 656q0 -38 -28 -65.5t-68 -27.5q-39 0 -67 27.5t-28 65.5q0 39 28.5 66.5t68.5 27.5t67 -27.5t27 -66.5z" />
    <glyph glyph-name="Zcaron" unicode="&#x17d;" horiz-adv-x="587" 
d="M550 641l-318 -567h111q56 0 80.5 26.5t40.5 96.5h88l-10 -197h-515v56l321 569h-99q-47 0 -68 -25t-37 -88h-92l8 185h490v-56zM313 880l157 75l25 -40l-182 -183l-182 183l25 40z" />
    <glyph glyph-name="zcaron" unicode="&#x17e;" horiz-adv-x="517" 
d="M497 153l-18 -153h-437v65l249 383h-75q-51 0 -68.5 -17t-25.5 -74h-67v159h437v-59l-255 -390h67q64 0 85.5 13t42.5 73h65zM279 700l157 75l25 -40l-182 -183l-182 183l25 40z" />
    <glyph glyph-name="longs" unicode="&#x17f;" horiz-adv-x="364" 
d="M258 612v-492q0 -43 14.5 -56.5t62.5 -13.5v-50h-307v50q35 0 46 13.5t11 56.5v312h-60v59l60 25v65q0 82 53 123.5t148 41.5q97 0 148 -24v-115h-97q0 36 -9.5 50t-28.5 14q-41 0 -41 -59z" />
    <glyph glyph-name="uni018F" unicode="&#x18f;" horiz-adv-x="697" 
d="M279 584q-95 0 -190 -64l-38 54q110 135 290 135q146 0 231 -95.5t85 -266.5q0 -175 -87.5 -267.5t-233.5 -92.5q-301 0 -301 287q0 65 14 112h397q-4 103 -42 150.5t-125 47.5zM336 61q111 0 111 242h-206q-3 -31 -3 -61q0 -83 25 -132t73 -49z" />
    <glyph glyph-name="florin" unicode="&#x192;" horiz-adv-x="367" 
d="M33 361l5 64l73 13l10 96q9 88 71.5 131.5t161.5 43.5q92 0 153 -33l-8 -113h-98q0 46 -7 62t-32 16q-55 0 -61 -88l-9 -118h116v-74h-122l-29 -381q-7 -93 -73.5 -132t-197.5 -39l-6 44q50 9 72 34.5t26 82.5l27 391h-72z" />
    <glyph glyph-name="uni01B5" unicode="&#x1b5;" horiz-adv-x="587" 
d="M550 640l-134 -235h105v-81h-151l-142 -250h115q56 0 80.5 26.5t40.5 96.5h88l-10 -197h-515v56l153 268h-106v81h153l125 219h-103q-47 0 -68 -25t-37 -88h-92l8 185h490v-56z" />
    <glyph glyph-name="uni01B6" unicode="&#x1b6;" horiz-adv-x="517" 
d="M66 242v45h122l106 161h-78q-51 0 -68.5 -17t-25.5 -74h-67v159h437v-59l-113 -170h80v-45h-109l-116 -175h70q64 0 85.5 13t42.5 73h65l-18 -153h-437v65l116 177h-92z" />
    <glyph glyph-name="Aringacute" unicode="&#x1fa;" horiz-adv-x="677" 
d="M425 98l-25 77h-207l-21 -77q-4 -12 -4 -21q0 -15 13 -19.5t48 -6.5v-51h-224v51q32 4 45 14.5t24 43.5l190 588h142l206 -588q12 -32 23 -43t37 -15v-51h-300v51q33 1 45.5 7t12.5 18q0 7 -5 22zM267 435l-50 -175h155l-58 178q-13 41 -20 80h-6q-5 -32 -21 -83z
M338 720q-54 0 -89 34.5t-35 87.5t35 87.5t89 34.5q55 0 90 -34.5t35 -87.5t-35 -87.5t-90 -34.5zM338 902q-24 0 -38.5 -17t-14.5 -43q0 -24 14.5 -40t38.5 -16q25 0 39.5 16t14.5 40q0 26 -14.5 43t-39.5 17zM222 965l-25 39l211 180l74 -146z" />
    <glyph glyph-name="aringacute" unicode="&#x1fb;" horiz-adv-x="552" 
d="M483 158q0 -55 11.5 -71t47.5 -16v-48q-44 -29 -116 -29q-43 0 -71.5 18.5t-36.5 50.5q-14 -32 -48.5 -54t-90.5 -22q-71 0 -115 36.5t-44 112.5q0 170 239 170q28 0 54 -2v47q0 54 -15 79t-49 25q-32 0 -45.5 -22.5t-19.5 -69.5h-129v108q97 58 227 58q93 0 149 -42
t56 -126q0 -7 -2 -78.5t-2 -124.5zM311 244h-35q-37 0 -58 -21.5t-21 -62.5q0 -66 49 -66q40 0 62 23zM275 553q-54 0 -89 34.5t-35 87.5t35 87.5t89 34.5q55 0 90 -34.5t35 -87.5t-35 -87.5t-90 -34.5zM275 735q-24 0 -38.5 -17t-14.5 -43q0 -24 14.5 -40t38.5 -16
q25 0 39.5 16t14.5 40q0 26 -14.5 43t-39.5 17zM164 802l-25 39l211 180l74 -146z" />
    <glyph glyph-name="AEacute" unicode="&#x1fc;" horiz-adv-x="945" 
d="M92 109l228 465q11 24 11 37q0 33 -54 33v53h602l12 -177h-88q-18 61 -35.5 79t-71.5 18h-84v-230h48q46 0 62 14t19 57h77v-218h-77q-3 42 -19 56.5t-61 14.5h-49v-237h105q48 0 69.5 24t27.5 92h89v-190h-530v50q36 0 50 14t14 56v97h-189l-60 -119q-7 -14 -7 -23
q0 -21 61 -24v-51h-237v51q33 4 52.5 15.5t34.5 42.5zM442 616l-151 -315h146v118q0 123 11 197h-6zM508 727l-25 39l211 180l74 -146z" />
    <glyph glyph-name="aeacute" unicode="&#x1fd;" horiz-adv-x="830" 
d="M426 482q64 47 146 47q121 0 174.5 -64.5t53.5 -185.5v-45h-297q3 -77 32.5 -113t96.5 -36q68 0 133 31l26 -44q-82 -85 -222 -85q-135 0 -200 81q-21 -33 -68.5 -57t-116.5 -24q-74 0 -119 36.5t-45 112.5q0 87 60 127.5t180 40.5h57v47q0 104 -68 104
q-32 0 -45.5 -22.5t-19.5 -69.5h-129v108q97 58 216 58q103 0 155 -47zM572 460q-33 0 -48 -33t-20 -121h126q0 89 -12.5 121.5t-45.5 32.5zM260 94q43 0 80 22q-23 53 -24 118h-28q-47 0 -69 -17t-22 -57q0 -66 63 -66zM361 554l-28 36l192 200l88 -139z" />
    <glyph glyph-name="Oslashacute" unicode="&#x1fe;" horiz-adv-x="720" 
d="M625 724l-53 -86q108 -95 108 -301q0 -170 -83.5 -259.5t-236.5 -89.5q-98 0 -169 38l-51 -83l-50 29l53 86q-103 89 -103 279q0 189 87 280.5t233 91.5q93 0 163 -37l51 81zM480 348q0 68 -7 131l-211 -340q15 -44 39 -61t59 -17q39 0 63.5 19.5t40.5 85t16 182.5z
M360 628q-41 0 -66 -23t-39.5 -86.5t-14.5 -173.5q0 -67 5 -122l209 337q-27 68 -94 68zM248 727l-25 39l211 180l74 -146z" />
    <glyph glyph-name="oslashacute" unicode="&#x1ff;" horiz-adv-x="598" 
d="M514 541l-39 -61q88 -65 88 -209q0 -98 -38.5 -163.5t-97 -93t-132.5 -27.5q-65 0 -120 21l-43 -67l-46 27l42 66q-93 69 -93 222q0 123 72.5 198t198.5 75q66 0 123 -23l39 62zM216 249q0 -52 2 -73l148 231q-19 52 -67 52q-41 0 -62 -44.5t-21 -165.5zM382 278
q0 21 -2 53l-146 -230q19 -47 67 -47q81 0 81 224zM187 554l-28 36l192 200l88 -139z" />
    <glyph glyph-name="Scommaaccent" unicode="&#x218;" horiz-adv-x="556" 
d="M254 -14q-131 0 -229 57v137h119q12 -130 116 -130q106 0 106 103q0 41 -21.5 66t-75.5 39l-72 19q-86 22 -128.5 69.5t-42.5 138.5q0 111 66.5 167.5t182.5 56.5q117 0 213 -48v-150h-118q-7 63 -30.5 95.5t-76.5 32.5q-86 0 -86 -88q0 -36 19 -60t67 -35l68 -16
q195 -47 195 -225q0 -111 -70.5 -170t-201.5 -59zM378 -143q0 -61 -45.5 -97t-116.5 -50l-28 38q43 13 59 24t16 29q0 16 -26 28q-40 16 -40 63q0 31 23.5 51.5t60.5 20.5q45 0 71 -29t26 -78z" />
    <glyph glyph-name="scommaaccent" unicode="&#x219;" horiz-adv-x="482" 
d="M225 -13q-109 0 -195 43v113h112q10 -88 96 -88q75 0 75 53q0 26 -15 40t-48 21l-85 18q-134 28 -134 162q0 87 60 133.5t152 46.5q98 0 182 -36v-113h-104q-9 76 -92 76q-64 0 -64 -51q0 -39 50 -50l79 -17q163 -37 163 -179q0 -84 -60 -128t-172 -44zM346 -143
q0 -61 -45.5 -97t-116.5 -50l-28 38q43 13 59 24t16 29q0 16 -26 28q-40 16 -40 63q0 31 23.5 51.5t60.5 20.5q45 0 71 -29t26 -78z" />
    <glyph glyph-name="uni021A" unicode="&#x21a;" horiz-adv-x="633" 
d="M27 697h579l12 -197h-87q-9 35 -12.5 46.5t-11 30.5t-15.5 24.5t-21.5 10.5t-33.5 5h-29v-497q0 -42 15.5 -56t58.5 -14v-50h-331v50q43 0 58.5 14t15.5 56v497h-29q-20 0 -33.5 -5t-21.5 -10.5t-15.5 -24.5t-11 -30.5t-12.5 -46.5h-87zM411 -143q0 -61 -45.5 -97
t-116.5 -50l-28 38q43 13 59 24t16 29q0 16 -26 28q-40 16 -40 63q0 31 23 51.5t61 20.5q45 0 71 -29t26 -78z" />
    <glyph glyph-name="uni021B" unicode="&#x21b;" horiz-adv-x="373" 
d="M363 516l-17 -84h-103v-255q0 -60 9.5 -82t44.5 -22q24 0 57 13l19 -59q-63 -40 -152 -40q-77 0 -114 33t-37 115v297h-60v59l67 28q8 75 46 130l128 13q-9 -65 -9 -146h121zM288 -143q0 -61 -45.5 -97t-116.5 -50l-28 38q43 13 59 24t16 29q0 16 -26 28q-40 16 -40 63
q0 31 23.5 51.5t60.5 20.5q45 0 71 -29t26 -78z" />
    <glyph glyph-name="uni0237" unicode="&#x237;" horiz-adv-x="321" 
d="M80 18v337q0 54 -10 68.5t-45 16.5v49l203 33h25v-504q0 -53 -21 -95t-56 -67.5t-71.5 -40.5t-75.5 -21l-29 46q45 21 62.5 60.5t17.5 117.5z" />
    <glyph glyph-name="uni0259" unicode="&#x259;" horiz-adv-x="549" 
d="M198 431q-68 0 -133 -31l-26 44q82 85 222 85q121 0 187 -71t66 -201q0 -127 -68.5 -198.5t-185.5 -71.5q-122 0 -176 64t-54 186v49h297q-3 77 -32 111t-97 34zM258 56q33 0 48 33t20 121h-126v-5q0 -85 13 -117t45 -32z" />
    <glyph glyph-name="uni02BB" unicode="&#x2bb;" horiz-adv-x="288" 
d="M45 511q0 166 194 202l34 -44q-57 -15 -84 -33t-27 -44q0 -18 8 -26.5t29 -17.5q52 -23 52 -74q0 -37 -27 -62.5t-69 -25.5q-48 0 -79 35.5t-31 89.5z" />
    <glyph glyph-name="afii57929" unicode="&#x2bc;" horiz-adv-x="288" 
d="M243 588q0 -166 -194 -202l-34 44q57 15 84 33t27 44q0 18 -8 26.5t-29 17.5q-52 23 -52 74q0 37 27 62.5t69 25.5q48 0 79 -35.5t31 -89.5z" />
    <glyph glyph-name="circumflex" unicode="&#x2c6;" horiz-adv-x="524" 
d="M419 552l-157 75l-157 -75l-25 40l182 183l182 -183z" />
    <glyph glyph-name="caron" unicode="&#x2c7;" horiz-adv-x="524" 
d="M262 700l157 75l25 -40l-182 -183l-182 183l25 40z" />
    <glyph glyph-name="breve" unicode="&#x2d8;" horiz-adv-x="504" 
d="M252 564q-73 0 -114 50t-58 124l40 22q55 -83 132 -83t132 83l40 -22q-17 -74 -58 -124t-114 -50z" />
    <glyph glyph-name="dotaccent" unicode="&#x2d9;" horiz-adv-x="351" 
d="M271 656q0 -38 -28 -65.5t-68 -27.5q-39 0 -67 27.5t-28 65.5q0 39 28.5 66.5t68.5 27.5t67 -27.5t27 -66.5z" />
    <glyph glyph-name="ring" unicode="&#x2da;" horiz-adv-x="409" 
d="M204 563q-54 0 -89 34.5t-35 87.5t35 87.5t89 34.5q55 0 90 -34.5t35 -87.5t-35 -87.5t-90 -34.5zM204 745q-24 0 -38.5 -17t-14.5 -43q0 -24 14.5 -40t38.5 -16q25 0 39.5 16t14.5 40q0 26 -14.5 43t-39.5 17z" />
    <glyph glyph-name="ogonek" unicode="&#x2db;" horiz-adv-x="288" 
d="M242 -125l16 -32q-47 -48 -130 -48q-54 0 -89.5 21.5t-35.5 69.5q0 49 41.5 78t152.5 71l22 -21q-77 -55 -77 -108q0 -25 13 -36.5t33 -11.5q26 0 54 17z" />
    <glyph glyph-name="tilde" unicode="&#x2dc;" horiz-adv-x="527" 
d="M334 693q53 0 75 47l38 -17q-14 -62 -46 -102.5t-73 -40.5q-31 0 -75 16t-64 16q-48 0 -73 -49l-36 16q8 61 40 105t75 44q30 0 72.5 -17.5t66.5 -17.5z" />
    <glyph glyph-name="hungarumlaut" unicode="&#x2dd;" horiz-adv-x="531" 
d="M273 760l-141 -200l-52 21l60 228zM451 726l-161 -176l-46 26l82 224z" />
    <glyph glyph-name="gravecomb" unicode="&#x300;" 
d="M-183 590l-28 -36l-252 97l88 139z" />
    <glyph glyph-name="acutecomb" unicode="&#x301;" 
d="M-410 554l-28 36l192 200l88 -139z" />
    <glyph glyph-name="uni0302" unicode="&#x302;" 
d="M-141 552l-157 75l-157 -75l-25 40l182 183l182 -183z" />
    <glyph glyph-name="tildecomb" unicode="&#x303;" 
d="M-227 693q53 0 75 47l38 -17q-14 -62 -46 -102.5t-73 -40.5q-31 0 -75 16t-64 16q-48 0 -73 -49l-36 16q8 61 40 105t75 44q30 0 72.5 -17.5t66.5 -17.5z" />
    <glyph glyph-name="uni0304" unicode="&#x304;" 
d="M-79 609h-311v87h311v-87z" />
    <glyph glyph-name="uni0306" unicode="&#x306;" 
d="M-251 552q-73 0 -114 50t-58 124l40 22q55 -83 132 -83t132 83l40 -22q-17 -74 -58 -124t-114 -50z" />
    <glyph glyph-name="uni0307" unicode="&#x307;" 
d="M-63 652q0 -41 -29.5 -69.5t-71.5 -28.5q-41 0 -70 29t-29 69t30 69t72 29q41 0 69.5 -28.5t28.5 -69.5z" />
    <glyph glyph-name="uni0308" unicode="&#x308;" 
d="M-308 650q0 -37 -27 -63t-65 -26t-64.5 26t-26.5 63t27.5 63.5t65.5 26.5t64 -26t26 -64zM-79 650q0 -37 -27 -63t-65 -26t-64.5 26t-26.5 63t27.5 63.5t65.5 26.5t64 -26t26 -64z" />
    <glyph glyph-name="uni030A" unicode="&#x30a;" 
d="M-204 563q-54 0 -89 34.5t-35 87.5t35 87.5t89 34.5q55 0 90 -34.5t35 -87.5t-35 -87.5t-90 -34.5zM-204 745q-24 0 -38.5 -17t-14.5 -43q0 -24 14.5 -40t38.5 -16q25 0 39.5 16t14.5 40q0 26 -14.5 43t-39.5 17z" />
    <glyph glyph-name="uni030B" unicode="&#x30b;" 
d="M-257 764l-141 -200l-52 21l60 228zM-79 730l-161 -176l-46 26l82 224z" />
    <glyph glyph-name="uni030C" unicode="&#x30c;" 
d="M-237 700l157 75l25 -40l-182 -183l-182 183l25 40z" />
    <glyph glyph-name="uni0312" unicode="&#x312;" 
d="M-259 678q0 61 45.5 97t116.5 50l28 -38q-43 -13 -59 -24t-16 -29q0 -16 26 -28q40 -16 40 -63q0 -31 -23 -51.5t-61 -20.5q-45 0 -71 29t-26 78z" />
    <glyph glyph-name="uni0313" unicode="&#x313;" 
d="M-68 728l-69 -172l-67 8l12 176z" />
    <glyph glyph-name="dotbelowcomb" unicode="&#x323;" 
d="M263 -140q0 -41 -29.5 -69.5t-71.5 -28.5q-41 0 -70 29t-29 69t30 69t72 29q41 0 69.5 -28.5t28.5 -69.5z" />
    <glyph glyph-name="uni0326" unicode="&#x326;" 
d="M270 -143q0 -61 -45.5 -97t-116.5 -50l-28 38q43 13 59 24t16 29q0 16 -26 28q-40 16 -40 63q0 31 23.5 51.5t60.5 20.5q45 0 71 -29t26 -78z" />
    <glyph glyph-name="uni0327" unicode="&#x327;" 
d="M-21 -121q0 -45 -31.5 -65t-94.5 -20q-69 0 -106 25l17 42q30 -19 68 -19q34 0 34 25q0 29 -55 31l1 21l29 100l53 -6l-16 -55q101 -6 101 -79z" />
    <glyph glyph-name="uni0328" unicode="&#x328;" 
d="M-45 -126l16 -32q-47 -48 -130 -48q-54 0 -89.5 21.5t-35.5 69.5q0 49 41.5 78t152.5 71l22 -21q-77 -55 -77 -108q0 -25 13 -36.5t33 -11.5q26 0 54 17z" />
    <glyph glyph-name="uni0335" unicode="&#x335;" 
d="M-79 215h-311v87h311v-87z" />
    <glyph glyph-name="uni0336" unicode="&#x336;" 
d="M-44 202h-714v113h714v-113z" />
    <glyph glyph-name="uni037E" unicode="&#x37e;" horiz-adv-x="308" 
d="M258 51q0 -166 -194 -202l-34 44q57 15 84 33t27 44q0 18 -8 26.5t-29 17.5q-52 23 -52 74q0 37 27 62.5t69 25.5q48 0 79 -35.5t31 -89.5zM251 371q0 -43 -30.5 -73t-72.5 -30t-72 30t-30 73q0 41 30 71t72 30t72.5 -30t30.5 -71z" />
    <glyph glyph-name="tonos" unicode="&#x384;" horiz-adv-x="392" 
d="M205 557l-100 4l60 214l148 -31z" />
    <glyph glyph-name="dieresistonos" unicode="&#x385;" horiz-adv-x="490" 
d="M169 645q0 -33 -24.5 -56.5t-58.5 -23.5t-57.5 23.5t-23.5 56.5q0 34 24 57.5t59 23.5q34 0 57.5 -23.5t23.5 -57.5zM485 645q0 -33 -24 -56.5t-58 -23.5t-58 23.5t-24 56.5q0 34 24 57.5t59 23.5q34 0 57.5 -23.5t23.5 -57.5zM269 567l-90 4l28 227l136 -40z" />
    <glyph glyph-name="Alphatonos" unicode="&#x386;" horiz-adv-x="677" 
d="M425 98l-25 77h-207l-21 -77q-4 -12 -4 -21q0 -15 13 -19.5t48 -6.5v-51h-224v51q32 4 45 14.5t24 43.5l190 588h142l206 -588q12 -32 23 -43t37 -15v-51h-300v51q33 1 45.5 7t12.5 18q0 7 -5 22zM267 435l-50 -175h155l-58 178q-13 41 -20 80h-6q-5 -32 -21 -83z
M119 497l-100 4l57 214l148 -31z" />
    <glyph glyph-name="anoteleia" unicode="&#x387;" horiz-adv-x="305" 
d="M255 283q0 -43 -30.5 -73t-72.5 -30t-72 30t-30 73q0 41 30 71t72 30t72.5 -30t30.5 -71z" />
    <glyph glyph-name="Epsilontonos" unicode="&#x388;" horiz-adv-x="605" 
d="M25 0v50q36 0 50 14t14 56v454q0 42 -14 56t-50 14v53h514l12 -177h-88q-18 61 -35.5 79t-71.5 18h-84v-230h48q46 0 62 14t19 57h77v-218h-77q-3 42 -19 56.5t-61 14.5h-49v-237h105q48 0 69.5 24t27.5 92h89v-190h-538zM-109 497l-100 4l57 214l148 -31z" />
    <glyph glyph-name="Etatonos" unicode="&#x389;" horiz-adv-x="762" 
d="M490 120v190h-218v-190q0 -42 14 -56t50 -14v-50h-311v50q36 0 50 14t14 56v454q0 42 -14 56t-50 14v53h311v-53q-36 0 -50 -14t-14 -56v-179h218v179q0 42 -14 56t-50 14v53h311v-53q-36 0 -50 -14t-14 -56v-454q0 -42 14 -56t50 -14v-50h-311v50q36 0 50 14t14 56z
M-110 497l-100 4l57 214l148 -31z" />
    <glyph glyph-name="Iotatonos" unicode="&#x38a;" horiz-adv-x="361" 
d="M89 120v454q0 42 -14 56t-50 14v53h311v-53q-36 0 -50 -14t-14 -56v-454q0 -42 14 -56t50 -14v-50h-311v50q36 0 50 14t14 56zM-112 497l-100 4l57 214l148 -31z" />
    <glyph glyph-name="Omicrontonos" unicode="&#x38c;" horiz-adv-x="720" 
d="M360 -12q-153 0 -236.5 89.5t-83.5 259.5q0 189 87 280.5t233 91.5t233 -91.5t87 -280.5q0 -170 -83.5 -259.5t-236.5 -89.5zM360 628q-62 0 -89 -60t-27 -223q0 -116 15 -180.5t38.5 -84t62.5 -19.5t62.5 19.5t38.5 84.5t15 183q0 110 -13.5 172t-37.5 85t-65 23z
M12 497l-100 4l57 214l148 -31z" />
    <glyph glyph-name="Upsilontonos" unicode="&#x38e;" horiz-adv-x="680" 
d="M384 366h6l93 220q8 19 8 31q0 29 -47 29v51h219v-51q-30 -4 -44 -14.5t-30 -43.5l-157 -327v-141q0 -42 15.5 -56t58.5 -14v-50h-331v50q43 0 58.5 14t15.5 56v140l-164 328q-16 33 -29 43.5t-39 14.5v51h305v-51q-47 0 -47 -33q0 -13 7 -27zM-120 497l-100 4l57 214
l148 -31z" />
    <glyph glyph-name="Omegatonos" unicode="&#x38f;" horiz-adv-x="738" 
d="M369 634q-71 0 -97.5 -50.5t-26.5 -192.5q0 -106 21.5 -176t73.5 -121v-94h-296l-14 173h71q6 -28 15.5 -44.5t27 -24t32.5 -9t43 -1.5h30q-82 43 -143.5 124t-61.5 182q0 143 92.5 226t232.5 83t232.5 -83t92.5 -226q0 -101 -61.5 -182t-143.5 -124h30q28 0 43 1.5
t32.5 9t27 24t15.5 44.5h71l-14 -173h-296v94q52 51 73.5 121t21.5 176q0 142 -26.5 192.5t-97.5 50.5zM4 497l-100 4l57 214l148 -31z" />
    <glyph glyph-name="iotadieresistonos" unicode="&#x390;" horiz-adv-x="309" 
d="M220 529v-402q0 -29 11 -40.5t34 -11.5t39 4v-58q-51 -30 -125 -30q-72 0 -101.5 43t-29.5 103v200q0 128 -3 169l145 23h30zM55 645q0 -33 -24.5 -56.5t-58.5 -23.5t-57.5 23.5t-23.5 56.5q0 34 24 57.5t59 23.5q34 0 57.5 -23.5t23.5 -57.5zM371 645q0 -33 -24 -56.5
t-58 -23.5t-58 23.5t-24 56.5q0 34 24 57.5t59 23.5q34 0 57.5 -23.5t23.5 -57.5zM155 567l-90 4l28 227l136 -40z" />
    <glyph glyph-name="Alpha" unicode="&#x391;" horiz-adv-x="677" 
d="M425 98l-25 77h-207l-21 -77q-4 -12 -4 -21q0 -15 13 -19.5t48 -6.5v-51h-224v51q32 4 45 14.5t24 43.5l190 588h142l206 -588q12 -32 23 -43t37 -15v-51h-300v51q33 1 45.5 7t12.5 18q0 7 -5 22zM267 435l-50 -175h155l-58 178q-13 41 -20 80h-6q-5 -32 -21 -83z" />
    <glyph glyph-name="Beta" unicode="&#x392;" horiz-adv-x="646" 
d="M25 0v50q36 0 50 14t14 56v454q0 42 -14 56t-50 14v53h350q102 0 167 -47.5t65 -141.5q0 -135 -157 -156v-4q181 -17 181 -171q0 -87 -55 -132t-180 -45h-371zM272 74h59q58 0 83 24.5t25 93.5q0 63 -24.5 91t-76.5 28h-66v-237zM272 388h44q55 0 75.5 22.5t20.5 92.5
q0 63 -23 88.5t-77 25.5h-40v-229z" />
    <glyph glyph-name="Gamma" unicode="&#x393;" horiz-adv-x="570" 
d="M272 617v-497q0 -43 16.5 -56.5t67.5 -13.5v-50h-331v50q36 0 50 14t14 56v454q0 42 -14 56t-50 14v53h523l12 -194h-88q-17 72 -35 93t-72 21h-93z" />
    <glyph glyph-name="uni0394" unicode="&#x394;" horiz-adv-x="601" 
d="M113 76h279l-110 332q-28 83 -30 110h-6q-6 -42 -29 -112zM591 0h-581v55l216 642h134l231 -642v-55z" />
    <glyph glyph-name="Epsilon" unicode="&#x395;" horiz-adv-x="605" 
d="M25 0v50q36 0 50 14t14 56v454q0 42 -14 56t-50 14v53h514l12 -177h-88q-18 61 -35.5 79t-71.5 18h-84v-230h48q46 0 62 14t19 57h77v-218h-77q-3 42 -19 56.5t-61 14.5h-49v-237h105q48 0 69.5 24t27.5 92h89v-190h-538z" />
    <glyph glyph-name="Zeta" unicode="&#x396;" horiz-adv-x="587" 
d="M550 641l-318 -567h111q56 0 80.5 26.5t40.5 96.5h88l-10 -197h-515v56l321 569h-99q-47 0 -68 -25t-37 -88h-92l8 185h490v-56z" />
    <glyph glyph-name="Eta" unicode="&#x397;" horiz-adv-x="762" 
d="M490 120v190h-218v-190q0 -42 14 -56t50 -14v-50h-311v50q36 0 50 14t14 56v454q0 42 -14 56t-50 14v53h311v-53q-36 0 -50 -14t-14 -56v-179h218v179q0 42 -14 56t-50 14v53h311v-53q-36 0 -50 -14t-14 -56v-454q0 -42 14 -56t50 -14v-50h-311v50q36 0 50 14t14 56z" />
    <glyph glyph-name="Theta" unicode="&#x398;" horiz-adv-x="750" 
d="M375 -12q-155 0 -245 90.5t-90 258.5q0 188 93.5 280t241.5 92t241.5 -92t93.5 -280q0 -168 -90 -258.5t-245 -90.5zM375 628q-68 0 -102 -61.5t-34 -221.5q0 -71 7 -122.5t18.5 -82t30 -49t37 -24.5t43.5 -6q31 0 53.5 11t42.5 40t30 88t10 148q0 158 -34 219t-102 61z
M385 311h-13q-30 0 -39 -11.5t-12 -43.5h-45v198h45q3 -33 12.5 -44t39.5 -11h11q30 0 39.5 11t12.5 44h45v-198h-45q-3 32 -12 43.5t-39 11.5z" />
    <glyph glyph-name="Iota" unicode="&#x399;" horiz-adv-x="361" 
d="M89 120v454q0 42 -14 56t-50 14v53h311v-53q-36 0 -50 -14t-14 -56v-454q0 -42 14 -56t50 -14v-50h-311v50q36 0 50 14t14 56z" />
    <glyph glyph-name="Kappa" unicode="&#x39a;" horiz-adv-x="711" 
d="M89 120v454q0 42 -14 56t-50 14v53h311v-53q-36 0 -50 -14t-14 -56v-454q0 -42 14 -56t50 -14v-50h-311v50q36 0 50 14t14 56zM583 588l-137 -175l169 -314q15 -28 32 -37.5t49 -11.5v-50h-230l-178 340l192 259q8 11 8 21q0 26 -38 26v51h229v-51q-56 -7 -96 -58z" />
    <glyph glyph-name="Lambda" unicode="&#x39b;" horiz-adv-x="671" 
d="M419 98l-107 340q-13 41 -20 80h-6q-5 -31 -20 -83l-94 -337q-4 -12 -4 -21q0 -15 13 -19.5t48 -6.5v-51h-224v51q32 4 45 14.5t24 43.5l188 588h142l202 -588q12 -32 23 -43t37 -15v-51h-300v51q32 1 44.5 7t12.5 18q0 10 -4 22z" />
    <glyph glyph-name="Mu" unicode="&#x39c;" horiz-adv-x="912" 
d="M852 697v-52q-49 -3 -61 -18t-8 -58l40 -443q4 -45 16.5 -60.5t52.5 -16.5v-49h-314v49q46 1 56.5 14.5t6.5 57.5l-26 305q-3 39 -3 104v22h-4q-13 -73 -25 -117l-113 -435h-107l-124 407q-10 34 -32 146h-4q-4 -108 -6 -140l-18 -291q-2 -44 9.5 -58.5t51.5 -14.5v-49
h-220v49q41 1 54 17t16 62l30 441q2 30 0 42.5t-18 22.5t-51 11v52h286l92 -304q17 -59 28 -143h4q18 104 28 143l78 304h285z" />
    <glyph glyph-name="Nu" unicode="&#x39d;" horiz-adv-x="712" 
d="M541 401v173q0 42 -14 56t-50 14v53h220v-53q-36 0 -50 -14t-14 -56v-574h-130l-242 368q-37 56 -83 140h-3q8 -84 8 -140v-248q0 -42 14 -56t50 -14v-50h-222v50q36 0 50 14t14 56v454q0 42 -14 56t-50 14v53h260l194 -296q36 -55 66 -125h4q-8 80 -8 125z" />
    <glyph glyph-name="Xi" unicode="&#x39e;" horiz-adv-x="625" 
d="M590 0h-555l-7 210h89q6 -53 27.5 -72t69.5 -19h197q48 0 69.5 19t27.5 72h89zM390 583h-155q-55 0 -76.5 -20.5t-30.5 -72.5h-88l9 207h527l9 -207h-88q-9 52 -30.5 72.5t-76.5 20.5zM275 306q-44 0 -59 -13t-21 -48h-77v208h77q6 -37 21 -49t60 -12h73q45 0 60 12
t21 49h77v-208h-77q-6 35 -21 48t-59 13h-75z" />
    <glyph glyph-name="Omicron" unicode="&#x39f;" horiz-adv-x="720" 
d="M360 -12q-153 0 -236.5 89.5t-83.5 259.5q0 189 87 280.5t233 91.5t233 -91.5t87 -280.5q0 -170 -83.5 -259.5t-236.5 -89.5zM360 628q-62 0 -89 -60t-27 -223q0 -116 15 -180.5t38.5 -84t62.5 -19.5t62.5 19.5t38.5 84.5t15 183q0 110 -13.5 172t-37.5 85t-65 23z" />
    <glyph glyph-name="Pi" unicode="&#x3a0;" horiz-adv-x="758" 
d="M486 120v495h-214v-495q0 -42 13 -56t49 -14v-50h-309v50q36 0 50 14t14 56v454q0 42 -14 56t-50 14v53h708v-53q-36 0 -50 -14t-14 -56v-454q0 -42 14 -56t50 -14v-50h-309v50q36 0 49 14t13 56z" />
    <glyph glyph-name="Rho" unicode="&#x3a1;" horiz-adv-x="617" 
d="M272 258v-138q0 -43 16.5 -56.5t67.5 -13.5v-50h-331v50q36 0 50 14t14 56v454q0 42 -14 56t-50 14v53h347q113 0 179 -52t66 -165q0 -43 -11 -79t-37 -70t-78.5 -53.5t-126.5 -19.5h-92zM422 481q0 75 -23 105.5t-77 30.5h-50v-274h54q54 0 75 28.5t21 109.5z" />
    <glyph glyph-name="Sigma" unicode="&#x3a3;" horiz-adv-x="592" 
d="M242 332l-229 307v58h521l12 -175h-88q-18 63 -36 82.5t-71 19.5h-115l175 -245l-222 -254h178q52 0 71 18.5t36 78.5h88l-22 -222h-530v65z" />
    <glyph glyph-name="Tau" unicode="&#x3a4;" horiz-adv-x="633" 
d="M27 697h579l12 -197h-87q-9 35 -12.5 46.5t-11 30.5t-15.5 24.5t-21.5 10.5t-33.5 5h-29v-497q0 -42 15.5 -56t58.5 -14v-50h-331v50q43 0 58.5 14t15.5 56v497h-29q-20 0 -33.5 -5t-21.5 -10.5t-15.5 -24.5t-11 -30.5t-12.5 -46.5h-87z" />
    <glyph glyph-name="Upsilon" unicode="&#x3a5;" horiz-adv-x="680" 
d="M384 366h6l93 220q8 19 8 31q0 29 -47 29v51h219v-51q-30 -4 -44 -14.5t-30 -43.5l-157 -327v-141q0 -42 15.5 -56t58.5 -14v-50h-331v50q43 0 58.5 14t15.5 56v140l-164 328q-16 33 -29 43.5t-39 14.5v51h305v-51q-47 0 -47 -33q0 -13 7 -27z" />
    <glyph glyph-name="Phi" unicode="&#x3a6;" horiz-adv-x="901" 
d="M604 697v-53q-32 0 -47.5 -10.5t-15.5 -37.5q167 0 248.5 -59.5t81.5 -188.5q0 -60 -19 -105.5t-49.5 -72t-75.5 -43t-89 -22t-97 -5.5q0 -29 15 -39.5t48 -10.5v-50h-307v50q33 0 48 10.5t15 39.5q-53 0 -97 5.5t-89 22t-75.5 43t-49.5 72t-19 105.5q0 129 81.5 188.5
t248.5 59.5q0 27 -15.5 37.5t-47.5 10.5v53h307zM219 348q0 -88 29 -130t113 -46v352q-79 0 -110.5 -43.5t-31.5 -132.5zM682 348q0 89 -31.5 132.5t-110.5 43.5v-352q84 4 113 46t29 130z" />
    <glyph glyph-name="Chi" unicode="&#x3a7;" horiz-adv-x="713" 
d="M593 588l-147 -208l174 -271q21 -32 34 -43t39 -15v-51h-329v51q25 0 38.5 9.5t13.5 23.5q0 10 -7 21l-100 164h-6l-101 -166q-6 -9 -6 -19q0 -31 50 -33v-51h-226v51q29 4 47 16t37 42l150 234l-155 245q-16 25 -22.5 33.5t-16.5 15.5t-26 9v51h316v-51q-25 0 -38.5 -9
t-13.5 -24q0 -11 6 -21l87 -144h6l91 142q8 14 8 24q0 14 -13.5 23t-36.5 9v51h224v-51q-27 -4 -41 -15t-36 -43z" />
    <glyph glyph-name="Psi" unicode="&#x3a8;" horiz-adv-x="823" 
d="M769 486q-14 -119 -80 -175q-69 -57 -188 -63v-128q0 -42 14 -56t50 -14v-50h-307v50q36 0 50 14t14 56v128q-120 6 -188 64q-66 56 -80 174q-8 73 -16.5 93t-35.5 28l19 102q107 -6 149.5 -46t52.5 -148q9 -93 30 -131t69 -48v238q0 43 -11 56.5t-46 13.5v53h293v-53
q-35 0 -46 -13.5t-11 -56.5v-238q47 10 68.5 48.5t30.5 130.5q10 108 52.5 148t149.5 46l19 -102q-27 -8 -35.5 -28t-16.5 -93z" />
    <glyph glyph-name="uni03A9" unicode="&#x3a9;" horiz-adv-x="738" 
d="M369 634q-71 0 -97.5 -50.5t-26.5 -192.5q0 -106 21.5 -176t73.5 -121v-94h-296l-14 173h71q6 -28 15.5 -44.5t27 -24t32.5 -9t43 -1.5h30q-82 43 -143.5 124t-61.5 182q0 143 92.5 226t232.5 83t232.5 -83t92.5 -226q0 -101 -61.5 -182t-143.5 -124h30q28 0 43 1.5
t32.5 9t27 24t15.5 44.5h71l-14 -173h-296v94q52 51 73.5 121t21.5 176q0 142 -26.5 192.5t-97.5 50.5z" />
    <glyph glyph-name="Iotadieresis" unicode="&#x3aa;" horiz-adv-x="361" 
d="M89 120v454q0 42 -14 56t-50 14v53h311v-53q-36 0 -50 -14t-14 -56v-454q0 -42 14 -56t50 -14v-50h-311v50q36 0 50 14t14 56zM158 830q0 -37 -27 -63t-65 -26t-64.5 26t-26.5 63t27.5 63.5t65.5 26.5t64 -26t26 -64zM387 830q0 -37 -27 -63t-65 -26t-64.5 26t-26.5 63
t27.5 63.5t65.5 26.5t64 -26t26 -64z" />
    <glyph glyph-name="Upsilondieresis" unicode="&#x3ab;" horiz-adv-x="680" 
d="M384 366h6l93 220q8 19 8 31q0 29 -47 29v51h219v-51q-30 -4 -44 -14.5t-30 -43.5l-157 -327v-141q0 -42 15.5 -56t58.5 -14v-50h-331v50q43 0 58.5 14t15.5 56v140l-164 328q-16 33 -29 43.5t-39 14.5v51h305v-51q-47 0 -47 -33q0 -13 7 -27zM317 830q0 -37 -27 -63
t-65 -26t-64.5 26t-26.5 63t27.5 63.5t65.5 26.5t64 -26t26 -64zM546 830q0 -37 -27 -63t-65 -26t-64.5 26t-26.5 63t27.5 63.5t65.5 26.5t64 -26t26 -64z" />
    <glyph glyph-name="alphatonos" unicode="&#x3ac;" horiz-adv-x="629" 
d="M499 -9q-85 0 -113 71q-44 -72 -138 -72q-100 0 -156.5 67.5t-56.5 189.5q0 128 57 205t168 77q80 0 123 -55q7 16 18 37l122 11h30q-12 -46 -12 -129v-261q0 -57 44 -57q18 0 34 4v-54q-61 -34 -120 -34zM369 190v127q0 138 -66 138q-83 0 -83 -197q0 -110 17.5 -152
t54.5 -42q32 0 54.5 36.5t22.5 89.5zM310 557l-100 4l60 214l148 -31z" />
    <glyph glyph-name="epsilontonos" unicode="&#x3ad;" horiz-adv-x="518" 
d="M321 80q76 0 158 46l29 -45q-85 -98 -247 -98q-104 0 -170 37.5t-66 121.5q0 117 145 128v6q-65 12 -93 40t-28 78q0 135 238 135q121 0 196 -39v-114h-125q-1 84 -65 84q-68 0 -68 -81q0 -37 13 -56.5t50 -19.5h52v-72h-49q-44 0 -61.5 -19t-17.5 -56q0 -76 109 -76z
M315 557l-100 4l60 214l148 -31z" />
    <glyph glyph-name="etatonos" unicode="&#x3ae;" horiz-adv-x="661" 
d="M398 137q0 28 1 110t1 126q0 34 -11 44.5t-35 10.5t-50.5 -15.5t-45.5 -38.5v-127q0 -167 -6 -247h-184v35q18 39 18 161v150q0 45 -13.5 58t-57.5 15v57l186 53h30q16 -31 17 -85q37 37 86.5 61t94.5 24q80 0 111.5 -34.5t31.5 -106.5v-261q0 -29 11 -40.5t34 -11.5
t39 4v-58q-51 -30 -125 -30q-72 0 -102.5 43.5t-30.5 102.5zM406 557l-100 4l60 214l148 -31z" />
    <glyph glyph-name="iotatonos" unicode="&#x3af;" horiz-adv-x="309" 
d="M220 529v-402q0 -29 11 -40.5t34 -11.5t39 4v-58q-51 -30 -125 -30q-72 0 -101.5 43t-29.5 103v200q0 128 -3 169l145 23h30zM161 557l-100 4l60 214l148 -31z" />
    <glyph glyph-name="upsilondieresistonos" unicode="&#x3b0;" horiz-adv-x="622" 
d="M356 477v29l154 23q26 -30 51.5 -88t25.5 -123q0 -147 -84 -239t-245 -92q-170 0 -170 161v208q0 41 -16.5 57.5t-66.5 17.5v58q66 36 131 36q125 0 125 -135v-248q0 -87 38 -87q28 0 48.5 22t31 59t15.5 76.5t5 82.5q0 101 -43 182zM215 645q0 -33 -24.5 -56.5
t-58.5 -23.5t-57.5 23.5t-23.5 56.5q0 34 24 57.5t59 23.5q34 0 57.5 -23.5t23.5 -57.5zM531 645q0 -33 -24 -56.5t-58 -23.5t-58 23.5t-24 56.5q0 34 24 57.5t59 23.5q34 0 57.5 -23.5t23.5 -57.5zM315 567l-90 4l28 227l136 -40z" />
    <glyph glyph-name="alpha" unicode="&#x3b1;" horiz-adv-x="629" 
d="M499 -9q-85 0 -113 71q-44 -72 -138 -72q-100 0 -156.5 67.5t-56.5 189.5q0 128 57 205t168 77q80 0 123 -55q7 16 18 37l122 11h30q-12 -46 -12 -129v-261q0 -57 44 -57q18 0 34 4v-54q-61 -34 -120 -34zM369 190v127q0 138 -66 138q-83 0 -83 -197q0 -110 17.5 -152
t54.5 -42q32 0 54.5 36.5t22.5 89.5z" />
    <glyph glyph-name="beta" unicode="&#x3b2;" horiz-adv-x="588" 
d="M326 -13q-28 0 -58.5 7.5t-44.5 18.5q6 -84 6 -147v-50l-180 -24l-5 34q13 69 13 188v522q0 210 237 210q226 0 226 -182q0 -58 -31.5 -100.5t-94.5 -59.5v-5q162 -22 162 -194q0 -218 -230 -218zM299 64q40 0 59 29.5t19 110.5q0 89 -25 125t-81 36h-18v65h22
q39 0 54.5 30t15.5 101q0 121 -53 121q-33 0 -48 -30.5t-15 -120.5v-441q28 -26 70 -26z" />
    <glyph glyph-name="gamma" unicode="&#x3b3;" horiz-adv-x="529" 
d="M370 467v46l132 13l7 -65q0 -95 -41.5 -226.5t-89.5 -212.5q-49 -81 -117.5 -142.5t-182.5 -101.5l-46 116q95 8 138 27t43 56q0 40 -79 279q-22 66 -37.5 102t-33 53.5t-31.5 21t-42 3.5v56q59 32 121 32q71 0 108 -48.5t69 -154.5q35 -112 35 -200q0 -27 -5 -59h5
q29 59 62 178t33 165q0 25 -9.5 39.5t-38.5 22.5z" />
    <glyph glyph-name="delta" unicode="&#x3b4;" horiz-adv-x="578" 
d="M85 595q0 71 54.5 111t148.5 40q95 0 145 -35.5t50 -93.5q0 -23 -9 -49l-68 -25q-39 117 -144 117q-73 0 -73 -41q0 -10 6 -19t24 -21t32.5 -20.5t50.5 -27.5t60 -32q90 -49 138 -106.5t48 -150.5q0 -113 -67 -184t-193 -71q-258 0 -258 236q0 148 139 228
q-84 59 -84 144zM216 228q0 -85 14.5 -129.5t59.5 -44.5q24 0 39 13t22 40t9 54.5t2 69.5q0 62 -25 100.5t-92 74.5q-20 -33 -24.5 -61.5t-4.5 -116.5z" />
    <glyph glyph-name="epsilon" unicode="&#x3b5;" horiz-adv-x="518" 
d="M321 80q76 0 158 46l29 -45q-85 -98 -247 -98q-104 0 -170 37.5t-66 121.5q0 117 145 128v6q-65 12 -93 40t-28 78q0 135 238 135q121 0 196 -39v-114h-125q-1 84 -65 84q-68 0 -68 -81q0 -37 13 -56.5t50 -19.5h52v-72h-49q-44 0 -61.5 -19t-17.5 -56q0 -76 109 -76z
" />
    <glyph glyph-name="zeta" unicode="&#x3b6;" horiz-adv-x="482" 
d="M196 564q-42 21 -68 66t-26 95l59 24q36 -89 134 -103l131 94l71 -19v-28q-12 -74 -62 -111t-128 -37q-95 -95 -95 -272q0 -68 27.5 -96t103.5 -53q80 -26 111.5 -55t31.5 -92q0 -77 -122 -189l-92 52q46 61 46 97q0 23 -16.5 35.5t-56.5 22.5q-116 29 -163 84t-47 165
q0 90 44.5 173.5t116.5 146.5z" />
    <glyph glyph-name="eta" unicode="&#x3b7;" horiz-adv-x="661" 
d="M398 137q0 28 1 110t1 126q0 34 -11 44.5t-35 10.5t-50.5 -15.5t-45.5 -38.5v-127q0 -167 -6 -247h-184v35q18 39 18 161v150q0 45 -13.5 58t-57.5 15v57l186 53h30q16 -31 17 -85q37 37 86.5 61t94.5 24q80 0 111.5 -34.5t31.5 -106.5v-261q0 -29 11 -40.5t34 -11.5
t39 4v-58q-51 -30 -125 -30q-72 0 -102.5 43.5t-30.5 102.5z" />
    <glyph glyph-name="theta" unicode="&#x3b8;" horiz-adv-x="576" 
d="M544 380q0 -195 -73 -294t-186 -99q-124 0 -188.5 98t-64.5 280q0 176 69 279t195 103q114 0 181 -91.5t67 -275.5zM291 54q39 0 55.5 65t18.5 215h-154q1 -149 18 -214.5t62 -65.5zM289 677q-41 0 -59 -61t-19 -215h154q-1 152 -17.5 214t-58.5 62z" />
    <glyph glyph-name="iota" unicode="&#x3b9;" horiz-adv-x="309" 
d="M220 529v-402q0 -29 11 -40.5t34 -11.5t39 4v-58q-51 -30 -125 -30q-72 0 -101.5 43t-29.5 103v200q0 128 -3 169l145 23h30z" />
    <glyph glyph-name="kappa" unicode="&#x3ba;" horiz-adv-x="589" 
d="M420 357q-4 -4 -10 -12l-9 -12l91 -168q20 -30 35.5 -40.5t51.5 -17.5l-13 -116q-53 0 -91 6t-61 15t-41 29t-27 37t-23 50l-36 85l-29 -29q-1 -117 -6 -184h-184v25q18 39 18 171v150q0 45 -13.5 58t-57.5 15v57l186 53h30q27 -52 27 -138v-99q71 75 104 127l18 27
t16 22.5t19.5 21.5t23 15t31.5 13.5t39 7t52 4.5l9 -125l-55 -7q-43 -6 -61 -13t-34 -28z" />
    <glyph glyph-name="lambda" unicode="&#x3bb;" horiz-adv-x="578" 
d="M234 438h-5l-115 -448h-30l-84 26q35 41 60 132l105 381l40 -7l-22 83q-5 18 -14 29t-25 15.5t-29 5.5t-38 1v58q55 32 117 32q111 0 144 -92l155 -527q9 -32 18 -43.5t30 -11.5t37 4v-58q-51 -30 -104 -30q-70 0 -104.5 39t-53.5 107z" />
    <glyph glyph-name="uni03BC" unicode="&#x3bc;" horiz-adv-x="622" 
d="M48 -208l-5 34q14 74 14 188v153q-1 178 -4 341l130 21h45v-359q0 -80 50 -80q47 0 81 38v380l129 21h45v-406q0 -29 11 -40.5t34 -11.5t39 4v-58q-51 -30 -125 -30q-88 0 -118 71q-38 -70 -110 -70q-34 0 -53 9l-5 -3q22 -53 22 -128v-50z" />
    <glyph glyph-name="nu" unicode="&#x3bd;" horiz-adv-x="540" 
d="M351 -9h-121l-143 363q-17 46 -35.5 63.5t-61.5 18.5v56q59 32 121 32q25 0 46 -8t34.5 -19t25.5 -30t18.5 -35t15.5 -40l87 -245h5q33 68 59 142t26 116q0 25 -9.5 39.5t-38.5 22.5v46l133 13l7 -65q0 -100 -51 -229t-118 -241z" />
    <glyph glyph-name="xi" unicode="&#x3be;" horiz-adv-x="490" 
d="M167 574q-41 21 -64 61t-23 90l59 24q34 -84 127 -97l143 87l71 -19v-28q-19 -82 -72 -109.5t-141 -27.5q-44 -33 -44 -80q0 -52 35 -73.5t107 -21.5h40v-72h-37q-78 0 -121.5 -26.5t-43.5 -70.5q0 -39 28 -54.5t116 -36.5q76 -18 109.5 -50t33.5 -90q0 -80 -122 -192
l-92 52q46 61 46 100q0 23 -16 35t-57 20q-112 23 -168 61t-56 113q0 74 61.5 121t138.5 53v6q-151 8 -151 102q0 65 93 123z" />
    <glyph glyph-name="omicron" unicode="&#x3bf;" horiz-adv-x="598" 
d="M563 271q0 -98 -38.5 -163.5t-97 -93t-132.5 -27.5q-125 0 -192.5 70t-67.5 199q0 123 72.5 198t198.5 75q116 0 186.5 -63t70.5 -195zM373 278q0 102 -17.5 141.5t-56.5 39.5q-38 0 -56 -44t-18 -166q0 -107 15.5 -151t60.5 -44q37 0 54.5 51.5t17.5 172.5z" />
    <glyph glyph-name="pi" unicode="&#x3c0;" horiz-adv-x="630" 
d="M481 -9q-72 0 -101.5 43t-29.5 103v108q0 62 5 127h-138q-2 -264 -38 -372h-153l-2 25q91 104 114 347q-54 -3 -96 -43l-37 30q18 77 65.5 117t137.5 40h268q66 0 104 13h30l-19 -136q-31 -20 -72 -21v-245q0 -52 50 -52q23 0 39 4v-58q-51 -30 -127 -30z" />
    <glyph glyph-name="rho" unicode="&#x3c1;" horiz-adv-x="604" 
d="M223 -134v-50l-180 -24l-5 34q13 69 13 188v284q0 109 67 170t190 61t192 -65t69 -193q0 -123 -62 -203.5t-185 -80.5q-34 0 -64.5 12t-41.5 27l-4 -2q11 -88 11 -158zM379 259q0 119 -18 160t-61 41q-77 0 -77 -157v-200q9 -13 30 -25.5t44 -12.5q40 0 61 42.5t21 151.5
z" />
    <glyph glyph-name="sigma1" unicode="&#x3c2;" horiz-adv-x="488" 
d="M212 273q0 -64 24.5 -95t95.5 -56q81 -28 113.5 -56.5t32.5 -88.5q0 -77 -122 -189l-92 52q46 61 46 100q0 22 -16 33.5t-57 21.5q-106 26 -154 89t-48 170q0 128 77.5 201.5t190.5 73.5q109 0 170 -41v-117h-129q-1 51 -8 70t-32 19q-15 0 -29 -8t-29 -27t-24.5 -58
t-9.5 -94z" />
    <glyph glyph-name="sigma" unicode="&#x3c3;" horiz-adv-x="606" 
d="M450 440v-5q49 -33 74 -83.5t25 -102.5q0 -131 -73 -196.5t-187 -65.5q-121 0 -187.5 70.5t-66.5 198.5q0 122 71.5 197.5t193.5 75.5q29 0 79 -6.5t93 -6.5q70 0 116 19l18 -108q-28 -14 -63 -14q-36 0 -93 27zM361 278q0 77 -8 117t-21.5 52t-38.5 12q-24 0 -38 -16
t-22 -63t-8 -131q0 -108 14 -151.5t56 -43.5q36 0 51 50.5t15 173.5z" />
    <glyph glyph-name="tau" unicode="&#x3c4;" horiz-adv-x="585" 
d="M457 372h-81v-245q0 -52 50 -52q23 0 39 4v-58q-51 -30 -127 -30q-72 0 -100 43t-28 103q0 53 3.5 99.5t10 89.5t6.5 46h-81q-55 0 -102 -43l-37 30q18 77 64.5 117t136.5 40h225q66 0 104 13h30l-19 -136q-34 -21 -94 -21z" />
    <glyph glyph-name="upsilon" unicode="&#x3c5;" horiz-adv-x="622" 
d="M356 477v29l154 23q26 -30 51.5 -88t25.5 -123q0 -147 -84 -239t-245 -92q-170 0 -170 161v208q0 41 -16.5 57.5t-66.5 17.5v58q66 36 131 36q125 0 125 -135v-248q0 -87 38 -87q28 0 48.5 22t31 59t15.5 76.5t5 82.5q0 101 -43 182z" />
    <glyph glyph-name="phi" unicode="&#x3c6;" horiz-adv-x="858" 
d="M823 271q0 -44 -5.5 -79t-25 -75t-52.5 -66.5t-93 -44.5t-142 -19v-171l-176 -24l-5 34q11 66 13 161q-144 4 -223 63.5t-79 179.5q0 176 140 296l135 -18q-42 -43 -69.5 -116.5t-27.5 -142.5q0 -99 27.5 -145.5t96.5 -48.5v243q0 231 238 231q248 0 248 -258zM505 303
v-248q67 3 99 57t32 166q0 110 -16 146t-53 36q-32 0 -47 -34t-15 -123z" />
    <glyph glyph-name="chi" unicode="&#x3c7;" horiz-adv-x="557" 
d="M438 -12q-58 0 -87 24.5t-58 83.5l-43 87h-5l-137 -193h-30l-78 26q39 27 99 110l95 129l-71 137q-16 30 -28 39t-35 9q-16 0 -30 -4v58q51 30 119 30q31 0 50.5 -5t35 -20t23.5 -27.5t24 -43.5l33 -65h5l102 159h30l84 -26q-25 -17 -45.5 -38.5t-53.5 -69.5l-68 -100
l93 -158q20 -36 32 -47t31 -11q6 0 32 4v-58q-51 -30 -119 -30z" />
    <glyph glyph-name="psi" unicode="&#x3c8;" horiz-adv-x="841" 
d="M513 736v-681q110 11 110 237q0 98 -46 185v29l147 23q27 -28 54.5 -91t27.5 -124q0 -135 -75 -228.5t-218 -97.5v-172l-175 -24l-5 34q16 91 17 161q-39 1 -74.5 8t-70.5 24t-60.5 42.5t-41 65.5t-15.5 91v138q0 41 -16.5 57.5t-66.5 17.5v58q66 36 131 36q68 0 94 -36
t26 -99v-180q0 -142 94 -154v488q0 62 -5 169l138 23h30z" />
    <glyph glyph-name="omega" unicode="&#x3c9;" horiz-adv-x="824" 
d="M330 263q0 17 -7 101l144 19h30v-241q0 -51 11 -69t30 -18q69 0 69 222q0 118 -51 197v30l148 24q23 -30 54 -102.5t31 -131.5q0 -147 -65.5 -227t-196.5 -80q-105 0 -145 71q-42 -71 -136 -71q-96 0 -153.5 60.5t-57.5 182.5q0 174 142 296l138 -18
q-42 -43 -70.5 -116.5t-28.5 -142.5q0 -104 11.5 -148t46.5 -44q30 0 43 46.5t13 159.5z" />
    <glyph glyph-name="iotadieresis" unicode="&#x3ca;" horiz-adv-x="309" 
d="M220 529v-402q0 -29 11 -40.5t34 -11.5t39 4v-58q-51 -30 -125 -30q-72 0 -101.5 43t-29.5 103v200q0 128 -3 169l145 23h30zM112 650q0 -37 -27 -63t-65 -26t-64.5 26t-26.5 63t27.5 63.5t65.5 26.5t64 -26t26 -64zM341 650q0 -37 -27 -63t-65 -26t-64.5 26t-26.5 63
t27.5 63.5t65.5 26.5t64 -26t26 -64z" />
    <glyph glyph-name="upsilondieresis" unicode="&#x3cb;" horiz-adv-x="622" 
d="M356 477v29l154 23q26 -30 51.5 -88t25.5 -123q0 -147 -84 -239t-245 -92q-170 0 -170 161v208q0 41 -16.5 57.5t-66.5 17.5v58q66 36 131 36q125 0 125 -135v-248q0 -87 38 -87q28 0 48.5 22t31 59t15.5 76.5t5 82.5q0 101 -43 182zM278 650q0 -37 -27 -63t-65 -26
t-64.5 26t-26.5 63t27.5 63.5t65.5 26.5t64 -26t26 -64zM507 650q0 -37 -27 -63t-65 -26t-64.5 26t-26.5 63t27.5 63.5t65.5 26.5t64 -26t26 -64z" />
    <glyph glyph-name="omicrontonos" unicode="&#x3cc;" horiz-adv-x="598" 
d="M563 271q0 -98 -38.5 -163.5t-97 -93t-132.5 -27.5q-125 0 -192.5 70t-67.5 199q0 123 72.5 198t198.5 75q116 0 186.5 -63t70.5 -195zM373 278q0 102 -17.5 141.5t-56.5 39.5q-38 0 -56 -44t-18 -166q0 -107 15.5 -151t60.5 -44q37 0 54.5 51.5t17.5 172.5zM343 557
l-100 4l60 214l148 -31z" />
    <glyph glyph-name="upsilontonos" unicode="&#x3cd;" horiz-adv-x="622" 
d="M356 477v29l154 23q26 -30 51.5 -88t25.5 -123q0 -147 -84 -239t-245 -92q-170 0 -170 161v208q0 41 -16.5 57.5t-66.5 17.5v58q66 36 131 36q125 0 125 -135v-248q0 -87 38 -87q28 0 48.5 22t31 59t15.5 76.5t5 82.5q0 101 -43 182zM339 557l-100 4l60 214l148 -31z" />
    <glyph glyph-name="omegatonos" unicode="&#x3ce;" horiz-adv-x="824" 
d="M330 263q0 17 -7 101l144 19h30v-241q0 -51 11 -69t30 -18q69 0 69 222q0 118 -51 197v30l148 24q23 -30 54 -102.5t31 -131.5q0 -147 -65.5 -227t-196.5 -80q-105 0 -145 71q-42 -71 -136 -71q-96 0 -153.5 60.5t-57.5 182.5q0 174 142 296l138 -18
q-42 -43 -70.5 -116.5t-28.5 -142.5q0 -104 11.5 -148t46.5 -44q30 0 43 46.5t13 159.5zM475 557l-100 4l60 214l148 -31z" />
    <glyph glyph-name="uni03D0" unicode="&#x3d0;" horiz-adv-x="614" 
d="M543 567q0 -106 -126 -170q79 -15 122.5 -63t43.5 -127q0 -220 -270 -220q-128 0 -200.5 86.5t-72.5 258.5q0 223 67.5 318.5t197.5 95.5q118 0 178 -47.5t60 -131.5zM405 206q0 64 -16.5 98.5t-61.5 60.5q-25 -7 -76 -16l-9 68q70 14 98.5 49t28.5 96t-15.5 90.5
t-51.5 29.5q-33 0 -50.5 -25.5t-27 -100.5t-9.5 -216q0 -160 23 -223.5t74 -63.5q93 0 93 153z" />
    <glyph glyph-name="theta1" unicode="&#x3d1;" horiz-adv-x="616" 
d="M25 308l113 33q42 -25 62.5 -60t20.5 -103q0 -72 21 -98.5t61 -26.5q45 0 68 54.5t27 199.5q-164 31 -247.5 86.5t-83.5 157.5q0 88 59.5 141.5t182.5 53.5q65 0 111.5 -18t83 -61.5t54.5 -122t18 -192.5q0 -192 -69.5 -278.5t-201.5 -86.5q-128 0 -191.5 51t-63.5 158
q0 63 -25 112zM241 550q0 -72 35.5 -111.5t122.5 -54.5q-1 100 -6.5 161.5t-18 90.5t-26 37.5t-36.5 8.5q-71 0 -71 -132z" />
    <glyph glyph-name="Upsilon1" unicode="&#x3d2;" horiz-adv-x="669" 
d="M432 217v-107q0 -41 14 -50.5t60 -9.5v-50h-331v50q46 0 60 9.5t14 50.5v97q0 53 -7 100t-25 93.5t-45.5 83t-70.5 65t-99 42.5l13 118q185 0 262 -85t87 -280h4q20 178 85.5 271t202.5 93l13 -89q-121 -20 -179 -125t-58 -277z" />
    <glyph glyph-name="uni03D3" unicode="&#x3d3;" horiz-adv-x="669" 
d="M432 217v-107q0 -41 14 -50.5t60 -9.5v-50h-331v50q46 0 60 9.5t14 50.5v97q0 53 -7 100t-25 93.5t-45.5 83t-70.5 65t-99 42.5l13 118q185 0 262 -85t87 -280h4q20 178 85.5 271t202.5 93l13 -89q-121 -20 -179 -125t-58 -277zM-124 497l-100 4l57 214l148 -31z" />
    <glyph glyph-name="uni03D4" unicode="&#x3d4;" horiz-adv-x="669" 
d="M323 830q0 -37 -27 -63t-65 -26t-64.5 26t-26.5 63t27.5 63.5t65.5 26.5t64 -26t26 -64zM552 830q0 -37 -27 -63t-65 -26t-64.5 26t-26.5 63t27.5 63.5t65.5 26.5t64 -26t26 -64zM432 217v-107q0 -41 14 -50.5t60 -9.5v-50h-331v50q46 0 60 9.5t14 50.5v97q0 53 -7 100
t-25 93.5t-45.5 83t-70.5 65t-99 42.5l13 118q185 0 262 -85t87 -280h4q20 178 85.5 271t202.5 93l13 -89q-121 -20 -179 -125t-58 -277z" />
    <glyph glyph-name="phi1" unicode="&#x3d5;" horiz-adv-x="865" 
d="M515 736v-208q159 -6 236.5 -68t77.5 -190q0 -138 -73.5 -206.5t-240.5 -75.5v-172l-175 -24l-5 34q14 80 15 162q-168 7 -241 75.5t-73 206.5q0 128 77.5 190t236.5 68v16q0 114 -4 169l139 23h30zM644 259q0 101 -32 146.5t-97 52.5v-402q64 5 96.5 47.5t32.5 155.5z
M221 259q0 -78 17 -123t43.5 -61t68.5 -19v402q-65 -7 -97 -52.5t-32 -146.5z" />
    <glyph glyph-name="uni0400" unicode="&#x400;" horiz-adv-x="605" 
d="M25 0v50q36 0 50 14t14 56v454q0 42 -14 56t-50 14v53h514l12 -177h-88q-18 61 -35.5 79t-71.5 18h-84v-230h48q46 0 62 14t19 57h77v-218h-77q-3 42 -19 56.5t-61 14.5h-49v-237h105q48 0 69.5 24t27.5 92h89v-190h-538zM421 766l-25 -39l-260 73l74 146z" />
    <glyph glyph-name="afii10023" unicode="&#x401;" horiz-adv-x="605" 
d="M25 0v50q36 0 50 14t14 56v454q0 42 -14 56t-50 14v53h514l12 -177h-88q-18 61 -35.5 79t-71.5 18h-84v-230h48q46 0 62 14t19 57h77v-218h-77q-3 42 -19 56.5t-61 14.5h-49v-237h105q48 0 69.5 24t27.5 92h89v-190h-538zM283 830q0 -37 -27 -63t-65 -26t-64.5 26
t-26.5 63t27.5 63.5t65.5 26.5t64 -26t26 -64zM512 830q0 -37 -27 -63t-65 -26t-64.5 26t-26.5 63t27.5 63.5t65.5 26.5t64 -26t26 -64z" />
    <glyph glyph-name="afii10051" unicode="&#x402;" horiz-adv-x="848" 
d="M625 260q0 59 -24 82t-79 23q-57 0 -114 -26v-219q0 -41 14.5 -55.5t51.5 -14.5v-50h-323v50q43 0 58.5 14t15.5 56v497h-29q-20 0 -33.5 -5t-21.5 -10.5t-15.5 -24.5t-11 -30.5t-12.5 -46.5h-87l12 197h579l11 -182h-88q-17 65 -33.5 83.5t-58.5 18.5h-29v-199
q91 52 182 52q218 0 218 -197v-60q0 -117 -67.5 -176t-200.5 -85l-22 54q32 15 51.5 29t31.5 27t17 36t6 42t1 59v61z" />
    <glyph glyph-name="afii10052" unicode="&#x403;" horiz-adv-x="570" 
d="M272 617v-497q0 -43 16.5 -56.5t67.5 -13.5v-50h-331v50q36 0 50 14t14 56v454q0 42 -14 56t-50 14v53h523l12 -194h-88q-17 72 -35 93t-72 21h-93zM182 727l-25 39l211 180l74 -146z" />
    <glyph glyph-name="afii10053" unicode="&#x404;" horiz-adv-x="643" 
d="M367 65q57 0 83.5 29t35.5 94h119v-143q-76 -58 -243 -58q-153 0 -237.5 90.5t-84.5 259.5q0 191 87 281.5t242 90.5q129 0 231 -51v-146h-124q-12 59 -37 87.5t-72 28.5q-60 0 -89 -52t-33 -181h218v-85h-219q1 -64 8 -110t17.5 -71.5t27 -40.5t32.5 -19t38 -4z" />
    <glyph glyph-name="afii10054" unicode="&#x405;" horiz-adv-x="556" 
d="M254 -14q-131 0 -229 57v137h119q12 -130 116 -130q106 0 106 103q0 41 -21.5 66t-75.5 39l-72 19q-86 22 -128.5 69.5t-42.5 138.5q0 111 66.5 167.5t182.5 56.5q117 0 213 -48v-150h-118q-7 63 -30.5 95.5t-76.5 32.5q-86 0 -86 -88q0 -36 19 -60t67 -35l68 -16
q195 -47 195 -225q0 -111 -70.5 -170t-201.5 -59z" />
    <glyph glyph-name="afii10055" unicode="&#x406;" horiz-adv-x="361" 
d="M89 120v454q0 42 -14 56t-50 14v53h311v-53q-36 0 -50 -14t-14 -56v-454q0 -42 14 -56t50 -14v-50h-311v50q36 0 50 14t14 56z" />
    <glyph glyph-name="afii10056" unicode="&#x407;" horiz-adv-x="361" 
d="M89 120v454q0 42 -14 56t-50 14v53h311v-53q-36 0 -50 -14t-14 -56v-454q0 -42 14 -56t50 -14v-50h-311v50q36 0 50 14t14 56zM158 830q0 -37 -27 -63t-65 -26t-64.5 26t-26.5 63t27.5 63.5t65.5 26.5t64 -26t26 -64zM387 830q0 -37 -27 -63t-65 -26t-64.5 26t-26.5 63
t27.5 63.5t65.5 26.5t64 -26t26 -64z" />
    <glyph glyph-name="afii10057" unicode="&#x408;" horiz-adv-x="361" 
d="M89 100v474q0 42 -14 56t-50 14v53h311v-53q-36 0 -50 -14t-14 -56v-467q0 -117 -70 -175.5t-207 -78.5l-26 49q76 35 98 73.5t22 124.5z" />
    <glyph glyph-name="afii10058" unicode="&#x409;" horiz-adv-x="990" 
d="M188 574q0 42 -14 56t-50 14v53h575v-53q-36 0 -50 -14t-14 -56v-147h85q113 0 182.5 -52.5t69.5 -162.5q0 -40 -11.5 -75t-38.5 -67.5t-80 -51t-127 -18.5h-325v50q36 0 49 14t13 56v495h-174q-2 -282 -38 -448q-23 -102 -73.5 -142.5t-148.5 -40.5l-14 112q43 10 69 23
t48 41q67 83 67 414zM777 211q0 71 -25 103.5t-79 32.5h-38v-264h42q55 0 77.5 26t22.5 102z" />
    <glyph glyph-name="afii10059" unicode="&#x40a;" horiz-adv-x="998" 
d="M470 120v206h-198v-206q0 -42 12 -56t47 -14v-50h-306v50q36 0 50 14t14 56v454q0 42 -14 56t-50 14v53h306v-53q-35 0 -47 -14t-12 -56v-163h198v163q0 42 -12 56t-47 14v53h306v-53q-36 0 -50 -14t-14 -56v-163h85q114 0 183 -49t69 -155q0 -38 -11.5 -71.5
t-38.5 -65.5t-80 -51t-127 -19h-322v50q35 0 47 14t12 56zM691 331h-38v-248h42q54 0 77 26.5t23 96.5q0 68 -24.5 96.5t-79.5 28.5z" />
    <glyph glyph-name="afii10060" unicode="&#x40b;" horiz-adv-x="882" 
d="M808 120q0 -42 14 -56t50 -14v-50h-301v50q30 0 42 14.5t12 55.5v140q0 59 -24 82t-79 23q-57 0 -114 -26v-219q0 -41 14.5 -55.5t51.5 -14.5v-50h-323v50q43 0 58.5 14t15.5 56v497h-29q-20 0 -33.5 -5t-21.5 -10.5t-15.5 -24.5t-11 -30.5t-12.5 -46.5h-87l12 197h579
l11 -182h-88q-17 65 -33.5 83.5t-58.5 18.5h-29v-199q91 52 182 52q218 0 218 -197v-153z" />
    <glyph glyph-name="afii10061" unicode="&#x40c;" horiz-adv-x="705" 
d="M527 488q-11 -41 -31 -68t-64 -42v-5q74 -6 115 -46t55 -118q5 -27 7.5 -38.5t8.5 -28t13.5 -23t21 -13t32.5 -9.5l-16 -112q-115 0 -170 38t-78 144q-23 104 -38 133.5t-49 29.5h-62v-210q0 -42 12.5 -56t48.5 -14v-50h-308v50q36 0 50 14t14 56v454q0 42 -14 56t-50 14
v53h308v-53q-36 0 -48.5 -14t-12.5 -56v-164h26q64 0 104 30t55 119q13 76 64.5 111.5t142.5 38.5l14 -126l-54 -7q-41 -5 -63.5 -24.5t-33.5 -63.5zM263 727l-25 39l211 180l74 -146z" />
    <glyph glyph-name="uni040D" unicode="&#x40d;" horiz-adv-x="753" 
d="M490 462h-4q-17 -45 -63 -125l-133 -229q-12 -20 -15 -42t-3 -66h-247v50q36 0 50 14t14 56v454q0 42 -14 56t-50 14v53h310v-53q-36 0 -50 -14t-14 -56v-214q0 -45 -8 -125h4q17 45 63 125l133 229q12 20 15 42t3 66h247v-53q-36 0 -50 -14t-14 -56v-454q0 -42 14 -56
t50 -14v-50h-310v50q36 0 50 14t14 56v217q0 45 8 125zM511 766l-25 -39l-260 73l74 146z" />
    <glyph glyph-name="afii10062" unicode="&#x40e;" horiz-adv-x="701" 
d="M329 185l-47 -5l-206 411q-16 33 -26.5 42t-34.5 13v51h306v-51q-54 0 -54 -36q0 -11 4 -20l114 -251h20q1 18 39 100l68 149q4 9 4 19q0 39 -57 39v51h227v-51q-30 -4 -43 -14.5t-28 -43.5l-189 -408q-31 -66 -49.5 -97.5t-48.5 -57.5t-68 -33.5t-101 -7.5l-14 116
q83 9 123.5 26.5t60.5 58.5zM368 730q-69 0 -113 41.5t-59 107.5l40 22q45 -68 132 -68t132 68l40 -22q-15 -66 -59 -107.5t-113 -41.5z" />
    <glyph glyph-name="afii10145" unicode="&#x40f;" horiz-adv-x="758" 
d="M436 -180h-114q0 180 -52 180h-245v50q36 0 50 14t14 56v454q0 42 -14 56t-50 14v53h309v-53q-36 0 -49 -14t-13 -56v-492h214v492q0 42 -13 56t-49 14v53h309v-53q-36 0 -50 -14t-14 -56v-454q0 -42 14 -56t50 -14v-50h-245q-52 0 -52 -180z" />
    <glyph glyph-name="afii10017" unicode="&#x410;" horiz-adv-x="677" 
d="M425 98l-25 77h-207l-21 -77q-4 -12 -4 -21q0 -15 13 -19.5t48 -6.5v-51h-224v51q32 4 45 14.5t24 43.5l190 588h142l206 -588q12 -32 23 -43t37 -15v-51h-300v51q33 1 45.5 7t12.5 18q0 7 -5 22zM267 435l-50 -175h155l-58 178q-13 41 -20 80h-6q-5 -32 -21 -83z" />
    <glyph glyph-name="afii10018" unicode="&#x411;" horiz-adv-x="631" 
d="M355 621h-83v-194h95q113 0 182.5 -52.5t69.5 -162.5q0 -40 -11.5 -75t-38.5 -67.5t-80 -51t-127 -18.5h-337v50q36 0 50 14t14 56v454q0 42 -14 56t-50 14v53h513l13 -187h-87q-14 68 -34 89.5t-75 21.5zM424 211q0 71 -25 103.5t-79 32.5h-48v-264h52q55 0 77.5 26
t22.5 102z" />
    <glyph glyph-name="afii10019" unicode="&#x412;" horiz-adv-x="646" 
d="M25 0v50q36 0 50 14t14 56v454q0 42 -14 56t-50 14v53h350q102 0 167 -47.5t65 -141.5q0 -135 -157 -156v-4q181 -17 181 -171q0 -87 -55 -132t-180 -45h-371zM272 74h59q58 0 83 24.5t25 93.5q0 63 -24.5 91t-76.5 28h-66v-237zM272 388h44q55 0 75.5 22.5t20.5 92.5
q0 63 -23 88.5t-77 25.5h-40v-229z" />
    <glyph glyph-name="afii10020" unicode="&#x413;" horiz-adv-x="570" 
d="M272 617v-497q0 -43 16.5 -56.5t67.5 -13.5v-50h-331v50q36 0 50 14t14 56v454q0 42 -14 56t-50 14v53h523l12 -194h-88q-17 72 -35 93t-72 21h-93z" />
    <glyph glyph-name="afii10021" unicode="&#x414;" horiz-adv-x="727" 
d="M109 -180h-105v262h39q40 27 73 87q31 59 42 144t11 261q0 42 -14 56t-50 14v53h587v-53q-36 0 -50 -14t-14 -56v-449q0 -43 54 -43h30v-82l-28 -180h-98q0 105 -8 142.5t-34 37.5h-367q-68 0 -68 -180zM182 89v-7h263v533h-184q-2 -293 -30 -404q-22 -85 -49 -122z" />
    <glyph glyph-name="afii10022" unicode="&#x415;" horiz-adv-x="605" 
d="M25 0v50q36 0 50 14t14 56v454q0 42 -14 56t-50 14v53h514l12 -177h-88q-18 61 -35.5 79t-71.5 18h-84v-230h48q46 0 62 14t19 57h77v-218h-77q-3 42 -19 56.5t-61 14.5h-49v-237h105q48 0 69.5 24t27.5 92h89v-190h-538z" />
    <glyph glyph-name="afii10024" unicode="&#x416;" horiz-adv-x="1029" 
d="M655 330h-49v-210q0 -42 12.5 -56t48.5 -14v-50h-305v50q36 0 48.5 14t12.5 56v210h-49q-37 0 -53.5 -30t-38.5 -133q-23 -107 -77 -144.5t-169 -37.5l-16 112q45 7 59 29t25 83q14 78 54.5 118t114.5 46v5q-44 15 -64 42t-31 68q-11 44 -33.5 63.5t-63.5 24.5l-54 7
l14 126q91 -3 142.5 -38.5t64.5 -111.5q15 -89 55 -119t104 -30h16v164q0 42 -12.5 56t-48.5 14v53h305v-53q-36 0 -48.5 -14t-12.5 -56v-164h16q64 0 104 30t55 119q13 76 64.5 111.5t142.5 38.5l14 -126l-54 -7q-41 -5 -63.5 -24.5t-33.5 -63.5q-11 -41 -31 -68t-64 -42
v-5q74 -6 114.5 -46t54.5 -118q8 -43 13.5 -60.5t22 -32t48.5 -19.5l-16 -112q-114 0 -168 37.5t-77 144.5q-22 102 -39 132.5t-54 30.5z" />
    <glyph glyph-name="afii10025" unicode="&#x417;" horiz-adv-x="592" 
d="M255 323h-76v83h76q48 0 73 29t25 83q0 49 -22 79.5t-66 30.5q-43 0 -66.5 -28t-33.5 -88h-119v141q90 56 226 56q140 0 207 -50t67 -130q0 -60 -39.5 -101t-118.5 -55v-4q87 -10 138 -52.5t51 -118.5q0 -101 -75 -156t-209 -55q-77 0 -148.5 17.5t-104.5 43.5v150h119
q9 -66 36 -99.5t79 -33.5q54 0 81 35.5t27 95.5q0 127 -127 127z" />
    <glyph glyph-name="afii10026" unicode="&#x418;" horiz-adv-x="753" 
d="M490 462h-4q-17 -45 -63 -125l-133 -229q-12 -20 -15 -42t-3 -66h-247v50q36 0 50 14t14 56v454q0 42 -14 56t-50 14v53h310v-53q-36 0 -50 -14t-14 -56v-214q0 -45 -8 -125h4q17 45 63 125l133 229q12 20 15 42t3 66h247v-53q-36 0 -50 -14t-14 -56v-454q0 -42 14 -56
t50 -14v-50h-310v50q36 0 50 14t14 56v217q0 45 8 125z" />
    <glyph glyph-name="afii10027" unicode="&#x419;" horiz-adv-x="753" 
d="M490 462h-4q-17 -45 -63 -125l-133 -229q-12 -20 -15 -42t-3 -66h-247v50q36 0 50 14t14 56v454q0 42 -14 56t-50 14v53h310v-53q-36 0 -50 -14t-14 -56v-214q0 -45 -8 -125h4q17 45 63 125l133 229q12 20 15 42t3 66h247v-53q-36 0 -50 -14t-14 -56v-454q0 -42 14 -56
t50 -14v-50h-310v50q36 0 50 14t14 56v217q0 45 8 125zM376 730q-69 0 -113 41.5t-59 107.5l40 22q45 -68 132 -68t132 68l40 -22q-15 -66 -59 -107.5t-113 -41.5z" />
    <glyph glyph-name="afii10028" unicode="&#x41a;" horiz-adv-x="705" 
d="M527 488q-11 -41 -31 -68t-64 -42v-5q74 -6 115 -46t55 -118q5 -27 7.5 -38.5t8.5 -28t13.5 -23t21 -13t32.5 -9.5l-16 -112q-115 0 -170 38t-78 144q-23 104 -38 133.5t-49 29.5h-62v-210q0 -42 12.5 -56t48.5 -14v-50h-308v50q36 0 50 14t14 56v454q0 42 -14 56t-50 14
v53h308v-53q-36 0 -48.5 -14t-12.5 -56v-164h26q64 0 104 30t55 119q13 76 64.5 111.5t142.5 38.5l14 -126l-54 -7q-41 -5 -63.5 -24.5t-33.5 -63.5z" />
    <glyph glyph-name="afii10029" unicode="&#x41b;" horiz-adv-x="736" 
d="M188 574q0 42 -14 56t-50 14v53h587v-53q-36 0 -50 -14t-14 -56v-454q0 -42 14 -56t50 -14v-50h-309v50q36 0 49 14t13 56v495h-186q-2 -282 -38 -448q-23 -102 -73.5 -142.5t-148.5 -40.5l-14 112q43 10 69 23t48 41q67 83 67 414z" />
    <glyph glyph-name="afii10030" unicode="&#x41c;" horiz-adv-x="912" 
d="M852 697v-52q-49 -3 -61 -18t-8 -58l40 -443q4 -45 16.5 -60.5t52.5 -16.5v-49h-314v49q46 1 56.5 14.5t6.5 57.5l-26 305q-3 39 -3 104v22h-4q-13 -73 -25 -117l-113 -435h-107l-124 407q-10 34 -32 146h-4q-4 -108 -6 -140l-18 -291q-2 -44 9.5 -58.5t51.5 -14.5v-49
h-220v49q41 1 54 17t16 62l30 441q2 30 0 42.5t-18 22.5t-51 11v52h286l92 -304q17 -59 28 -143h4q18 104 28 143l78 304h285z" />
    <glyph glyph-name="afii10031" unicode="&#x41d;" horiz-adv-x="762" 
d="M490 120v190h-218v-190q0 -42 14 -56t50 -14v-50h-311v50q36 0 50 14t14 56v454q0 42 -14 56t-50 14v53h311v-53q-36 0 -50 -14t-14 -56v-179h218v179q0 42 -14 56t-50 14v53h311v-53q-36 0 -50 -14t-14 -56v-454q0 -42 14 -56t50 -14v-50h-311v50q36 0 50 14t14 56z" />
    <glyph glyph-name="afii10032" unicode="&#x41e;" horiz-adv-x="720" 
d="M360 -12q-153 0 -236.5 89.5t-83.5 259.5q0 189 87 280.5t233 91.5t233 -91.5t87 -280.5q0 -170 -83.5 -259.5t-236.5 -89.5zM360 628q-62 0 -89 -60t-27 -223q0 -116 15 -180.5t38.5 -84t62.5 -19.5t62.5 19.5t38.5 84.5t15 183q0 110 -13.5 172t-37.5 85t-65 23z" />
    <glyph glyph-name="afii10033" unicode="&#x41f;" horiz-adv-x="758" 
d="M486 120v495h-214v-495q0 -42 13 -56t49 -14v-50h-309v50q36 0 50 14t14 56v454q0 42 -14 56t-50 14v53h708v-53q-36 0 -50 -14t-14 -56v-454q0 -42 14 -56t50 -14v-50h-309v50q36 0 49 14t13 56z" />
    <glyph glyph-name="afii10034" unicode="&#x420;" horiz-adv-x="617" 
d="M272 258v-138q0 -43 16.5 -56.5t67.5 -13.5v-50h-331v50q36 0 50 14t14 56v454q0 42 -14 56t-50 14v53h347q113 0 179 -52t66 -165q0 -43 -11 -79t-37 -70t-78.5 -53.5t-126.5 -19.5h-92zM422 481q0 75 -23 105.5t-77 30.5h-50v-274h54q54 0 75 28.5t21 109.5z" />
    <glyph glyph-name="afii10035" unicode="&#x421;" horiz-adv-x="638" 
d="M360 -13q-153 0 -236.5 90t-83.5 260q0 190 89 281t245 91q139 0 221 -51v-146h-124q-12 62 -33 89t-66 27t-71.5 -23t-41.5 -86t-15 -174q0 -88 9 -145.5t27 -86t38 -38.5t50 -10q56 0 79.5 28.5t33.5 94.5h119v-143q-33 -25 -99.5 -41.5t-140.5 -16.5z" />
    <glyph glyph-name="afii10036" unicode="&#x422;" horiz-adv-x="633" 
d="M27 697h579l12 -197h-87q-9 35 -12.5 46.5t-11 30.5t-15.5 24.5t-21.5 10.5t-33.5 5h-29v-497q0 -42 15.5 -56t58.5 -14v-50h-331v50q43 0 58.5 14t15.5 56v497h-29q-20 0 -33.5 -5t-21.5 -10.5t-15.5 -24.5t-11 -30.5t-12.5 -46.5h-87z" />
    <glyph glyph-name="afii10037" unicode="&#x423;" horiz-adv-x="701" 
d="M329 185l-47 -5l-206 411q-16 33 -26.5 42t-34.5 13v51h306v-51q-54 0 -54 -36q0 -11 4 -20l114 -251h20q1 18 39 100l68 149q4 9 4 19q0 39 -57 39v51h227v-51q-30 -4 -43 -14.5t-28 -43.5l-189 -408q-31 -66 -49.5 -97.5t-48.5 -57.5t-68 -33.5t-101 -7.5l-14 116
q83 9 123.5 26.5t60.5 58.5z" />
    <glyph glyph-name="afii10038" unicode="&#x424;" horiz-adv-x="901" 
d="M361 172v387q-46 -2 -75.5 -17t-43.5 -43.5t-18.5 -58t-4.5 -74.5q0 -37 2.5 -62t11 -50.5t23.5 -41t41.5 -26.5t63.5 -14zM541 100q0 -29 15 -39.5t48 -10.5v-50h-307v50q33 0 48 10.5t15 39.5q-74 0 -130.5 12t-103.5 41t-71.5 82.5t-24.5 130.5q0 73 23 124.5t68 81.5
t103 44t136 16q0 27 -15.5 37.5t-47.5 10.5v53h307v-53q-33 0 -48 -10.5t-15 -37.5q78 -2 136 -16t103 -44t68 -81.5t23 -124.5q0 -77 -24.5 -130.5t-71.5 -82.5t-103.5 -41t-130.5 -12zM540 559v-387q37 3 63.5 14t41.5 26.5t23.5 41t11 50.5t2.5 62q0 45 -4.5 74.5
t-18.5 58t-43.5 43.5t-75.5 17z" />
    <glyph glyph-name="afii10039" unicode="&#x425;" horiz-adv-x="713" 
d="M593 588l-147 -208l174 -271q21 -32 34 -43t39 -15v-51h-329v51q25 0 38.5 9.5t13.5 23.5q0 10 -7 21l-100 164h-6l-101 -166q-6 -9 -6 -19q0 -31 50 -33v-51h-226v51q29 4 47 16t37 42l150 234l-155 245q-16 25 -22.5 33.5t-16.5 15.5t-26 9v51h316v-51q-25 0 -38.5 -9
t-13.5 -24q0 -11 6 -21l87 -144h6l91 142q8 14 8 24q0 14 -13.5 23t-36.5 9v51h224v-51q-27 -4 -41 -15t-36 -43z" />
    <glyph glyph-name="afii10040" unicode="&#x426;" horiz-adv-x="768" 
d="M725 -180h-98q0 105 -8 142.5t-34 37.5h-560v50q36 0 50 14t14 56v454q0 42 -14 56t-50 14v53h309v-53q-36 0 -49 -14t-13 -56v-492h214v492q0 42 -13 56t-49 14v53h309v-53q-36 0 -50 -14t-14 -56v-449q0 -23 14.5 -33t49.5 -10h20v-82z" />
    <glyph glyph-name="afii10041" unicode="&#x427;" horiz-adv-x="746" 
d="M74 574q0 42 -14 56t-50 14v53h301v-53q-30 0 -42 -14.5t-12 -55.5v-167q0 -57 26 -81t77 -24q54 0 114 25v247q0 41 -12 55.5t-42 14.5v53h301v-53q-36 0 -50 -14t-14 -56v-454q0 -42 14 -56t50 -14v-50h-311v50q36 0 50 14t14 56v126q-83 -49 -172 -49q-228 0 -228 197
v180z" />
    <glyph glyph-name="afii10042" unicode="&#x428;" horiz-adv-x="1059" 
d="M25 0v50q36 0 50 14t14 56v454q0 42 -14 56t-50 14v53h297v-53q-28 0 -40 -14.5t-12 -55.5v-495h164v495q0 41 -12 55.5t-40 14.5v53h295v-53q-36 0 -50 -14t-14 -56v-495h176v495q0 41 -12 55.5t-40 14.5v53h297v-53q-36 0 -50 -14t-14 -56v-454q0 -42 14 -56t50 -14
v-50h-1009z" />
    <glyph glyph-name="afii10043" unicode="&#x429;" horiz-adv-x="1069" 
d="M25 0v50q36 0 50 14t14 56v454q0 42 -14 56t-50 14v53h297v-53q-28 0 -40 -14.5t-12 -55.5v-495h164v495q0 41 -12 55.5t-40 14.5v53h295v-53q-36 0 -50 -14t-14 -56v-495h176v495q0 41 -12 55.5t-40 14.5v53h297v-53q-36 0 -50 -14t-14 -56v-449q0 -23 14.5 -33
t49.5 -10h20v-82l-28 -180h-98q0 105 -8 142.5t-34 37.5h-861z" />
    <glyph glyph-name="afii10044" unicode="&#x42a;" horiz-adv-x="782" 
d="M517 0h-337v50q36 0 50 14t14 56v497h-39q-54 0 -72 -21t-35 -93h-88l12 194h469v-53q-36 0 -50 -14t-14 -56v-147h95q113 0 182.5 -52.5t69.5 -162.5q0 -40 -11.5 -75t-38.5 -67.5t-80 -51t-127 -18.5zM579 211q0 71 -25 103.5t-79 32.5h-48v-264h52q55 0 77.5 26
t22.5 102z" />
    <glyph glyph-name="afii10045" unicode="&#x42b;" horiz-adv-x="968" 
d="M352 0h-327v50q36 0 50 14t14 56v454q0 42 -14 56t-50 14v53h311v-53q-36 0 -50 -14t-14 -56v-147h85q113 0 182.5 -52.5t69.5 -162.5q0 -40 -11.5 -75t-38.5 -67.5t-80 -51t-127 -18.5zM414 211q0 71 -25 103.5t-79 32.5h-38v-264h42q55 0 77.5 26t22.5 102zM696 120
v454q0 42 -14 56t-50 14v53h311v-53q-36 0 -50 -14t-14 -56v-454q0 -42 14 -56t50 -14v-50h-311v50q36 0 50 14t14 56z" />
    <glyph glyph-name="afii10046" unicode="&#x42c;" horiz-adv-x="627" 
d="M362 0h-337v50q36 0 50 14t14 56v454q0 42 -14 56t-50 14v53h311v-53q-36 0 -50 -14t-14 -56v-147h95q113 0 182.5 -52.5t69.5 -162.5q0 -40 -11.5 -75t-38.5 -67.5t-80 -51t-127 -18.5zM424 211q0 71 -25 103.5t-79 32.5h-48v-264h52q55 0 77.5 26t22.5 102z" />
    <glyph glyph-name="afii10047" unicode="&#x42d;" horiz-adv-x="643" 
d="M180 310v85h218q-5 129 -34 181t-88 52q-47 0 -72 -28.5t-37 -87.5h-124v146q104 51 236 51q155 0 239.5 -90.5t84.5 -281.5q0 -170 -82.5 -260t-234.5 -90q-83 0 -148.5 16t-99.5 42v143h119q9 -65 35.5 -94t83.5 -29q22 0 37.5 4t32.5 19t27 40.5t17.5 71.5t8.5 110
h-219z" />
    <glyph glyph-name="afii10048" unicode="&#x42e;" horiz-adv-x="1032" 
d="M682 -12q-143 0 -223 82.5t-87 239.5h-100v-190q0 -42 14 -56t50 -14v-50h-311v50q36 0 50 14t14 56v454q0 42 -14 56t-50 14v53h311v-53q-36 0 -50 -14t-14 -56v-179h102q13 160 95.5 237t212.5 77q142 0 226 -91.5t84 -280.5q0 -170 -80.5 -259.5t-229.5 -89.5z
M682 628q-38 0 -60.5 -23.5t-34 -85.5t-11.5 -174q0 -117 13.5 -181t35 -83.5t57.5 -19.5t57.5 19.5t35 84.5t13.5 183q0 110 -11.5 172t-34 85t-60.5 23z" />
    <glyph glyph-name="afii10049" unicode="&#x42f;" horiz-adv-x="665" 
d="M223 308v4q-78 7 -130 51t-52 131q0 106 66 154.5t179 48.5h354v-53q-36 0 -50 -14t-14 -56v-454q0 -42 14 -56t50 -14v-50h-304v50q31 0 44 14.5t13 55.5v164q-28 0 -41 -2t-30.5 -13t-29 -36t-23.5 -69q-28 -106 -83 -142.5t-170 -36.5l-16 112q22 3 37 10t23.5 21
t12.5 24t10 32q16 61 44 89.5t96 34.5zM236 494q0 -75 19.5 -100.5t66.5 -25.5h71v249h-61q-51 0 -73.5 -28t-22.5 -95z" />
    <glyph glyph-name="afii10065" unicode="&#x430;" horiz-adv-x="552" 
d="M483 158q0 -55 11.5 -71t47.5 -16v-48q-44 -29 -116 -29q-43 0 -71.5 18.5t-36.5 50.5q-14 -32 -48.5 -54t-90.5 -22q-71 0 -115 36.5t-44 112.5q0 170 239 170q28 0 54 -2v47q0 54 -15 79t-49 25q-32 0 -45.5 -22.5t-19.5 -69.5h-129v108q97 58 227 58q93 0 149 -42
t56 -126q0 -7 -2 -78.5t-2 -124.5zM311 244h-35q-37 0 -58 -21.5t-21 -62.5q0 -66 49 -66q40 0 62 23z" />
    <glyph glyph-name="afii10066" unicode="&#x431;" horiz-adv-x="576" 
d="M415 600l-91 -25q-96 -26 -136 -69t-41 -134h7q18 66 63.5 100t111.5 34q106 0 160.5 -63.5t54.5 -184.5t-69.5 -196t-191.5 -75q-248 0 -248 311q0 329 219 396l96 29q63 20 87 43l88 -82q-29 -61 -110 -84zM286 436q-42 0 -58.5 -46.5t-16.5 -134.5q0 -202 76 -202
q23 0 37.5 14t21 44.5t8.5 61.5t2 83q0 93 -15.5 136.5t-54.5 43.5z" />
    <glyph glyph-name="afii10067" unicode="&#x432;" horiz-adv-x="568" 
d="M82 394q0 43 -11 56.5t-46 13.5v52h236q145 0 197.5 -28.5t52.5 -101.5q0 -89 -124 -113v-6q146 -11 146 -121q0 -85 -65 -115.5t-199 -30.5h-244v50q35 0 46 13.5t11 56.5v274zM267 228h-14v-153h17q42 0 58.5 13t16.5 61q0 50 -15.5 64.5t-62.5 14.5zM265 443h-12v-143
h17q38 0 50 18t12 61q0 38 -15.5 51t-51.5 13z" />
    <glyph glyph-name="afii10068" unicode="&#x433;" horiz-adv-x="491" 
d="M25 516h443l11 -183h-81q-8 31 -11 43t-10 29t-15 22.5t-20.5 10t-30.5 4.5h-56v-322q0 -43 12 -56.5t49 -13.5v-50h-291v50q35 0 46 13.5t11 56.5v274q0 43 -11 56.5t-46 13.5v52z" />
    <glyph glyph-name="afii10069" unicode="&#x434;" horiz-adv-x="636" 
d="M459 0h-302q-24 0 -33 -34.5t-9 -110.5h-105v222h28q47 28 70 74q16 32 23.5 73.5t8.5 73t1 96.5q0 43 -11 56.5t-46 13.5v52h516v-52q-35 0 -46 -13.5t-11 -56.5v-267q0 -37 10 -48h68v-79l-23 -145h-97q0 77 -8.5 111t-33.5 34zM181 82v-5h189v360h-140
q0 -158 -16 -264q-10 -65 -33 -91z" />
    <glyph glyph-name="afii10070" unicode="&#x435;" horiz-adv-x="549" 
d="M351 85q68 0 133 31l26 -44q-82 -85 -222 -85q-121 0 -187 71t-66 201q0 127 68.5 198.5t185.5 71.5q122 0 176 -64t54 -186v-49h-297q3 -77 32 -111t97 -34zM291 460q-33 0 -48 -33t-20 -121h126q0 89 -12.5 121.5t-45.5 32.5z" />
    <glyph glyph-name="afii10072" unicode="&#x436;" horiz-adv-x="869" 
d="M833 411l-47 -5q-35 -4 -53 -19.5t-26 -43.5q-8 -29 -27 -45.5t-56 -27.5v-4q83 -2 115.5 -25t43.5 -71q9 -39 23 -57t43 -25l-14 -104q-107 0 -148.5 25t-57.5 101q-15 69 -31.5 91.5t-51.5 22.5h-27v-104q0 -42 9.5 -56t37.5 -14v-50h-263v50q28 0 37.5 14t9.5 56v104
h-27q-35 0 -51.5 -22.5t-31.5 -91.5q-16 -76 -57.5 -101t-148.5 -25l-14 104q29 7 43 25t23 57q11 48 43.5 71t115.5 25v4q-37 11 -56 27.5t-27 45.5q-16 55 -80 63l-47 5l11 118q86 -3 128.5 -31.5t54.5 -98.5q16 -101 116 -101h5v96q0 42 -10.5 56t-38.5 14v52h267v-52
q-28 0 -38.5 -14t-10.5 -56v-96h5q100 0 116 101q12 70 54.5 98.5t128.5 31.5z" />
    <glyph glyph-name="afii10073" unicode="&#x437;" horiz-adv-x="513" 
d="M228 -13q-125 0 -198 44v112h123q4 -46 21 -65.5t48 -19.5q34 0 51.5 18t17.5 63q0 52 -15.5 70.5t-60.5 18.5h-43v72h46q37 0 48.5 20t11.5 59q0 43 -12.5 62t-44.5 19q-60 0 -61 -84h-125v110q83 43 192 43q122 0 175 -34.5t53 -100.5q0 -50 -29 -79t-94 -42v-6
q146 -11 146 -122q0 -43 -21.5 -75t-58 -49.5t-79 -25.5t-91.5 -8z" />
    <glyph glyph-name="afii10074" unicode="&#x438;" horiz-adv-x="673" 
d="M422 120v82q0 86 8 134h-6q-16 -53 -47 -99l-110 -163q-15 -24 -15 -74h-227v50q35 0 46 13.5t11 56.5v274q0 43 -11 56.5t-46 13.5v52h276v-52q-29 0 -39.5 -14t-10.5 -56v-80q0 -86 -8 -134h6q16 53 47 99l110 163q15 24 15 74h227v-52q-35 0 -46 -13.5t-11 -56.5v-274
q0 -43 11 -56.5t46 -13.5v-50h-279l3 50q29 0 39.5 14t10.5 56z" />
    <glyph glyph-name="afii10075" unicode="&#x439;" horiz-adv-x="673" 
d="M422 120v82q0 86 8 134h-6q-16 -53 -47 -99l-110 -163q-15 -24 -15 -74h-227v50q35 0 46 13.5t11 56.5v274q0 43 -11 56.5t-46 13.5v52h276v-52q-29 0 -39.5 -14t-10.5 -56v-80q0 -86 -8 -134h6q16 53 47 99l110 163q15 24 15 74h227v-52q-35 0 -46 -13.5t-11 -56.5v-274
q0 -43 11 -56.5t46 -13.5v-50h-279l3 50q29 0 39.5 14t10.5 56zM337 564q-69 0 -113 41.5t-59 107.5l40 22q45 -68 132 -68t132 68l40 -22q-15 -66 -59 -107.5t-113 -41.5z" />
    <glyph glyph-name="afii10076" unicode="&#x43a;" horiz-adv-x="612" 
d="M576 411l-47 -5q-35 -4 -53 -19.5t-26 -43.5q-8 -29 -27 -45.5t-56 -27.5v-4q83 -2 118 -25.5t46 -70.5q10 -41 21.5 -58.5t39.5 -23.5l-14 -104q-107 0 -148.5 25t-57.5 101q-15 70 -31 92t-52 22h-34v-104q0 -42 9.5 -56t37.5 -14v-50h-277v50q35 0 46 13.5t11 56.5
v274q0 43 -11 56.5t-46 13.5v52h279v-52q-28 0 -38.5 -14t-10.5 -56v-96h10q102 0 118 101q12 70 54.5 98.5t128.5 31.5z" />
    <glyph glyph-name="afii10077" unicode="&#x43b;" horiz-adv-x="625" 
d="M141 394q0 43 -11 56.5t-46 13.5v52h516v-52q-35 0 -46 -13.5t-11 -56.5v-274q0 -43 11 -56.5t46 -13.5v-50h-279v50q28 0 38.5 14t10.5 56v317h-140q0 -160 -15 -266q-15 -103 -55.5 -144.5t-142.5 -41.5l-13 107q37 9 57.5 20t37.5 34q27 37 34.5 95t7.5 153z" />
    <glyph glyph-name="afii10078" unicode="&#x43c;" horiz-adv-x="760" 
d="M20 0v50q35 0 46 13.5t14 56.5l17 274q0 15 -1 22q-2 28 -14 38t-42 10v52h236l71 -230q21 -68 23 -111h6q2 52 24 110l86 231h234v-52q-30 0 -42 -10t-14 -38q-1 -7 -1 -22l17 -274q3 -43 14 -56.5t46 -13.5v-50h-269v50q26 0 36.5 11t10.5 41q0 5 -3 47l-7 92
q-4 59 -5 91h-5q-5 -63 -17 -104l-72 -228h-125l-66 195q-23 68 -28 136h-6q-3 -72 -5 -93l-7 -97q-2 -24 -2 -39q0 -30 10.5 -41t36.5 -11v-50h-197z" />
    <glyph glyph-name="afii10079" unicode="&#x43d;" horiz-adv-x="677" 
d="M422 394q0 42 -10.5 56t-38.5 14v52h279v-52q-35 0 -46 -13.5t-11 -56.5v-274q0 -43 11 -56.5t46 -13.5v-50h-279v50q28 0 38.5 14t10.5 56v100h-167v-100q0 -42 10.5 -56t38.5 -14v-50h-279v50q35 0 46 13.5t11 56.5v274q0 43 -11 56.5t-46 13.5v52h279v-52
q-28 0 -38.5 -14t-10.5 -56v-93h167v93z" />
    <glyph glyph-name="afii10080" unicode="&#x43e;" horiz-adv-x="598" 
d="M563 271q0 -98 -38.5 -163.5t-97 -93t-132.5 -27.5q-125 0 -192.5 70t-67.5 199q0 123 72.5 198t198.5 75q116 0 186.5 -63t70.5 -195zM373 278q0 102 -17.5 141.5t-56.5 39.5q-38 0 -56 -44t-18 -166q0 -107 15.5 -151t60.5 -44q37 0 54.5 51.5t17.5 172.5z" />
    <glyph glyph-name="afii10081" unicode="&#x43f;" horiz-adv-x="673" 
d="M82 394q0 43 -11 56.5t-46 13.5v52h623v-52q-35 0 -46 -13.5t-11 -56.5v-274q0 -43 11 -56.5t46 -13.5v-50h-279v50q28 0 38.5 14t10.5 56v317h-163v-317q0 -42 10.5 -56t38.5 -14v-50h-279v50q35 0 46 13.5t11 56.5v274z" />
    <glyph glyph-name="afii10082" unicode="&#x440;" horiz-adv-x="635" 
d="M417 243q0 96 -21.5 134t-63.5 38q-46 0 -77 -30v-281q24 -28 71 -28q44 0 67.5 37t23.5 130zM249 444q19 37 57.5 61t91.5 24q95 0 148.5 -67t53.5 -201q0 -143 -66 -208.5t-177 -65.5q-70 0 -102 40v-103q0 -43 11 -56.5t46 -13.5v-50h-287v50q35 0 46 13.5t11 56.5
v431q0 54 -10 68.5t-45 16.5v49l176 40h15q26 -37 31 -85z" />
    <glyph glyph-name="afii10083" unicode="&#x441;" horiz-adv-x="503" 
d="M473 488v-117h-129q-1 51 -8 70t-32 19q-15 0 -29 -8t-29 -27t-24.5 -58t-9.5 -94q0 -101 38 -145.5t95 -44.5t112 28l27 -43q-68 -81 -197 -81q-110 0 -181 67.5t-71 195.5q0 131 77.5 205t190.5 74q109 0 170 -41z" />
    <glyph glyph-name="afii10084" unicode="&#x442;" horiz-adv-x="585" 
d="M405 442h-26v-322q0 -43 12 -56.5t49 -13.5v-50h-295v50q37 0 49 13.5t12 56.5v322h-26q-42 0 -56 -20.5t-31 -88.5h-81l11 183h539l11 -183h-81q-8 31 -11 43t-10 29t-15 22.5t-20.5 10t-30.5 4.5z" />
    <glyph glyph-name="afii10085" unicode="&#x443;" horiz-adv-x="572" 
d="M117 -205l-61 108q166 25 209 107l-66 -5q-15 61 -62 190l-76 209q-13 35 -23.5 46t-37.5 15v51h292v-51q-33 -1 -45.5 -7t-12.5 -18q0 -7 5 -22l68 -218q6 -19 14 -66h6q4 27 17 68l66 216q4 12 4 22q0 14 -13 18.5t-48 6.5v51h219v-51q-31 -4 -44 -14t-25 -44
l-148 -396q-35 -94 -91.5 -149.5t-146.5 -66.5z" />
    <glyph glyph-name="afii10086" unicode="&#x444;" horiz-adv-x="874" 
d="M38 261q0 130 59 199t145 69q71 0 110 -47v94q0 53 -11.5 68t-47.5 17v49l193 26h15q21 -27 21 -100v-158q44 51 123 51q89 0 140 -69t51 -205q0 -130 -59 -199t-145 -69q-73 0 -110 45v-108q0 -43 11 -56.5t46 -13.5v-50h-284v50q35 0 46 13.5t11 56.5v114
q-44 -51 -123 -51q-89 0 -140 70t-51 204zM584 429q-28 0 -62 -20v-312q29 -24 56 -24q42 0 62.5 38.5t20.5 133.5q0 184 -77 184zM290 87q28 0 62 21v310q-30 25 -56 25q-42 0 -62.5 -38.5t-20.5 -133.5q0 -184 77 -184z" />
    <glyph glyph-name="afii10087" unicode="&#x445;" horiz-adv-x="577" 
d="M250 193l-63 -89q-10 -14 -10 -27q0 -27 40 -27v-50h-202v50q27 3 40.5 13.5t35.5 40.5l115 153l-111 153q-25 34 -35.5 42.5t-33.5 12.5v51h281v-51q-31 0 -31 -22q0 -11 11 -28l48 -70h4l49 70q8 11 8 25q0 25 -34 25v51h202v-51q-29 -3 -43.5 -15t-38.5 -43l-100 -132
l111 -159q29 -41 42.5 -52t41.5 -14v-50h-282v50q14 0 23.5 6.5t9.5 18.5t-10 26l-64 92h-4z" />
    <glyph glyph-name="afii10088" unicode="&#x446;" horiz-adv-x="683" 
d="M506 0h-481v50q35 0 46 13.5t11 56.5v274q0 43 -11 56.5t-46 13.5v52h279v-52q-28 0 -38.5 -14t-10.5 -56v-315h163v315q0 42 -10.5 56t-38.5 14v52h279v-52q-35 0 -46 -13.5t-11 -56.5v-254q0 -34 9.5 -47.5t37.5 -13.5h30v-79l-23 -145h-97q0 77 -8.5 111t-33.5 34z
" />
    <glyph glyph-name="afii10089" unicode="&#x447;" horiz-adv-x="653" 
d="M235 394v-87q0 -40 14.5 -59.5t48.5 -19.5q48 0 100 49v117q0 42 -10.5 56t-38.5 14v52h279v-52q-35 0 -46 -13.5t-11 -56.5v-274q0 -43 11 -56.5t46 -13.5v-50h-287v50q35 0 46 13.5t11 56.5v88q-91 -85 -191 -85q-67 0 -106 40.5t-39 125.5v105q0 43 -10.5 56.5
t-46.5 13.5v52h287v-52q-35 0 -46 -13.5t-11 -56.5z" />
    <glyph glyph-name="afii10090" unicode="&#x448;" horiz-adv-x="939" 
d="M25 0v50q35 0 46 13.5t11 56.5v274q0 43 -11 56.5t-46 13.5v52h265v-52q-24 0 -31.5 -13.5t-7.5 -56.5v-315h134v315q0 43 -7.5 56.5t-31.5 13.5v52h247v-52q-24 0 -31.5 -13.5t-7.5 -56.5v-315h134v315q0 43 -7.5 56.5t-31.5 13.5v52h265v-52q-35 0 -46 -13.5t-11 -56.5
v-274q0 -43 11 -56.5t46 -13.5v-50h-889z" />
    <glyph glyph-name="afii10091" unicode="&#x449;" horiz-adv-x="949" 
d="M772 0h-747v50q35 0 46 13.5t11 56.5v274q0 43 -11 56.5t-46 13.5v52h265v-52q-24 0 -31.5 -13.5t-7.5 -56.5v-315h134v315q0 43 -7.5 56.5t-31.5 13.5v52h247v-52q-24 0 -31.5 -13.5t-7.5 -56.5v-315h134v315q0 43 -7.5 56.5t-31.5 13.5v52h265v-52q-35 0 -46 -13.5
t-11 -56.5v-254q0 -36 11 -48.5t46 -12.5h20v-79l-23 -145h-97q0 77 -8.5 111t-33.5 34z" />
    <glyph glyph-name="afii10092" unicode="&#x44a;" horiz-adv-x="683" 
d="M442 516v-52q-35 0 -46 -13.5t-11 -56.5v-75h17q147 0 201.5 -35.5t54.5 -121.5q0 -89 -59 -125.5t-192 -36.5h-252v50q35 0 46 13.5t11 56.5v322h-32q-42 0 -56 -20.5t-31 -88.5h-81l11 183h419zM401 247h-16v-172h19q39 0 55.5 17t16.5 67q0 52 -15 70t-60 18z" />
    <glyph glyph-name="afii10093" unicode="&#x44b;" horiz-adv-x="840" 
d="M312 516v-52q-35 0 -46 -13.5t-11 -56.5v-75h7q145 0 199.5 -35.5t54.5 -121.5q0 -89 -59 -125.5t-190 -36.5h-242v50q35 0 46 13.5t11 56.5v274q0 43 -11 56.5t-46 13.5v52h287zM585 394q0 43 -11 56.5t-46 13.5v52h287v-52q-35 0 -46 -13.5t-11 -56.5v-274
q0 -43 11 -56.5t46 -13.5v-50h-282v50q32 0 42 13.5t10 56.5v274zM261 247h-6v-172h9q39 0 54.5 17t15.5 67q0 52 -14 70t-59 18z" />
    <glyph glyph-name="afii10094" unicode="&#x44c;" horiz-adv-x="553" 
d="M312 516v-52q-35 0 -46 -13.5t-11 -56.5v-75h17q147 0 201.5 -35.5t54.5 -121.5q0 -89 -59 -125.5t-192 -36.5h-252v50q35 0 46 13.5t11 56.5v274q0 43 -11 56.5t-46 13.5v52h287zM271 247h-16v-172h19q39 0 55.5 17t16.5 67q0 52 -15 70t-60 18z" />
    <glyph glyph-name="afii10095" unicode="&#x44d;" horiz-adv-x="511" 
d="M135 224v76h165q-3 90 -21 125t-52 35q-29 0 -48 -20t-20 -64h-125v112q79 41 191 41q118 0 184.5 -68t66.5 -213q0 -133 -68.5 -197t-183.5 -64q-126 0 -194 41v110h125q4 -46 19.5 -64t46.5 -18q28 0 43 11.5t24.5 48.5t11.5 108h-165z" />
    <glyph glyph-name="afii10096" unicode="&#x44e;" horiz-adv-x="878" 
d="M843 271q0 -145 -72 -214.5t-186 -69.5q-115 0 -178 60t-71 173h-81v-100q0 -42 10.5 -56t38.5 -14v-50h-279v50q35 0 46 13.5t11 56.5v274q0 43 -11 56.5t-46 13.5v52h279v-52q-28 0 -38.5 -14t-10.5 -56v-93h82q12 105 79 166.5t180 61.5q115 0 181 -62.5t66 -195.5z
M658 278q0 102 -16 141.5t-53 39.5q-36 0 -52.5 -43.5t-16.5 -166.5q0 -108 14 -151.5t57 -43.5q35 0 51 51t16 173z" />
    <glyph glyph-name="afii10097" unicode="&#x44f;" horiz-adv-x="595" 
d="M513 394v-274q0 -43 11 -56.5t46 -13.5v-50h-273v50q26 0 34.5 14t8.5 56v91h-4q-46 0 -61.5 -16.5t-46.5 -97.5q-25 -67 -74.5 -90t-139.5 -23l-14 104q26 6 37.5 16.5t23.5 36.5q20 43 47 63t79 21v5q-73 6 -109.5 42.5t-36.5 90.5q0 86 64.5 119.5t201.5 33.5h263v-52
q-35 0 -46 -13.5t-11 -56.5zM222 364q0 -49 20 -67.5t65 -18.5h33v165h-36q-42 0 -62 -15.5t-20 -63.5z" />
    <glyph glyph-name="uni0450" unicode="&#x450;" horiz-adv-x="549" 
d="M351 85q68 0 133 31l26 -44q-82 -85 -222 -85q-121 0 -187 71t-66 201q0 127 68.5 198.5t185.5 71.5q122 0 176 -64t54 -186v-49h-297q3 -77 32 -111t97 -34zM291 460q-33 0 -48 -33t-20 -121h126q0 89 -12.5 121.5t-45.5 32.5zM416 590l-28 -36l-252 97l88 139z" />
    <glyph glyph-name="afii10071" unicode="&#x451;" horiz-adv-x="549" 
d="M351 85q68 0 133 31l26 -44q-82 -85 -222 -85q-121 0 -187 71t-66 201q0 127 68.5 198.5t185.5 71.5q122 0 176 -64t54 -186v-49h-297q3 -77 32 -111t97 -34zM291 460q-33 0 -48 -33t-20 -121h126q0 89 -12.5 121.5t-45.5 32.5zM260 650q0 -37 -27 -63t-65 -26t-64.5 26
t-26.5 63t27.5 63.5t65.5 26.5t64 -26t26 -64zM489 650q0 -37 -27 -63t-65 -26t-64.5 26t-26.5 63t27.5 63.5t65.5 26.5t64 -26t26 -64z" />
    <glyph glyph-name="afii10099" unicode="&#x452;" horiz-adv-x="625" 
d="M395 328q0 81 -63 81q-40 0 -85 -27v-262q0 -43 11 -56.5t46 -13.5v-50h-287v50q35 0 46 13.5t11 56.5v447h-59v47h59q0 30 -12 38.5t-47 8.5v49l196 26h15q21 -26 21 -100v-22h161v-47h-161v-123q75 85 172 85q66 0 107.5 -40t41.5 -119v-352q0 -53 -21 -95t-56 -67.5
t-71.5 -40.5t-75.5 -21l-29 46q45 21 62.5 60.5t17.5 117.5v310z" />
    <glyph glyph-name="afii10100" unicode="&#x453;" horiz-adv-x="491" 
d="M25 516h443l11 -183h-81q-8 31 -11 43t-10 29t-15 22.5t-20.5 10t-30.5 4.5h-56v-322q0 -43 12 -56.5t49 -13.5v-50h-291v50q35 0 46 13.5t11 56.5v274q0 43 -11 56.5t-46 13.5v52zM157 554l-28 36l192 200l88 -139z" />
    <glyph glyph-name="afii10101" unicode="&#x454;" horiz-adv-x="513" 
d="M483 488v-117h-129q-1 49 -10.5 69t-35.5 20q-91 0 -98 -160h172v-76h-170q17 -141 137 -141q63 0 118 28l27 -43q-68 -81 -203 -81q-111 0 -183.5 68t-72.5 195q0 131 79 205t193 74q115 0 176 -41z" />
    <glyph glyph-name="afii10102" unicode="&#x455;" horiz-adv-x="482" 
d="M225 -13q-109 0 -195 43v113h112q10 -88 96 -88q75 0 75 53q0 26 -15 40t-48 21l-85 18q-134 28 -134 162q0 87 60 133.5t152 46.5q98 0 182 -36v-113h-104q-9 76 -92 76q-64 0 -64 -51q0 -39 50 -50l79 -17q163 -37 163 -179q0 -84 -60 -128t-172 -44z" />
    <glyph glyph-name="afii10103" unicode="&#x456;" horiz-adv-x="327" 
d="M312 0h-287v50q35 0 46 13.5t11 56.5v235q0 54 -10 68.5t-45 16.5v49l203 33h25v-402q0 -43 11 -56.5t46 -13.5v-50zM263 652q0 -41 -29.5 -69.5t-71.5 -28.5q-41 0 -70 29t-29 69t30 69t72 29q41 0 69.5 -28.5t28.5 -69.5z" />
    <glyph glyph-name="afii10104" unicode="&#x457;" horiz-adv-x="327" 
d="M312 0h-287v50q35 0 46 13.5t11 56.5v235q0 54 -10 68.5t-45 16.5v49l203 33h25v-402q0 -43 11 -56.5t46 -13.5v-50zM141 650q0 -37 -27 -63t-65 -26t-64.5 26t-26.5 63t27.5 63.5t65.5 26.5t64 -26t26 -64zM370 650q0 -37 -27 -63t-65 -26t-64.5 26t-26.5 63t27.5 63.5
t65.5 26.5t64 -26t26 -64z" />
    <glyph glyph-name="afii10105" unicode="&#x458;" horiz-adv-x="321" 
d="M80 18v337q0 54 -10 68.5t-45 16.5v49l203 33h25v-504q0 -53 -21 -95t-56 -67.5t-71.5 -40.5t-75.5 -21l-29 46q45 21 62.5 60.5t17.5 117.5zM261 652q0 -41 -29.5 -69.5t-71.5 -28.5q-41 0 -70 29t-29 69t30 69t72 29q41 0 69.5 -28.5t28.5 -69.5z" />
    <glyph glyph-name="afii10106" unicode="&#x459;" horiz-adv-x="819" 
d="M141 394q0 43 -11 56.5t-46 13.5v52h506v-52q-35 0 -46 -13.5t-11 -56.5v-75h7q145 0 199.5 -35.5t54.5 -121.5q0 -83 -55 -122.5t-172 -39.5h-256v50q28 0 38.5 14t10.5 56v317h-130q0 -160 -15 -266q-15 -103 -55.5 -144.5t-142.5 -41.5l-13 107q37 9 57.5 20t37.5 34
q27 37 34.5 95t7.5 153zM539 247h-6v-172h9q39 0 54.5 17t15.5 67q0 52 -14 70t-59 18z" />
    <glyph glyph-name="afii10107" unicode="&#x45a;" horiz-adv-x="868" 
d="M82 394q0 43 -11 56.5t-46 13.5v52h279v-52q-28 0 -38.5 -14t-10.5 -56v-81h154v81q0 42 -10.5 56t-38.5 14v52h279v-52q-35 0 -46 -13.5t-11 -56.5v-81h7q145 0 199.5 -35t54.5 -116q0 -85 -56.5 -123.5t-192.5 -38.5h-234v50q28 0 38.5 14t10.5 56v116h-154v-116
q0 -42 10.5 -56t38.5 -14v-50h-279v50q35 0 46 13.5t11 56.5v274zM588 242h-6v-167h9q39 0 54.5 17t15.5 67q0 45 -14.5 64t-58.5 19z" />
    <glyph glyph-name="afii10108" unicode="&#x45b;" horiz-adv-x="635" 
d="M247 636v-22h161v-47h-161v-123q75 85 172 85q66 0 107.5 -40t41.5 -119v-250q0 -43 11 -56.5t46 -13.5v-50h-287v50q35 0 46 13.5t11 56.5v208q0 81 -63 81q-40 0 -85 -27v-262q0 -43 11 -56.5t46 -13.5v-50h-287v50q35 0 46 13.5t11 56.5v447h-59v47h59q0 30 -12 38.5
t-47 8.5v49l196 26h15q21 -26 21 -100z" />
    <glyph glyph-name="afii10109" unicode="&#x45c;" horiz-adv-x="612" 
d="M576 411l-47 -5q-35 -4 -53 -19.5t-26 -43.5q-8 -29 -27 -45.5t-56 -27.5v-4q83 -2 118 -25.5t46 -70.5q10 -41 21.5 -58.5t39.5 -23.5l-14 -104q-107 0 -148.5 25t-57.5 101q-15 70 -31 92t-52 22h-34v-104q0 -42 9.5 -56t37.5 -14v-50h-277v50q35 0 46 13.5t11 56.5
v274q0 43 -11 56.5t-46 13.5v52h279v-52q-28 0 -38.5 -14t-10.5 -56v-96h10q102 0 118 101q12 70 54.5 98.5t128.5 31.5zM224 554l-28 36l192 200l88 -139z" />
    <glyph glyph-name="uni045D" unicode="&#x45d;" horiz-adv-x="673" 
d="M422 120v82q0 86 8 134h-6q-16 -53 -47 -99l-110 -163q-15 -24 -15 -74h-227v50q35 0 46 13.5t11 56.5v274q0 43 -11 56.5t-46 13.5v52h276v-52q-29 0 -39.5 -14t-10.5 -56v-80q0 -86 -8 -134h6q16 53 47 99l110 163q15 24 15 74h227v-52q-35 0 -46 -13.5t-11 -56.5v-274
q0 -43 11 -56.5t46 -13.5v-50h-279l3 50q29 0 39.5 14t10.5 56zM456 590l-28 -36l-252 97l88 139z" />
    <glyph glyph-name="afii10110" unicode="&#x45e;" horiz-adv-x="572" 
d="M117 -205l-61 108q166 25 209 107l-66 -5q-15 61 -62 190l-76 209q-13 35 -23.5 46t-37.5 15v51h292v-51q-33 -1 -45.5 -7t-12.5 -18q0 -7 5 -22l68 -218q6 -19 14 -66h6q4 27 17 68l66 216q4 12 4 22q0 14 -13 18.5t-48 6.5v51h219v-51q-31 -4 -44 -14t-25 -44
l-148 -396q-35 -94 -91.5 -149.5t-146.5 -66.5zM283 564q-69 0 -113 41.5t-59 107.5l40 22q45 -68 132 -68t132 68l40 -22q-15 -66 -59 -107.5t-113 -41.5z" />
    <glyph glyph-name="afii10193" unicode="&#x45f;" horiz-adv-x="673" 
d="M25 0v50q35 0 46 13.5t11 56.5v274q0 43 -11 56.5t-46 13.5v52h279v-52q-28 0 -38.5 -14t-10.5 -56v-315h163v315q0 42 -10.5 56t-38.5 14v52h279v-52q-35 0 -46 -13.5t-11 -56.5v-274q0 -43 11 -56.5t46 -13.5v-50h-208q-47 0 -47 -145h-113q0 145 -47 145h-208z" />
    <glyph glyph-name="afii10146" unicode="&#x462;" horiz-adv-x="778" 
d="M199 527q-42 0 -59 -17t-33 -80h-87l11 177h202q0 23 -15 30t-49 7v53h311v-53q-22 0 -34 -2t-21 -10.5t-9 -24.5h208l10 -177h-87q-16 63 -33 80t-59 17h-39v-120h95q114 0 183 -49.5t69 -155.5q0 -36 -11.5 -68.5t-38.5 -64t-80 -50.5t-127 -19h-337v50q36 0 50 14
t14 56v407h-34zM568 201q0 66 -25 96t-79 30h-48v-244h52q54 0 77 25t23 93z" />
    <glyph glyph-name="afii10194" unicode="&#x463;" horiz-adv-x="632" 
d="M342 445h-21v-102h17q149 0 207.5 -37.5t58.5 -126.5q0 -96 -64 -137.5t-197 -41.5h-252v50q35 0 46 13.5t11 56.5v325h-16q-44 0 -57.5 -13.5t-29.5 -68.5h-75l11 153h167v60q0 53 -11.5 68t-47.5 17v49l196 26h15q21 -27 21 -100v-120h172l11 -153h-75
q-16 55 -29.5 68.5t-57.5 13.5zM337 271h-16v-196h19q92 0 92 101q0 50 -24 72.5t-71 22.5z" />
    <glyph glyph-name="afii10147" unicode="&#x472;" horiz-adv-x="720" 
d="M360 -12q-153 0 -236.5 89.5t-83.5 259.5q0 189 87 280.5t233 91.5t233 -91.5t87 -280.5q0 -170 -83.5 -259.5t-236.5 -89.5zM360 61q37 0 59.5 17t38 73.5t17.5 157.5h-231q2 -102 18 -158t38.5 -73t59.5 -17zM360 628q-58 0 -85 -51t-31 -186h231q-4 135 -31 186
t-84 51z" />
    <glyph glyph-name="afii10195" unicode="&#x473;" horiz-adv-x="598" 
d="M563 271q0 -98 -38.5 -163.5t-97 -93t-132.5 -27.5q-125 0 -192.5 70t-67.5 199q0 123 72.5 198t198.5 75q116 0 186.5 -63t70.5 -195zM301 54q34 0 51 42.5t20 140.5h-147q1 -100 17 -141.5t59 -41.5zM299 459q-35 0 -53 -36.5t-21 -135.5h148q-1 96 -18.5 134t-55.5 38
z" />
    <glyph glyph-name="afii10148" unicode="&#x474;" horiz-adv-x="717" 
d="M581 490l-150 -490h-144l-208 591q-11 33 -22 42t-37 13v51h307v-51q-54 0 -54 -36q0 -6 4 -20l102 -331q17 -56 20 -100h6q2 37 21 103l85 299q22 78 63.5 111.5t128.5 36.5l14 -136l-44 -5q-42 -6 -60.5 -20.5t-31.5 -57.5z" />
    <glyph glyph-name="afii10196" unicode="&#x475;" horiz-adv-x="592" 
d="M349 221l47 162q23 78 60.5 111.5t127.5 35.5l12 -124l-28 -4q-67 -8 -86 -58l-126 -349h-136l-160 412q-13 34 -23.5 44t-36.5 14v51h292v-51q-54 0 -54 -35q0 -8 5 -23l63 -186q15 -47 18 -74h6q3 18 19 74z" />
    <glyph glyph-name="afii10050" unicode="&#x490;" horiz-adv-x="560" 
d="M25 697h334q57 0 77 18.5t36 85.5h88l-12 -184h-276v-497q0 -43 16.5 -56.5t67.5 -13.5v-50h-331v50q36 0 50 14t14 56v454q0 42 -14 56t-50 14v53z" />
    <glyph glyph-name="afii10098" unicode="&#x491;" horiz-adv-x="481" 
d="M25 516h294q16 0 27 5t18 10.5t13.5 23t9.5 29t11 41.5h81l-11 -183h-213v-322q0 -43 12 -56.5t49 -13.5v-50h-291v50q35 0 46 13.5t11 56.5v274q0 43 -11 56.5t-46 13.5v52z" />
    <glyph glyph-name="uni0492" unicode="&#x492;" horiz-adv-x="575" 
d="M277 617v-224h121v-86h-121v-187q0 -43 16.5 -56.5t67.5 -13.5v-50h-331v50q36 0 50 14t14 56v187h-59v86h59v181q0 42 -14 56t-50 14v53h523l12 -194h-88q-17 72 -35 93t-72 21h-93z" />
    <glyph glyph-name="uni0493" unicode="&#x493;" horiz-adv-x="491" 
d="M25 516h443l11 -183h-81q-8 31 -11 43t-10 29t-15 22.5t-20.5 10t-30.5 4.5h-56v-155h89v-50h-89v-117q0 -43 12 -56.5t49 -13.5v-50h-291v50q35 0 46 13.5t11 56.5v117h-50v50h50v107q0 43 -11 56.5t-46 13.5v52z" />
    <glyph glyph-name="uni0496" unicode="&#x496;" horiz-adv-x="1047" 
d="M655 330h-49v-210q0 -42 12.5 -56t48.5 -14v-50h-305v50q36 0 48.5 14t12.5 56v210h-49q-37 0 -53.5 -30t-38.5 -133q-23 -107 -77 -144.5t-169 -37.5l-16 112q45 7 59 29t25 83q14 78 54.5 118t114.5 46v5q-44 15 -64 42t-31 68q-11 44 -33.5 63.5t-63.5 24.5l-54 7
l14 126q91 -3 142.5 -38.5t64.5 -111.5q15 -89 55 -119t104 -30h16v164q0 42 -12.5 56t-48.5 14v53h305v-53q-36 0 -48.5 -14t-12.5 -56v-164h16q64 0 104 30t55 119q13 76 64.5 111.5t142.5 38.5l14 -126l-54 -7q-41 -5 -63.5 -24.5t-33.5 -63.5q-11 -41 -31 -68t-64 -42
v-5q74 -6 114.5 -46t54.5 -118q6 -33 11 -51t14.5 -38t26 -29t39.5 -9h12v-82l-28 -180h-98q0 105 -6.5 137.5t-34.5 44.5q-47 20 -73 57.5t-41 107.5q-22 103 -38.5 133t-53.5 30z" />
    <glyph glyph-name="uni0497" unicode="&#x497;" horiz-adv-x="874" 
d="M833 411l-47 -5q-35 -4 -53 -19.5t-26 -43.5q-8 -29 -27 -45.5t-56 -27.5v-4q83 -2 115.5 -25t43.5 -71q21 -91 70 -91h16v-79l-23 -145h-97q0 74 -8.5 101t-42.5 47q-29 17 -44 39.5t-25 67.5q-15 69 -32 91.5t-51 22.5h-27v-104q0 -42 9.5 -56t37.5 -14v-50h-263v50
q28 0 37.5 14t9.5 56v104h-27q-34 0 -51 -22.5t-32 -91.5q-16 -76 -57.5 -101t-148.5 -25l-14 104q29 7 43 25t23 57q11 48 43.5 71t115.5 25v4q-37 11 -56 27.5t-27 45.5q-16 55 -80 63l-47 5l11 118q86 -3 128.5 -31.5t54.5 -98.5q16 -101 117 -101h4v96q0 42 -10.5 56
t-38.5 14v52h267v-52q-28 0 -38.5 -14t-10.5 -56v-96h4q101 0 117 101q12 70 54.5 98.5t128.5 31.5z" />
    <glyph glyph-name="uni0498" unicode="&#x498;" horiz-adv-x="592" 
d="M255 323h-76v83h76q48 0 73 29t25 83q0 49 -22 79.5t-66 30.5q-43 0 -66.5 -28t-33.5 -88h-119v141q90 56 226 56q140 0 207 -50t67 -130q0 -60 -39.5 -101t-118.5 -55v-4q87 -10 138 -52.5t51 -118.5q0 -98 -71.5 -153t-198.5 -58l-8 -29q101 -6 101 -79
q0 -45 -31.5 -65t-94.5 -20q-69 0 -106 25l17 42q30 -19 68 -19q34 0 34 25q0 29 -55 31l1 21l20 70q-150 10 -213 59v150h119q9 -66 36 -99.5t79 -33.5q54 0 81 35.5t27 95.5q0 127 -127 127z" />
    <glyph glyph-name="uni0499" unicode="&#x499;" horiz-adv-x="508" 
d="M356 -121q0 -45 -31.5 -65t-94.5 -20q-69 0 -106 25l17 42q30 -19 68 -19q34 0 34 25q0 29 -55 31l1 21l18 68q-113 5 -177 44v112h123q4 -46 21 -65.5t48 -19.5q34 0 51.5 18t17.5 63q0 52 -15.5 70.5t-60.5 18.5h-43v72h46q37 0 48.5 20t11.5 59q0 43 -12.5 62
t-44.5 19q-60 0 -61 -84h-125v110q83 43 192 43q122 0 175 -34.5t53 -100.5q0 -50 -29 -79t-94 -42v-6q146 -11 146 -122q0 -76 -61 -113.5t-155 -43.5l-7 -30q101 -6 101 -79z" />
    <glyph glyph-name="uni049A" unicode="&#x49a;" horiz-adv-x="723" 
d="M421 167q-24 104 -40 133.5t-50 29.5h-59v-210q0 -42 12.5 -56t48.5 -14v-50h-308v50q36 0 50 14t14 56v454q0 42 -14 56t-50 14v53h308v-53q-36 0 -48.5 -14t-12.5 -56v-164h26q64 0 104 30t55 119q13 76 64.5 111.5t142.5 38.5l14 -126l-54 -7q-41 -5 -63.5 -24.5
t-33.5 -63.5q-11 -41 -31 -68t-64 -42v-5q74 -6 115 -46t55 -118q5 -29 7.5 -41.5t9.5 -33t14.5 -29t21.5 -16t32 -7.5h17v-82l-28 -180h-98q0 105 -7 137t-35 46q-45 22 -72 59t-43 105z" />
    <glyph glyph-name="uni049B" unicode="&#x49b;" horiz-adv-x="617" 
d="M372 110q-16 72 -33 93t-58 21h-26v-104q0 -42 9.5 -56t37.5 -14v-50h-277v50q35 0 46 13.5t11 56.5v274q0 43 -11 56.5t-46 13.5v52h279v-52q-28 0 -38.5 -14t-10.5 -56v-96h10q102 0 118 101q12 70 54.5 98.5t128.5 31.5l10 -118l-47 -5q-35 -4 -53 -19.5t-26 -43.5
q-8 -29 -27 -45.5t-56 -27.5v-4q83 -2 118 -25.5t46 -70.5q10 -45 22 -67.5t38 -23.5h21v-79l-23 -145h-97q0 74 -8.5 101t-42.5 47q-29 17 -44 39.5t-25 67.5z" />
    <glyph glyph-name="uni049C" unicode="&#x49c;" horiz-adv-x="705" 
d="M527 488q-11 -41 -31 -68t-64 -42v-5q74 -6 115 -46t55 -118q5 -27 7.5 -38.5t8.5 -28t13.5 -23t21 -13t32.5 -9.5l-16 -112q-116 0 -171.5 38t-75.5 144q-18 97 -29.5 125.5t-31.5 35.5l9 -167h-62v169h-36v-210q0 -42 12.5 -56t48.5 -14v-50h-308v50q36 0 50 14t14 56
v454q0 42 -14 56t-50 14v53h308v-53q-36 0 -48.5 -14t-12.5 -56v-164h36v117h62l-9 -113q74 23 96 145q13 76 64.5 111.5t142.5 38.5l14 -126l-54 -7q-41 -5 -63.5 -24.5t-33.5 -63.5z" />
    <glyph glyph-name="uni049D" unicode="&#x49d;" horiz-adv-x="622" 
d="M255 298h28v87h52l-8 -84q52 12 66 98q12 70 54.5 98.5t128.5 31.5l10 -118l-47 -5q-35 -4 -53 -19.5t-26 -43.5q-8 -29 -27 -45.5t-56 -27.5v-4q83 -2 118 -25.5t46 -70.5q10 -41 21.5 -58.5t39.5 -23.5l-14 -104q-107 0 -148.5 25t-57.5 101q-13 60 -24.5 85.5
t-31.5 28.5l9 -113h-52v113h-28v-104q0 -42 9.5 -56t37.5 -14v-50h-277v50q35 0 46 13.5t11 56.5v274q0 43 -11 56.5t-46 13.5v52h279v-52q-28 0 -38.5 -14t-10.5 -56v-96z" />
    <glyph glyph-name="uni04A0" unicode="&#x4a0;" horiz-adv-x="835" 
d="M465 330h-63v-210q0 -42 12.5 -56t48.5 -14v-50h-308v50q36 0 50 14t14 56v497h-24q-54 0 -72 -21t-35 -93h-88l12 194h451v-53q-36 0 -48.5 -14t-12.5 -56v-164h26q64 0 104 30t55 119q13 76 64.5 111.5t142.5 38.5l14 -126l-54 -7q-41 -5 -63.5 -24.5t-33.5 -63.5
q-11 -41 -31 -68t-64 -42v-5q74 -6 115 -46t55 -118q5 -27 7.5 -38.5t8.5 -28t13.5 -23t21 -13t32.5 -9.5l-16 -112q-115 0 -170 38t-78 144q-23 104 -38 133.5t-48 29.5z" />
    <glyph glyph-name="uni04A1" unicode="&#x4a1;" horiz-adv-x="731" 
d="M400 224h-26v-104q0 -42 9.5 -56t37.5 -14v-50h-277v50q35 0 46 13.5t11 56.5v322h-21q-42 0 -56 -20.5t-31 -88.5h-81l11 183h400v-52q-28 0 -38.5 -14t-10.5 -56v-96h10q102 0 118 101q12 70 54.5 98.5t128.5 31.5l10 -118l-47 -5q-35 -4 -53 -19.5t-26 -43.5
q-8 -29 -27 -45.5t-56 -27.5v-4q83 -2 118 -25t46 -70q10 -41 21.5 -58.5t39.5 -23.5l-14 -105q-107 0 -148.5 25t-57.5 101q-16 72 -33 93t-58 21z" />
    <glyph glyph-name="uni04A2" unicode="&#x4a2;" horiz-adv-x="772" 
d="M729 -180h-98q0 105 -8 142.5t-34 37.5h-163v50q36 0 50 14t14 56v190h-218v-190q0 -42 14 -56t50 -14v-50h-311v50q36 0 50 14t14 56v454q0 42 -14 56t-50 14v53h311v-53q-36 0 -50 -14t-14 -56v-179h218v179q0 42 -14 56t-50 14v53h311v-53q-36 0 -50 -14t-14 -56v-449
q0 -23 14.5 -33t49.5 -10h20v-82z" />
    <glyph glyph-name="uni04A3" unicode="&#x4a3;" horiz-adv-x="687" 
d="M510 0h-137v50q28 0 38.5 14t10.5 56v100h-167v-100q0 -42 10.5 -56t38.5 -14v-50h-279v50q35 0 46 13.5t11 56.5v274q0 43 -11 56.5t-46 13.5v52h279v-52q-28 0 -38.5 -14t-10.5 -56v-93h167v93q0 42 -10.5 56t-38.5 14v52h279v-52q-35 0 -46 -13.5t-11 -56.5v-254
q0 -34 9.5 -47.5t37.5 -13.5h30v-79l-23 -145h-97q0 77 -8.5 111t-33.5 34z" />
    </font>
</defs>
</svg>
